<svg width="242" height="173" viewBox="0 0 242 173" fill="none" xmlns="http://www.w3.org/2000/svg">
<path d="M84.375 23.4688V28.1562C84.375 31.3789 86.4258 34.0156 89.3555 34.8945C112.207 41.3398 128.906 62.1406 128.906 86.75C128.906 116.633 104.59 140.656 75 140.656C45.1172 140.656 21.0938 116.633 21.0938 86.75C21.0938 62.1406 37.5 41.3398 60.3516 34.8945C63.2812 34.0156 65.625 31.3789 65.625 28.1562V23.4688C65.625 18.7812 61.2305 15.2656 56.543 16.4375C25.1953 24.6406 2.05078 53.3516 2.34375 87.3359C2.34375 127.473 34.8633 159.699 75 159.406C115.137 159.406 147.656 126.887 147.656 86.75C147.656 53.0586 124.219 24.6406 92.8711 16.4375C88.4766 15.2656 84.375 18.7812 84.375 23.4688Z" fill="#FAD62C" fill-opacity="0.3"/>
<path d="M6.91406 29.041L2.20703 42H0.283203L5.70312 27.7812H6.94336L6.91406 29.041ZM10.8594 42L6.14258 29.041L6.11328 27.7812H7.35352L12.793 42H10.8594ZM10.6152 36.7363V38.2793H2.62695V36.7363H10.6152ZM34.166 34.9199V40.125C33.9902 40.3854 33.7103 40.6784 33.3262 41.0039C32.9421 41.3229 32.4115 41.6029 31.7344 41.8438C31.0638 42.0781 30.1979 42.1953 29.1367 42.1953C28.2708 42.1953 27.4733 42.0456 26.7441 41.7461C26.0215 41.4401 25.3932 40.9974 24.8594 40.418C24.332 39.832 23.9219 39.1224 23.6289 38.2891C23.3424 37.4492 23.1992 36.4987 23.1992 35.4375V34.334C23.1992 33.2728 23.3229 32.3255 23.5703 31.4922C23.8242 30.6589 24.1953 29.9525 24.6836 29.373C25.1719 28.7871 25.7708 28.3444 26.4805 28.0449C27.1901 27.7389 28.0039 27.5859 28.9219 27.5859C30.0091 27.5859 30.9173 27.7747 31.6465 28.1523C32.3822 28.5234 32.9551 29.0378 33.3652 29.6953C33.7819 30.3529 34.0488 31.1016 34.166 31.9414H32.2812C32.1966 31.4271 32.0273 30.9583 31.7734 30.5352C31.526 30.112 31.1712 29.7734 30.709 29.5195C30.2467 29.2591 29.651 29.1289 28.9219 29.1289C28.2643 29.1289 27.6947 29.2493 27.2129 29.4902C26.7311 29.7311 26.334 30.0762 26.0215 30.5254C25.709 30.9746 25.4746 31.5182 25.3184 32.1562C25.1686 32.7943 25.0938 33.5137 25.0938 34.3145V35.4375C25.0938 36.2578 25.1882 36.9902 25.377 37.6348C25.5723 38.2793 25.849 38.8294 26.207 39.2852C26.5651 39.7344 26.9915 40.0762 27.4863 40.3105C27.9876 40.5449 28.541 40.6621 29.1465 40.6621C29.8171 40.6621 30.3607 40.6068 30.7773 40.4961C31.194 40.3789 31.5195 40.2422 31.7539 40.0859C31.9883 39.9232 32.1673 39.7702 32.291 39.627V36.4434H29V34.9199H34.166ZM40.9805 27V42H39.1641V27H40.9805ZM47.8438 31.4336V42H46.0273V31.4336H47.8438ZM45.8906 28.6309C45.8906 28.3379 45.9785 28.0905 46.1543 27.8887C46.3366 27.6868 46.6035 27.5859 46.9551 27.5859C47.3001 27.5859 47.5638 27.6868 47.7461 27.8887C47.9349 28.0905 48.0293 28.3379 48.0293 28.6309C48.0293 28.9108 47.9349 29.1517 47.7461 29.3535C47.5638 29.5488 47.3001 29.6465 46.9551 29.6465C46.6035 29.6465 46.3366 29.5488 46.1543 29.3535C45.9785 29.1517 45.8906 28.9108 45.8906 28.6309ZM54.541 33.5332V42H52.7246V31.4336H54.4434L54.541 33.5332ZM54.1699 36.3164L53.3301 36.2871C53.3366 35.5645 53.431 34.8971 53.6133 34.2852C53.7956 33.6667 54.0658 33.1296 54.4238 32.6738C54.7819 32.2181 55.2279 31.8665 55.7617 31.6191C56.2956 31.3652 56.9141 31.2383 57.6172 31.2383C58.112 31.2383 58.5677 31.3099 58.9844 31.4531C59.401 31.5898 59.7624 31.8079 60.0684 32.1074C60.3743 32.4069 60.612 32.791 60.7812 33.2598C60.9505 33.7285 61.0352 34.2949 61.0352 34.959V42H59.2285V35.0469C59.2285 34.4935 59.1341 34.0508 58.9453 33.7188C58.763 33.3867 58.5026 33.1458 58.1641 32.9961C57.8255 32.8398 57.4284 32.7617 56.9727 32.7617C56.4388 32.7617 55.9928 32.8561 55.6348 33.0449C55.2767 33.2337 54.9902 33.4941 54.7754 33.8262C54.5605 34.1582 54.4043 34.5391 54.3066 34.9688C54.2155 35.3919 54.1699 35.8411 54.1699 36.3164ZM61.0156 35.3203L59.8047 35.6914C59.8112 35.112 59.9056 34.5553 60.0879 34.0215C60.2767 33.4876 60.5469 33.0124 60.8984 32.5957C61.2565 32.179 61.696 31.8503 62.2168 31.6094C62.7376 31.362 63.3333 31.2383 64.0039 31.2383C64.5703 31.2383 65.0716 31.3132 65.5078 31.4629C65.9505 31.6126 66.3216 31.8438 66.6211 32.1562C66.9271 32.4622 67.1582 32.8561 67.3145 33.3379C67.4707 33.8197 67.5488 34.3926 67.5488 35.0566V42H65.7324V35.0371C65.7324 34.4447 65.638 33.9857 65.4492 33.6602C65.2669 33.3281 65.0065 33.097 64.668 32.9668C64.3359 32.8301 63.9388 32.7617 63.4766 32.7617C63.0794 32.7617 62.7279 32.8301 62.4219 32.9668C62.1159 33.1035 61.8587 33.2923 61.6504 33.5332C61.4421 33.7676 61.2826 34.0378 61.1719 34.3438C61.0677 34.6497 61.0156 34.9753 61.0156 35.3203ZM74.0898 33.4648V46.0625H72.2734V31.4336H73.9336L74.0898 33.4648ZM81.209 36.6289V36.834C81.209 37.6022 81.1178 38.3151 80.9355 38.9727C80.7533 39.6237 80.4863 40.1901 80.1348 40.6719C79.7897 41.1536 79.3633 41.528 78.8555 41.7949C78.3477 42.0618 77.765 42.1953 77.1074 42.1953C76.4368 42.1953 75.8444 42.0846 75.3301 41.8633C74.8158 41.6419 74.3796 41.3197 74.0215 40.8965C73.6634 40.4733 73.377 39.9655 73.1621 39.373C72.9538 38.7806 72.8105 38.1133 72.7324 37.3711V36.2773C72.8105 35.4961 72.957 34.7962 73.1719 34.1777C73.3867 33.5592 73.6699 33.0319 74.0215 32.5957C74.3796 32.153 74.8125 31.8177 75.3203 31.5898C75.8281 31.3555 76.4141 31.2383 77.0781 31.2383C77.7422 31.2383 78.3314 31.3685 78.8457 31.6289C79.36 31.8828 79.793 32.2474 80.1445 32.7227C80.4961 33.1979 80.7598 33.7676 80.9355 34.4316C81.1178 35.0892 81.209 35.8216 81.209 36.6289ZM79.3926 36.834V36.6289C79.3926 36.1016 79.3372 35.6068 79.2266 35.1445C79.1159 34.6758 78.9434 34.2656 78.709 33.9141C78.4811 33.556 78.1882 33.276 77.8301 33.0742C77.472 32.8659 77.0456 32.7617 76.5508 32.7617C76.0951 32.7617 75.6979 32.8398 75.3594 32.9961C75.0273 33.1523 74.7441 33.3639 74.5098 33.6309C74.2754 33.8913 74.0833 34.1908 73.9336 34.5293C73.7904 34.8613 73.6829 35.2064 73.6113 35.5645V38.0938C73.7415 38.5495 73.9238 38.9792 74.1582 39.3828C74.3926 39.7799 74.7051 40.1022 75.0957 40.3496C75.4863 40.5905 75.9779 40.7109 76.5703 40.7109C77.0586 40.7109 77.4785 40.61 77.8301 40.4082C78.1882 40.1999 78.4811 39.9167 78.709 39.5586C78.9434 39.2005 79.1159 38.7904 79.2266 38.3281C79.3372 37.8594 79.3926 37.3613 79.3926 36.834ZM91.666 39.1973C91.666 38.9368 91.6074 38.696 91.4902 38.4746C91.3796 38.2467 91.1484 38.0417 90.7969 37.8594C90.4518 37.6706 89.931 37.5078 89.2344 37.3711C88.6484 37.2474 88.1178 37.1009 87.6426 36.9316C87.1738 36.7624 86.7734 36.5573 86.4414 36.3164C86.1159 36.0755 85.8652 35.7923 85.6895 35.4668C85.5137 35.1413 85.4258 34.7604 85.4258 34.3242C85.4258 33.9076 85.5169 33.5137 85.6992 33.1426C85.888 32.7715 86.1517 32.4427 86.4902 32.1562C86.8353 31.8698 87.2487 31.6452 87.7305 31.4824C88.2122 31.3197 88.7493 31.2383 89.3418 31.2383C90.1882 31.2383 90.9108 31.388 91.5098 31.6875C92.1087 31.987 92.5677 32.3874 92.8867 32.8887C93.2057 33.3835 93.3652 33.9336 93.3652 34.5391H91.5586C91.5586 34.2461 91.4707 33.9629 91.2949 33.6895C91.1257 33.4095 90.875 33.1784 90.543 32.9961C90.2174 32.8138 89.8171 32.7227 89.3418 32.7227C88.8405 32.7227 88.4336 32.8008 88.1211 32.957C87.8151 33.1068 87.5905 33.2988 87.4473 33.5332C87.3105 33.7676 87.2422 34.015 87.2422 34.2754C87.2422 34.4707 87.2747 34.6465 87.3398 34.8027C87.4115 34.9525 87.5352 35.0924 87.7109 35.2227C87.8867 35.3464 88.1341 35.4635 88.4531 35.5742C88.7721 35.6849 89.179 35.7956 89.6738 35.9062C90.5397 36.1016 91.2526 36.3359 91.8125 36.6094C92.3724 36.8828 92.7891 37.2181 93.0625 37.6152C93.3359 38.0124 93.4727 38.4941 93.4727 39.0605C93.4727 39.5228 93.375 39.946 93.1797 40.3301C92.9909 40.7142 92.7142 41.0462 92.3496 41.3262C91.9915 41.5996 91.5618 41.8145 91.0605 41.9707C90.5658 42.1204 90.0091 42.1953 89.3906 42.1953C88.4596 42.1953 87.6719 42.0293 87.0273 41.6973C86.3828 41.3652 85.8945 40.9355 85.5625 40.4082C85.2305 39.8809 85.0645 39.3242 85.0645 38.7383H86.8809C86.9069 39.2331 87.0501 39.627 87.3105 39.9199C87.571 40.2064 87.89 40.4115 88.2676 40.5352C88.6452 40.6523 89.0195 40.7109 89.3906 40.7109C89.8854 40.7109 90.2988 40.6458 90.6309 40.5156C90.9694 40.3854 91.2266 40.2064 91.4023 39.9785C91.5781 39.7507 91.666 39.4902 91.666 39.1973ZM102.23 42.1953C101.495 42.1953 100.827 42.0716 100.229 41.8242C99.6361 41.5703 99.125 41.2155 98.6953 40.7598C98.2721 40.304 97.9466 39.7637 97.7188 39.1387C97.4909 38.5137 97.377 37.8301 97.377 37.0879V36.6777C97.377 35.8184 97.5039 35.0534 97.7578 34.3828C98.0117 33.7057 98.3568 33.1328 98.793 32.6641C99.2292 32.1953 99.724 31.8405 100.277 31.5996C100.831 31.3587 101.404 31.2383 101.996 31.2383C102.751 31.2383 103.402 31.3685 103.949 31.6289C104.503 31.8893 104.955 32.2539 105.307 32.7227C105.658 33.1849 105.919 33.7318 106.088 34.3633C106.257 34.9883 106.342 35.6719 106.342 36.4141V37.2246H98.4512V35.75H104.535V35.6133C104.509 35.1445 104.411 34.6888 104.242 34.2461C104.079 33.8034 103.819 33.4388 103.461 33.1523C103.103 32.8659 102.615 32.7227 101.996 32.7227C101.586 32.7227 101.208 32.8105 100.863 32.9863C100.518 33.1556 100.222 33.4095 99.9746 33.748C99.7272 34.0866 99.5352 34.5 99.3984 34.9883C99.2617 35.4766 99.1934 36.0397 99.1934 36.6777V37.0879C99.1934 37.5892 99.2617 38.0612 99.3984 38.5039C99.5417 38.9401 99.7467 39.3242 100.014 39.6562C100.287 39.9883 100.616 40.2487 101 40.4375C101.391 40.6263 101.833 40.7207 102.328 40.7207C102.966 40.7207 103.507 40.5905 103.949 40.3301C104.392 40.0697 104.779 39.7214 105.111 39.2852L106.205 40.1543C105.977 40.4993 105.688 40.8281 105.336 41.1406C104.984 41.4531 104.551 41.707 104.037 41.9023C103.529 42.0977 102.927 42.1953 102.23 42.1953ZM119.707 27.7812V42H117.822V27.7812H119.707ZM126.668 33.6895V42H124.861V31.4336H126.57L126.668 33.6895ZM126.238 36.3164L125.486 36.2871C125.493 35.5645 125.6 34.8971 125.809 34.2852C126.017 33.6667 126.31 33.1296 126.688 32.6738C127.065 32.2181 127.514 31.8665 128.035 31.6191C128.562 31.3652 129.145 31.2383 129.783 31.2383C130.304 31.2383 130.773 31.3099 131.189 31.4531C131.606 31.5898 131.961 31.8112 132.254 32.1172C132.553 32.4232 132.781 32.8203 132.938 33.3086C133.094 33.7904 133.172 34.3796 133.172 35.0762V42H131.355V35.0566C131.355 34.5033 131.274 34.0605 131.111 33.7285C130.949 33.39 130.711 33.1458 130.398 32.9961C130.086 32.8398 129.702 32.7617 129.246 32.7617C128.797 32.7617 128.387 32.8561 128.016 33.0449C127.651 33.2337 127.335 33.4941 127.068 33.8262C126.808 34.1582 126.603 34.5391 126.453 34.9688C126.31 35.3919 126.238 35.8411 126.238 36.3164ZM142.34 31.4336V32.8203H136.627V31.4336H142.34ZM138.561 28.8652H140.367V39.3828C140.367 39.7409 140.423 40.0111 140.533 40.1934C140.644 40.3757 140.787 40.4961 140.963 40.5547C141.139 40.6133 141.327 40.6426 141.529 40.6426C141.679 40.6426 141.835 40.6296 141.998 40.6035C142.167 40.571 142.294 40.5449 142.379 40.5254L142.389 42C142.245 42.0456 142.057 42.0879 141.822 42.127C141.594 42.1725 141.318 42.1953 140.992 42.1953C140.549 42.1953 140.143 42.1074 139.771 41.9316C139.4 41.7559 139.104 41.4629 138.883 41.0527C138.668 40.6361 138.561 40.0762 138.561 39.373V28.8652ZM145.785 36.834V36.6094C145.785 35.8477 145.896 35.1413 146.117 34.4902C146.339 33.8327 146.658 33.263 147.074 32.7812C147.491 32.293 147.995 31.9154 148.588 31.6484C149.18 31.375 149.844 31.2383 150.58 31.2383C151.322 31.2383 151.99 31.375 152.582 31.6484C153.181 31.9154 153.689 32.293 154.105 32.7812C154.529 33.263 154.851 33.8327 155.072 34.4902C155.294 35.1413 155.404 35.8477 155.404 36.6094V36.834C155.404 37.5957 155.294 38.3021 155.072 38.9531C154.851 39.6042 154.529 40.1738 154.105 40.6621C153.689 41.1439 153.184 41.5215 152.592 41.7949C152.006 42.0618 151.342 42.1953 150.6 42.1953C149.857 42.1953 149.19 42.0618 148.598 41.7949C148.005 41.5215 147.497 41.1439 147.074 40.6621C146.658 40.1738 146.339 39.6042 146.117 38.9531C145.896 38.3021 145.785 37.5957 145.785 36.834ZM147.592 36.6094V36.834C147.592 37.3613 147.654 37.8594 147.777 38.3281C147.901 38.7904 148.087 39.2005 148.334 39.5586C148.588 39.9167 148.904 40.1999 149.281 40.4082C149.659 40.61 150.098 40.7109 150.6 40.7109C151.094 40.7109 151.527 40.61 151.898 40.4082C152.276 40.1999 152.589 39.9167 152.836 39.5586C153.083 39.2005 153.269 38.7904 153.393 38.3281C153.523 37.8594 153.588 37.3613 153.588 36.834V36.6094C153.588 36.0885 153.523 35.597 153.393 35.1348C153.269 34.666 153.08 34.2526 152.826 33.8945C152.579 33.5299 152.266 33.2435 151.889 33.0352C151.518 32.8268 151.081 32.7227 150.58 32.7227C150.085 32.7227 149.649 32.8268 149.271 33.0352C148.9 33.2435 148.588 33.5299 148.334 33.8945C148.087 34.2526 147.901 34.666 147.777 35.1348C147.654 35.597 147.592 36.0885 147.592 36.6094Z" fill="#828282"/>
<path d="M31.917 97.8164V99.3716C31.917 102.019 31.5501 104.396 30.8164 106.501C30.0986 108.607 29.0698 110.401 27.73 111.885C26.4061 113.368 24.827 114.509 22.9927 115.306C21.1743 116.088 19.1566 116.479 16.9395 116.479C14.7223 116.479 12.6966 116.088 10.8623 115.306C9.02799 114.509 7.43294 113.368 6.07715 111.885C4.7373 110.401 3.70052 108.607 2.9668 106.501C2.23307 104.396 1.86621 102.019 1.86621 99.3716V97.8164C1.86621 95.1686 2.23307 92.792 2.9668 90.6865C3.70052 88.5651 4.72933 86.7627 6.05322 85.2793C7.39307 83.7959 8.98014 82.6634 10.8145 81.8818C12.6488 81.0843 14.6745 80.6855 16.8916 80.6855C19.1087 80.6855 21.1344 81.0843 22.9688 81.8818C24.8031 82.6634 26.3822 83.7959 27.7061 85.2793C29.0459 86.7627 30.0827 88.5651 30.8164 90.6865C31.5501 92.792 31.917 95.1686 31.917 97.8164ZM24.0454 99.3716V97.7686C24.0454 95.998 23.8859 94.4349 23.5669 93.0791C23.2479 91.7074 22.7853 90.5589 22.1792 89.6338C21.5731 88.7087 20.8234 88.0148 19.9302 87.5522C19.0369 87.0737 18.0241 86.8345 16.8916 86.8345C15.7113 86.8345 14.6825 87.0737 13.8052 87.5522C12.9279 88.0148 12.1862 88.7087 11.5801 89.6338C10.9899 90.5589 10.5353 91.7074 10.2163 93.0791C9.91325 94.4349 9.76172 95.998 9.76172 97.7686V99.3716C9.76172 101.126 9.91325 102.689 10.2163 104.061C10.5353 105.417 10.9979 106.565 11.604 107.506C12.2101 108.447 12.9518 109.157 13.8291 109.636C14.7223 110.114 15.7591 110.354 16.9395 110.354C18.0719 110.354 19.0768 110.114 19.9541 109.636C20.8473 109.157 21.597 108.447 22.2031 107.506C22.8092 106.565 23.2638 105.417 23.5669 104.061C23.8859 102.689 24.0454 101.126 24.0454 99.3716ZM56.4122 109.755V90.1123H63.9249V116H56.8907L56.4122 109.755ZM57.2018 104.468L59.2594 104.42C59.2594 106.159 59.052 107.762 58.6373 109.229C58.2385 110.696 57.6324 111.972 56.8189 113.057C56.0214 114.142 55.0245 114.987 53.8282 115.593C52.6479 116.183 51.2682 116.479 49.6891 116.479C48.413 116.479 47.2407 116.303 46.172 115.952C45.1192 115.585 44.2101 115.019 43.4444 114.253C42.6788 113.472 42.0886 112.475 41.6739 111.263C41.2592 110.035 41.0519 108.567 41.0519 106.86V90.1123H48.5167V106.908C48.5167 107.578 48.5965 108.152 48.756 108.631C48.9314 109.093 49.1627 109.476 49.4498 109.779C49.7529 110.082 50.1197 110.306 50.5504 110.449C50.997 110.593 51.4835 110.665 52.0099 110.665C53.3338 110.665 54.3705 110.393 55.1202 109.851C55.8858 109.293 56.4202 108.551 56.7232 107.626C57.0423 106.685 57.2018 105.632 57.2018 104.468ZM81.1706 96.1416V116H73.7058V90.1123H80.716L81.1706 96.1416ZM88.8986 89.9209L88.779 96.8833C88.46 96.8354 88.0453 96.7956 87.5349 96.7637C87.0244 96.7158 86.5858 96.6919 86.2189 96.6919C85.2619 96.6919 84.4325 96.8115 83.7307 97.0508C83.0448 97.2741 82.4706 97.609 82.008 98.0557C81.5614 98.5023 81.2264 99.0605 81.0031 99.7305C80.7798 100.384 80.6682 101.142 80.6682 102.003L79.2565 101.31C79.2565 99.6029 79.424 98.0397 79.759 96.6201C80.0939 95.2005 80.5804 93.9723 81.2185 92.9355C81.8565 91.8828 82.6381 91.0693 83.5632 90.4951C84.4883 89.9209 85.5411 89.6338 86.7214 89.6338C87.1042 89.6338 87.495 89.6577 87.8938 89.7056C88.2925 89.7534 88.6275 89.8252 88.8986 89.9209ZM122.577 111.646L129.515 81.1641H133.511L135.09 84.9443L127.697 116H123.318L122.577 111.646ZM119.873 81.1641L125.687 111.789L124.682 116H119.705L112.145 81.1641H119.873ZM140.042 111.622L145.785 81.1641H153.489L145.928 116H140.999L140.042 111.622ZM136.119 81.1641L143.153 111.813L142.339 116H137.985L130.472 84.9204L132.123 81.1641H136.119ZM159.752 103.319V102.817C159.752 100.919 160.024 99.1722 160.566 97.5771C161.108 95.9661 161.906 94.5705 162.958 93.3901C164.011 92.2098 165.303 91.2926 166.834 90.6387C168.366 89.9688 170.12 89.6338 172.098 89.6338C174.108 89.6338 175.878 89.9688 177.41 90.6387C178.957 91.2926 180.257 92.2098 181.31 93.3901C182.362 94.5705 183.16 95.9661 183.702 97.5771C184.244 99.1722 184.516 100.919 184.516 102.817V103.319C184.516 105.201 184.244 106.948 183.702 108.559C183.16 110.154 182.362 111.55 181.31 112.746C180.257 113.926 178.965 114.844 177.434 115.498C175.902 116.152 174.14 116.479 172.146 116.479C170.168 116.479 168.406 116.152 166.858 115.498C165.311 114.844 164.011 113.926 162.958 112.746C161.906 111.55 161.108 110.154 160.566 108.559C160.024 106.948 159.752 105.201 159.752 103.319ZM167.241 102.817V103.319C167.241 104.34 167.321 105.297 167.48 106.19C167.656 107.084 167.935 107.865 168.318 108.535C168.701 109.205 169.203 109.731 169.825 110.114C170.463 110.481 171.237 110.665 172.146 110.665C173.055 110.665 173.821 110.481 174.443 110.114C175.065 109.731 175.567 109.205 175.95 108.535C176.333 107.865 176.604 107.084 176.764 106.19C176.939 105.297 177.027 104.34 177.027 103.319V102.817C177.027 101.812 176.939 100.871 176.764 99.9937C176.604 99.1004 176.333 98.3109 175.95 97.625C175.567 96.9391 175.057 96.4048 174.419 96.022C173.797 95.6392 173.023 95.4478 172.098 95.4478C171.205 95.4478 170.447 95.6392 169.825 96.022C169.203 96.4048 168.701 96.9391 168.318 97.625C167.935 98.3109 167.656 99.1004 167.48 99.9937C167.321 100.871 167.241 101.812 167.241 102.817ZM200.828 96.1416V116H193.363V90.1123H200.374L200.828 96.1416ZM208.556 89.9209L208.437 96.8833C208.118 96.8354 207.703 96.7956 207.192 96.7637C206.682 96.7158 206.243 96.6919 205.877 96.6919C204.92 96.6919 204.09 96.8115 203.388 97.0508C202.702 97.2741 202.128 97.609 201.666 98.0557C201.219 98.5023 200.884 99.0605 200.661 99.7305C200.437 100.384 200.326 101.142 200.326 102.003L198.914 101.31C198.914 99.6029 199.082 98.0397 199.417 96.6201C199.752 95.2005 200.238 93.9723 200.876 92.9355C201.514 91.8828 202.296 91.0693 203.221 90.4951C204.146 89.9209 205.199 89.6338 206.379 89.6338C206.762 89.6338 207.153 89.6577 207.551 89.7056C207.95 89.7534 208.285 89.8252 208.556 89.9209ZM224.031 79.2261V116H216.543V79.2261H224.031ZM240.468 90.1123L229.199 103.128L223.242 109.109L220.251 104.061L225.084 97.8164L231.472 90.1123H240.468ZM232.573 116L225.276 104.109L230.635 99.9219L241.138 116H232.573Z" fill="#828282"/>
</svg>
