<svg width="267" height="173" viewBox="0 0 267 173" fill="none" xmlns="http://www.w3.org/2000/svg">
<path d="M84.375 23.4688V28.1562C84.375 31.3789 86.4258 34.0156 89.3555 34.8945C112.207 41.3398 128.906 62.1406 128.906 86.75C128.906 116.633 104.59 140.656 75 140.656C45.1172 140.656 21.0938 116.633 21.0938 86.75C21.0938 62.1406 37.5 41.3398 60.3516 34.8945C63.2812 34.0156 65.625 31.3789 65.625 28.1562V23.4688C65.625 18.7812 61.2305 15.2656 56.543 16.4375C25.1953 24.6406 2.05078 53.3516 2.34375 87.3359C2.34375 127.473 34.8633 159.699 75 159.406C115.137 159.406 147.656 126.887 147.656 86.75C147.656 53.0586 124.219 24.6406 92.8711 16.4375C88.4766 15.2656 84.375 18.7812 84.375 23.4688Z" fill="#FAD62C" fill-opacity="0.3"/>
<path d="M10.2344 37.4785H12.1094C12.0117 38.377 11.7546 39.181 11.3379 39.8906C10.9212 40.6003 10.332 41.1634 9.57031 41.5801C8.80859 41.9902 7.85807 42.1953 6.71875 42.1953C5.88542 42.1953 5.12695 42.0391 4.44336 41.7266C3.76628 41.4141 3.18359 40.9714 2.69531 40.3984C2.20703 39.819 1.82943 39.1257 1.5625 38.3184C1.30208 37.5046 1.17188 36.5996 1.17188 35.6035V34.1875C1.17188 33.1914 1.30208 32.2897 1.5625 31.4824C1.82943 30.6686 2.21029 29.972 2.70508 29.3926C3.20638 28.8132 3.80859 28.3672 4.51172 28.0547C5.21484 27.7422 6.00586 27.5859 6.88477 27.5859C7.95898 27.5859 8.86719 27.7878 9.60938 28.1914C10.3516 28.5951 10.9277 29.1549 11.3379 29.8711C11.7546 30.5807 12.0117 31.4043 12.1094 32.3418H10.2344C10.1432 31.6777 9.97396 31.1081 9.72656 30.6328C9.47917 30.151 9.1276 29.7799 8.67188 29.5195C8.21615 29.2591 7.62044 29.1289 6.88477 29.1289C6.25326 29.1289 5.69661 29.2493 5.21484 29.4902C4.73958 29.7311 4.33919 30.0729 4.01367 30.5156C3.69466 30.9583 3.45378 31.4889 3.29102 32.1074C3.12826 32.7259 3.04688 33.4128 3.04688 34.168V35.6035C3.04688 36.3001 3.11849 36.9544 3.26172 37.5664C3.41146 38.1784 3.63607 38.7155 3.93555 39.1777C4.23503 39.64 4.61589 40.0046 5.07812 40.2715C5.54036 40.5319 6.08724 40.6621 6.71875 40.6621C7.51953 40.6621 8.15755 40.5352 8.63281 40.2812C9.10807 40.0273 9.46615 39.6628 9.70703 39.1875C9.95443 38.7122 10.1302 38.1426 10.2344 37.4785ZM22.6348 40.1934V34.7539C22.6348 34.3372 22.5501 33.9759 22.3809 33.6699C22.2181 33.3574 21.9707 33.1165 21.6387 32.9473C21.3066 32.778 20.8965 32.6934 20.4082 32.6934C19.9525 32.6934 19.5521 32.7715 19.207 32.9277C18.8685 33.084 18.6016 33.2891 18.4062 33.543C18.2174 33.7969 18.123 34.0703 18.123 34.3633H16.3164C16.3164 33.9857 16.4141 33.6113 16.6094 33.2402C16.8047 32.8691 17.0846 32.5339 17.4492 32.2344C17.8203 31.9284 18.263 31.6875 18.7773 31.5117C19.2982 31.3294 19.8776 31.2383 20.5156 31.2383C21.2839 31.2383 21.9609 31.3685 22.5469 31.6289C23.1393 31.8893 23.6016 32.2832 23.9336 32.8105C24.2721 33.3314 24.4414 33.9857 24.4414 34.7734V39.6953C24.4414 40.0469 24.4707 40.4212 24.5293 40.8184C24.5944 41.2155 24.6888 41.5573 24.8125 41.8438V42H22.9277C22.8366 41.7917 22.765 41.515 22.7129 41.1699C22.6608 40.8184 22.6348 40.4928 22.6348 40.1934ZM22.9473 35.5938L22.9668 36.8633H21.1406C20.6263 36.8633 20.1673 36.9056 19.7637 36.9902C19.36 37.0684 19.0215 37.1888 18.748 37.3516C18.4746 37.5143 18.2663 37.7194 18.123 37.9668C17.9798 38.2077 17.9082 38.4909 17.9082 38.8164C17.9082 39.1484 17.9831 39.4512 18.1328 39.7246C18.2826 39.998 18.5072 40.2161 18.8066 40.3789C19.1126 40.5352 19.487 40.6133 19.9297 40.6133C20.4831 40.6133 20.9714 40.4961 21.3945 40.2617C21.8177 40.0273 22.153 39.7409 22.4004 39.4023C22.6543 39.0638 22.791 38.735 22.8105 38.416L23.582 39.2852C23.5365 39.5586 23.4128 39.8613 23.2109 40.1934C23.0091 40.5254 22.7389 40.8444 22.4004 41.1504C22.0684 41.4499 21.6712 41.7005 21.209 41.9023C20.7533 42.0977 20.2389 42.1953 19.666 42.1953C18.9499 42.1953 18.3216 42.0553 17.7812 41.7754C17.2474 41.4954 16.8307 41.1211 16.5312 40.6523C16.2383 40.1771 16.0918 39.6465 16.0918 39.0605C16.0918 38.4941 16.2025 37.9961 16.4238 37.5664C16.6452 37.1302 16.9642 36.7689 17.3809 36.4824C17.7975 36.1895 18.2988 35.9681 18.8848 35.8184C19.4707 35.6686 20.125 35.5938 20.8477 35.5938H22.9473ZM31.0898 33.0938V42H29.2832V31.4336H31.041L31.0898 33.0938ZM34.3906 31.375L34.3809 33.0547C34.2311 33.0221 34.0879 33.0026 33.9512 32.9961C33.821 32.9831 33.6712 32.9766 33.502 32.9766C33.0853 32.9766 32.7174 33.0417 32.3984 33.1719C32.0794 33.3021 31.8092 33.4844 31.5879 33.7188C31.3665 33.9531 31.1908 34.2331 31.0605 34.5586C30.9368 34.8776 30.8555 35.2292 30.8164 35.6133L30.3086 35.9062C30.3086 35.2682 30.3704 34.6693 30.4941 34.1094C30.6243 33.5495 30.8229 33.0547 31.0898 32.625C31.3568 32.1888 31.6953 31.8503 32.1055 31.6094C32.5221 31.362 33.0169 31.2383 33.5898 31.2383C33.7201 31.2383 33.8698 31.2546 34.0391 31.2871C34.2083 31.3132 34.3255 31.3424 34.3906 31.375ZM42.25 42.1953C41.5143 42.1953 40.847 42.0716 40.248 41.8242C39.6556 41.5703 39.1445 41.2155 38.7148 40.7598C38.2917 40.304 37.9661 39.7637 37.7383 39.1387C37.5104 38.5137 37.3965 37.8301 37.3965 37.0879V36.6777C37.3965 35.8184 37.5234 35.0534 37.7773 34.3828C38.0312 33.7057 38.3763 33.1328 38.8125 32.6641C39.2487 32.1953 39.7435 31.8405 40.2969 31.5996C40.8503 31.3587 41.4232 31.2383 42.0156 31.2383C42.7708 31.2383 43.4219 31.3685 43.9688 31.6289C44.5221 31.8893 44.9746 32.2539 45.3262 32.7227C45.6777 33.1849 45.9382 33.7318 46.1074 34.3633C46.2767 34.9883 46.3613 35.6719 46.3613 36.4141V37.2246H38.4707V35.75H44.5547V35.6133C44.5286 35.1445 44.431 34.6888 44.2617 34.2461C44.099 33.8034 43.8385 33.4388 43.4805 33.1523C43.1224 32.8659 42.6341 32.7227 42.0156 32.7227C41.6055 32.7227 41.2279 32.8105 40.8828 32.9863C40.5378 33.1556 40.2415 33.4095 39.9941 33.748C39.7467 34.0866 39.5547 34.5 39.418 34.9883C39.2812 35.4766 39.2129 36.0397 39.2129 36.6777V37.0879C39.2129 37.5892 39.2812 38.0612 39.418 38.5039C39.5612 38.9401 39.7663 39.3242 40.0332 39.6562C40.3066 39.9883 40.6354 40.2487 41.0195 40.4375C41.4102 40.6263 41.8529 40.7207 42.3477 40.7207C42.9857 40.7207 43.526 40.5905 43.9688 40.3301C44.4115 40.0697 44.7988 39.7214 45.1309 39.2852L46.2246 40.1543C45.9967 40.4993 45.707 40.8281 45.3555 41.1406C45.0039 41.4531 44.571 41.707 44.0566 41.9023C43.5488 42.0977 42.9466 42.1953 42.25 42.1953ZM54.8555 42.1953C54.1198 42.1953 53.4525 42.0716 52.8535 41.8242C52.2611 41.5703 51.75 41.2155 51.3203 40.7598C50.8971 40.304 50.5716 39.7637 50.3438 39.1387C50.1159 38.5137 50.002 37.8301 50.002 37.0879V36.6777C50.002 35.8184 50.1289 35.0534 50.3828 34.3828C50.6367 33.7057 50.9818 33.1328 51.418 32.6641C51.8542 32.1953 52.349 31.8405 52.9023 31.5996C53.4557 31.3587 54.0286 31.2383 54.6211 31.2383C55.3763 31.2383 56.0273 31.3685 56.5742 31.6289C57.1276 31.8893 57.5801 32.2539 57.9316 32.7227C58.2832 33.1849 58.5436 33.7318 58.7129 34.3633C58.8822 34.9883 58.9668 35.6719 58.9668 36.4141V37.2246H51.0762V35.75H57.1602V35.6133C57.1341 35.1445 57.0365 34.6888 56.8672 34.2461C56.7044 33.8034 56.444 33.4388 56.0859 33.1523C55.7279 32.8659 55.2396 32.7227 54.6211 32.7227C54.2109 32.7227 53.8333 32.8105 53.4883 32.9863C53.1432 33.1556 52.847 33.4095 52.5996 33.748C52.3522 34.0866 52.1602 34.5 52.0234 34.9883C51.8867 35.4766 51.8184 36.0397 51.8184 36.6777V37.0879C51.8184 37.5892 51.8867 38.0612 52.0234 38.5039C52.1667 38.9401 52.3717 39.3242 52.6387 39.6562C52.9121 39.9883 53.2409 40.2487 53.625 40.4375C54.0156 40.6263 54.4583 40.7207 54.9531 40.7207C55.5911 40.7207 56.1315 40.5905 56.5742 40.3301C57.0169 40.0697 57.4043 39.7214 57.7363 39.2852L58.8301 40.1543C58.6022 40.4993 58.3125 40.8281 57.9609 41.1406C57.6094 41.4531 57.1764 41.707 56.6621 41.9023C56.1543 42.0977 55.5521 42.1953 54.8555 42.1953ZM64.8828 33.0938V42H63.0762V31.4336H64.834L64.8828 33.0938ZM68.1836 31.375L68.1738 33.0547C68.0241 33.0221 67.8809 33.0026 67.7441 32.9961C67.6139 32.9831 67.4642 32.9766 67.2949 32.9766C66.8783 32.9766 66.5104 33.0417 66.1914 33.1719C65.8724 33.3021 65.6022 33.4844 65.3809 33.7188C65.1595 33.9531 64.9837 34.2331 64.8535 34.5586C64.7298 34.8776 64.6484 35.2292 64.6094 35.6133L64.1016 35.9062C64.1016 35.2682 64.1634 34.6693 64.2871 34.1094C64.4173 33.5495 64.6159 33.0547 64.8828 32.625C65.1497 32.1888 65.4883 31.8503 65.8984 31.6094C66.3151 31.362 66.8099 31.2383 67.3828 31.2383C67.513 31.2383 67.6628 31.2546 67.832 31.2871C68.0013 31.3132 68.1185 31.3424 68.1836 31.375ZM78.0059 39.1973C78.0059 38.9368 77.9473 38.696 77.8301 38.4746C77.7194 38.2467 77.4883 38.0417 77.1367 37.8594C76.7917 37.6706 76.2708 37.5078 75.5742 37.3711C74.9883 37.2474 74.4577 37.1009 73.9824 36.9316C73.5137 36.7624 73.1133 36.5573 72.7812 36.3164C72.4557 36.0755 72.2051 35.7923 72.0293 35.4668C71.8535 35.1413 71.7656 34.7604 71.7656 34.3242C71.7656 33.9076 71.8568 33.5137 72.0391 33.1426C72.2279 32.7715 72.4915 32.4427 72.8301 32.1562C73.1751 31.8698 73.5885 31.6452 74.0703 31.4824C74.5521 31.3197 75.0892 31.2383 75.6816 31.2383C76.528 31.2383 77.2507 31.388 77.8496 31.6875C78.4486 31.987 78.9076 32.3874 79.2266 32.8887C79.5456 33.3835 79.7051 33.9336 79.7051 34.5391H77.8984C77.8984 34.2461 77.8105 33.9629 77.6348 33.6895C77.4655 33.4095 77.2148 33.1784 76.8828 32.9961C76.5573 32.8138 76.1569 32.7227 75.6816 32.7227C75.1803 32.7227 74.7734 32.8008 74.4609 32.957C74.1549 33.1068 73.9303 33.2988 73.7871 33.5332C73.6504 33.7676 73.582 34.015 73.582 34.2754C73.582 34.4707 73.6146 34.6465 73.6797 34.8027C73.7513 34.9525 73.875 35.0924 74.0508 35.2227C74.2266 35.3464 74.474 35.4635 74.793 35.5742C75.112 35.6849 75.5189 35.7956 76.0137 35.9062C76.8796 36.1016 77.5924 36.3359 78.1523 36.6094C78.7122 36.8828 79.1289 37.2181 79.4023 37.6152C79.6758 38.0124 79.8125 38.4941 79.8125 39.0605C79.8125 39.5228 79.7148 39.946 79.5195 40.3301C79.3307 40.7142 79.054 41.0462 78.6895 41.3262C78.3314 41.5996 77.9017 41.8145 77.4004 41.9707C76.9056 42.1204 76.349 42.1953 75.7305 42.1953C74.7995 42.1953 74.0117 42.0293 73.3672 41.6973C72.7227 41.3652 72.2344 40.9355 71.9023 40.4082C71.5703 39.8809 71.4043 39.3242 71.4043 38.7383H73.2207C73.2467 39.2331 73.39 39.627 73.6504 39.9199C73.9108 40.2064 74.2298 40.4115 74.6074 40.5352C74.985 40.6523 75.3594 40.7109 75.7305 40.7109C76.2253 40.7109 76.6387 40.6458 76.9707 40.5156C77.3092 40.3854 77.5664 40.2064 77.7422 39.9785C77.918 39.7507 78.0059 39.4902 78.0059 39.1973Z" fill="#828282"/>
<path d="M15.7432 108.272L23.4951 81.1641H32.1802L20.2412 116H14.5708L15.7432 108.272ZM8.68506 81.1641L16.4131 108.272L17.6333 116H11.8911L0.0239258 81.1641H8.68506ZM52.2013 109.827V98.7256C52.2013 97.944 52.0816 97.2741 51.8424 96.7158C51.6031 96.1576 51.2283 95.7189 50.7179 95.3999C50.2075 95.0809 49.5455 94.9214 48.732 94.9214C48.0462 94.9214 47.448 95.041 46.9376 95.2803C46.4431 95.5195 46.0603 95.8625 45.7892 96.3091C45.534 96.7557 45.4063 97.306 45.4063 97.96H37.9415C37.9415 96.7956 38.2047 95.7109 38.7311 94.7061C39.2574 93.7012 40.0071 92.8159 40.9801 92.0503C41.969 91.2847 43.1494 90.6945 44.5211 90.2798C45.8928 89.8491 47.4321 89.6338 49.1388 89.6338C51.1645 89.6338 52.9669 89.9767 54.546 90.6626C56.141 91.3325 57.4011 92.3454 58.3263 93.7012C59.2514 95.041 59.714 96.7318 59.714 98.7734V109.612C59.714 111.175 59.8017 112.403 59.9771 113.296C60.1686 114.174 60.4397 114.939 60.7906 115.593V116H53.254C52.9031 115.25 52.6399 114.325 52.4645 113.225C52.289 112.108 52.2013 110.976 52.2013 109.827ZM53.1344 100.209L53.1822 104.324H49.4737C48.6443 104.324 47.9265 104.428 47.3204 104.635C46.7302 104.843 46.2517 105.13 45.8849 105.497C45.518 105.847 45.2468 106.262 45.0714 106.741C44.9119 107.203 44.8321 107.714 44.8321 108.272C44.8321 108.798 44.9597 109.277 45.2149 109.708C45.4702 110.122 45.8211 110.449 46.2677 110.688C46.7143 110.928 47.2327 111.047 47.8229 111.047C48.7958 111.047 49.6253 110.856 50.3111 110.473C51.013 110.09 51.5553 109.628 51.9381 109.085C52.3209 108.527 52.5123 108.009 52.5123 107.53L54.3067 110.641C54.0196 111.279 53.6687 111.941 53.254 112.626C52.8393 113.296 52.3129 113.926 51.6749 114.517C51.0369 115.091 50.2633 115.561 49.3541 115.928C48.4609 116.295 47.3842 116.479 46.1241 116.479C44.4972 116.479 43.0217 116.152 41.6979 115.498C40.374 114.828 39.3133 113.91 38.5157 112.746C37.7341 111.582 37.3434 110.242 37.3434 108.727C37.3434 107.371 37.5906 106.167 38.0851 105.114C38.5795 104.061 39.3212 103.168 40.3102 102.434C41.315 101.7 42.5751 101.15 44.0904 100.783C45.6057 100.4 47.3762 100.209 49.402 100.209H53.1344ZM80.3332 110.665C81.1307 110.665 81.8246 110.513 82.4147 110.21C83.0049 109.907 83.4595 109.484 83.7785 108.942C84.1135 108.384 84.281 107.714 84.281 106.932H91.3151C91.3151 108.814 90.8286 110.473 89.8557 111.909C88.8986 113.344 87.6066 114.469 85.9797 115.282C84.3527 116.08 82.5184 116.479 80.4768 116.479C78.467 116.479 76.7124 116.152 75.2131 115.498C73.7137 114.828 72.4616 113.895 71.4567 112.698C70.4519 111.502 69.6942 110.114 69.1838 108.535C68.6893 106.94 68.4421 105.217 68.4421 103.367V102.745C68.4421 100.911 68.6893 99.1961 69.1838 97.6011C69.6942 96.006 70.4519 94.6104 71.4567 93.4141C72.4616 92.2178 73.7058 91.2926 75.1892 90.6387C76.6885 89.9688 78.4431 89.6338 80.4528 89.6338C82.5743 89.6338 84.4484 90.0405 86.0754 90.854C87.7183 91.6675 89.0023 92.8398 89.9274 94.3711C90.8526 95.8864 91.3151 97.7127 91.3151 99.8501H84.281C84.281 99.0207 84.1294 98.279 83.8264 97.625C83.5393 96.9551 83.0926 96.4287 82.4865 96.0459C81.8964 95.6471 81.1626 95.4478 80.2854 95.4478C79.3762 95.4478 78.6265 95.6471 78.0363 96.0459C77.4621 96.4287 77.0235 96.9631 76.7204 97.6489C76.4174 98.3348 76.21 99.1164 76.0983 99.9937C75.9867 100.855 75.9309 101.772 75.9309 102.745V103.367C75.9309 104.356 75.9867 105.297 76.0983 106.19C76.21 107.068 76.4174 107.841 76.7204 108.511C77.0394 109.181 77.486 109.708 78.0603 110.09C78.6345 110.473 79.3921 110.665 80.3332 110.665ZM113.633 109.827V98.7256C113.633 97.944 113.513 97.2741 113.274 96.7158C113.035 96.1576 112.66 95.7189 112.15 95.3999C111.639 95.0809 110.977 94.9214 110.164 94.9214C109.478 94.9214 108.88 95.041 108.369 95.2803C107.875 95.5195 107.492 95.8625 107.221 96.3091C106.966 96.7557 106.838 97.306 106.838 97.96H99.3733C99.3733 96.7956 99.6365 95.7109 100.163 94.7061C100.689 93.7012 101.439 92.8159 102.412 92.0503C103.401 91.2847 104.581 90.6945 105.953 90.2798C107.325 89.8491 108.864 89.6338 110.571 89.6338C112.596 89.6338 114.399 89.9767 115.978 90.6626C117.573 91.3325 118.833 92.3454 119.758 93.7012C120.683 95.041 121.146 96.7318 121.146 98.7734V109.612C121.146 111.175 121.234 112.403 121.409 113.296C121.6 114.174 121.872 114.939 122.222 115.593V116H114.686C114.335 115.25 114.072 114.325 113.896 113.225C113.721 112.108 113.633 110.976 113.633 109.827ZM114.566 100.209L114.614 104.324H110.906C110.076 104.324 109.358 104.428 108.752 104.635C108.162 104.843 107.684 105.13 107.317 105.497C106.95 105.847 106.679 106.262 106.503 106.741C106.344 107.203 106.264 107.714 106.264 108.272C106.264 108.798 106.392 109.277 106.647 109.708C106.902 110.122 107.253 110.449 107.7 110.688C108.146 110.928 108.665 111.047 109.255 111.047C110.228 111.047 111.057 110.856 111.743 110.473C112.445 110.09 112.987 109.628 113.37 109.085C113.753 108.527 113.944 108.009 113.944 107.53L115.739 110.641C115.451 111.279 115.101 111.941 114.686 112.626C114.271 113.296 113.745 113.926 113.107 114.517C112.469 115.091 111.695 115.561 110.786 115.928C109.893 116.295 108.816 116.479 107.556 116.479C105.929 116.479 104.454 116.152 103.13 115.498C101.806 114.828 100.745 113.91 99.9476 112.746C99.166 111.582 98.7752 110.242 98.7752 108.727C98.7752 107.371 99.0224 106.167 99.5169 105.114C100.011 104.061 100.753 103.168 101.742 102.434C102.747 101.7 104.007 101.15 105.522 100.783C107.038 100.4 108.808 100.209 110.834 100.209H114.566ZM138.272 95.6392V116H130.783V90.1123H137.817L138.272 95.6392ZM137.291 102.147L135.425 102.195C135.425 100.249 135.664 98.5023 136.142 96.9551C136.621 95.4079 137.299 94.092 138.176 93.0073C139.069 91.9067 140.13 91.0693 141.358 90.4951C142.602 89.9209 143.974 89.6338 145.474 89.6338C146.686 89.6338 147.794 89.8092 148.799 90.1602C149.804 90.5111 150.665 91.0773 151.383 91.8589C152.117 92.6245 152.675 93.6453 153.058 94.9214C153.441 96.1815 153.632 97.7367 153.632 99.5869V116H146.12V99.563C146.12 98.4784 145.968 97.641 145.665 97.0508C145.362 96.4606 144.915 96.0459 144.325 95.8066C143.751 95.5674 143.049 95.4478 142.22 95.4478C141.342 95.4478 140.593 95.6232 139.971 95.9741C139.349 96.3091 138.838 96.7796 138.439 97.3857C138.041 97.9919 137.746 98.7017 137.554 99.5151C137.379 100.329 137.291 101.206 137.291 102.147ZM174.228 110.665C175.025 110.665 175.719 110.513 176.309 110.21C176.899 109.907 177.354 109.484 177.673 108.942C178.008 108.384 178.175 107.714 178.175 106.932H185.209C185.209 108.814 184.723 110.473 183.75 111.909C182.793 113.344 181.501 114.469 179.874 115.282C178.247 116.08 176.413 116.479 174.371 116.479C172.361 116.479 170.607 116.152 169.107 115.498C167.608 114.828 166.356 113.895 165.351 112.698C164.346 111.502 163.589 110.114 163.078 108.535C162.584 106.94 162.336 105.217 162.336 103.367V102.745C162.336 100.911 162.584 99.1961 163.078 97.6011C163.589 96.006 164.346 94.6104 165.351 93.4141C166.356 92.2178 167.6 91.2926 169.083 90.6387C170.583 89.9688 172.337 89.6338 174.347 89.6338C176.469 89.6338 178.343 90.0405 179.97 90.854C181.613 91.6675 182.897 92.8398 183.822 94.3711C184.747 95.8864 185.209 97.7127 185.209 99.8501H178.175C178.175 99.0207 178.024 98.279 177.721 97.625C177.434 96.9551 176.987 96.4287 176.381 96.0459C175.791 95.6471 175.057 95.4478 174.18 95.4478C173.271 95.4478 172.521 95.6471 171.931 96.0459C171.356 96.4287 170.918 96.9631 170.615 97.6489C170.312 98.3348 170.104 99.1164 169.993 99.9937C169.881 100.855 169.825 101.772 169.825 102.745V103.367C169.825 104.356 169.881 105.297 169.993 106.19C170.104 107.068 170.312 107.841 170.615 108.511C170.934 109.181 171.38 109.708 171.955 110.09C172.529 110.473 173.286 110.665 174.228 110.665ZM201.69 90.1123V116H194.201V90.1123H201.69ZM193.746 83.4131C193.746 82.3285 194.129 81.4432 194.895 80.7573C195.66 80.0555 196.665 79.7046 197.909 79.7046C199.153 79.7046 200.158 80.0555 200.924 80.7573C201.705 81.4432 202.096 82.3285 202.096 83.4131C202.096 84.4818 201.705 85.367 200.924 86.0688C200.158 86.7547 199.153 87.0977 197.909 87.0977C196.665 87.0977 195.66 86.7547 194.895 86.0688C194.129 85.367 193.746 84.4818 193.746 83.4131ZM224.175 116.479C222.117 116.479 220.275 116.152 218.648 115.498C217.021 114.844 215.641 113.942 214.509 112.794C213.392 111.63 212.539 110.29 211.949 108.774C211.359 107.259 211.064 105.64 211.064 103.917V103.008C211.064 101.078 211.335 99.2998 211.877 97.6729C212.419 96.0459 213.209 94.6343 214.246 93.438C215.299 92.2257 216.591 91.2926 218.122 90.6387C219.653 89.9688 221.4 89.6338 223.362 89.6338C225.196 89.6338 226.831 89.9368 228.266 90.543C229.702 91.1331 230.914 91.9865 231.903 93.103C232.892 94.2036 233.642 95.5355 234.152 97.0986C234.678 98.6458 234.942 100.384 234.942 102.314V105.377H214.078V100.568H227.62V99.9937C227.62 99.0845 227.453 98.2869 227.118 97.6011C226.799 96.9152 226.32 96.3888 225.682 96.022C225.06 95.6392 224.271 95.4478 223.314 95.4478C222.404 95.4478 221.647 95.6392 221.041 96.022C220.435 96.4048 219.948 96.9471 219.581 97.6489C219.23 98.3348 218.975 99.1403 218.816 100.065C218.656 100.975 218.576 101.956 218.576 103.008V103.917C218.576 104.922 218.712 105.84 218.983 106.669C219.254 107.498 219.653 108.208 220.179 108.798C220.706 109.389 221.344 109.851 222.093 110.186C222.843 110.521 223.696 110.688 224.654 110.688C225.834 110.688 226.958 110.465 228.027 110.019C229.096 109.556 230.021 108.838 230.802 107.865L234.296 111.861C233.769 112.626 233.028 113.368 232.071 114.086C231.129 114.788 229.997 115.362 228.673 115.809C227.349 116.255 225.85 116.479 224.175 116.479ZM257.26 108.798C257.26 108.32 257.108 107.897 256.805 107.53C256.518 107.163 255.992 106.828 255.226 106.525C254.476 106.222 253.415 105.919 252.044 105.616C250.752 105.345 249.547 104.994 248.431 104.563C247.314 104.117 246.341 103.583 245.512 102.96C244.683 102.322 244.037 101.573 243.574 100.711C243.111 99.8341 242.88 98.8372 242.88 97.7207C242.88 96.6361 243.111 95.6073 243.574 94.6343C244.053 93.6613 244.738 92.8 245.632 92.0503C246.541 91.3006 247.641 90.7104 248.933 90.2798C250.241 89.8491 251.725 89.6338 253.384 89.6338C255.665 89.6338 257.634 89.9927 259.293 90.7104C260.952 91.4123 262.228 92.4012 263.121 93.6772C264.015 94.9373 264.461 96.3809 264.461 98.0078H256.996C256.996 97.3379 256.869 96.7557 256.614 96.2612C256.358 95.7668 255.968 95.384 255.441 95.1128C254.915 94.8257 254.221 94.6821 253.36 94.6821C252.69 94.6821 252.1 94.8018 251.589 95.041C251.095 95.2643 250.704 95.5754 250.417 95.9741C250.146 96.3729 250.01 96.8354 250.01 97.3618C250.01 97.7287 250.09 98.0636 250.249 98.3667C250.425 98.6538 250.688 98.925 251.039 99.1802C251.406 99.4194 251.876 99.6348 252.45 99.8262C253.041 100.018 253.758 100.201 254.604 100.376C256.406 100.711 258.049 101.182 259.533 101.788C261.032 102.394 262.228 103.232 263.121 104.3C264.031 105.369 264.485 106.781 264.485 108.535C264.485 109.684 264.222 110.736 263.696 111.693C263.185 112.65 262.443 113.488 261.471 114.206C260.498 114.923 259.333 115.482 257.977 115.88C256.622 116.279 255.09 116.479 253.384 116.479C250.943 116.479 248.878 116.04 247.187 115.163C245.496 114.285 244.22 113.185 243.359 111.861C242.513 110.521 242.091 109.149 242.091 107.746H249.101C249.133 108.607 249.348 109.309 249.747 109.851C250.162 110.393 250.696 110.792 251.35 111.047C252.004 111.287 252.738 111.406 253.551 111.406C254.365 111.406 255.042 111.295 255.585 111.071C256.127 110.848 256.542 110.545 256.829 110.162C257.116 109.763 257.26 109.309 257.26 108.798Z" fill="#828282"/>
</svg>
