<svg width="261" height="173" viewBox="0 0 261 173" fill="none" xmlns="http://www.w3.org/2000/svg">
<path d="M84.375 23.4688V28.1562C84.375 31.3789 86.4258 34.0156 89.3555 34.8945C112.207 41.3398 128.906 62.1406 128.906 86.75C128.906 116.633 104.59 140.656 75 140.656C45.1172 140.656 21.0938 116.633 21.0938 86.75C21.0938 62.1406 37.5 41.3398 60.3516 34.8945C63.2812 34.0156 65.625 31.3789 65.625 28.1562V23.4688C65.625 18.7812 61.2305 15.2656 56.543 16.4375C25.1953 24.6406 2.05078 53.3516 2.34375 87.3359C2.34375 127.473 34.8633 159.699 75 159.406C115.137 159.406 147.656 126.887 147.656 86.75C147.656 53.0586 124.219 24.6406 92.8711 16.4375C88.4766 15.2656 84.375 18.7812 84.375 23.4688Z" fill="#FAD62C" fill-opacity="0.3"/>
<path d="M4.36 44.02L6.38 44L9.74 32.78L12.98 44H15.02L19.06 30.06H17.1L14.04 41.84L10.84 30.06H8.8L5.44 41.88L2.4 30.06H0.46L4.36 44.02ZM21.0517 44H22.8717V37.94C22.8717 35.58 24.1517 34.42 26.0117 34.42C27.8517 34.42 29.0717 35.56 29.0717 37.8V44H30.8717V37.54C30.8717 34.4 28.9317 32.84 26.4917 32.84C24.9517 32.84 23.5917 33.46 22.8717 34.62V29.2H21.0517V44ZM44.2447 38.5C44.2447 35.04 41.8247 32.86 38.7047 32.86C35.6047 32.86 33.1647 35.04 33.1647 38.5C33.1647 41.98 35.5247 44.18 38.6247 44.18C41.7447 44.18 44.2447 41.98 44.2447 38.5ZM35.0247 38.5C35.0247 35.74 36.7647 34.44 38.6847 34.44C40.5647 34.44 42.3847 35.74 42.3847 38.5C42.3847 41.28 40.5247 42.58 38.6247 42.58C36.7247 42.58 35.0247 41.28 35.0247 38.5ZM54.7897 44.02L56.8097 44L60.1697 32.78L63.4097 44H65.4497L69.4897 30.06H67.5297L64.4697 41.84L61.2697 30.06H59.2297L55.8697 41.88L52.8297 30.06H50.8897L54.7897 44.02ZM76.1414 34.4C78.0214 34.4 79.6214 35.58 79.6014 37.72H72.6814C72.8814 35.58 74.3614 34.4 76.1414 34.4ZM81.2614 40.62H79.3014C78.9014 41.8 77.8614 42.64 76.2214 42.64C74.3614 42.64 72.8014 41.42 72.6614 39.2H81.4214C81.4614 38.82 81.4814 38.5 81.4814 38.1C81.4814 35.1 79.4014 32.86 76.2214 32.86C73.0214 32.86 70.8014 35.04 70.8014 38.5C70.8014 41.98 73.1014 44.18 76.2214 44.18C78.9414 44.18 80.7014 42.62 81.2614 40.62ZM98.5758 44H100.496L95.4758 30.14H93.3758L88.3358 44H90.2558L91.3758 40.9H97.4558L98.5758 44ZM96.9358 39.42H91.8958L94.4158 32.38L96.9358 39.42ZM104.512 38.04C104.512 35.5 105.832 34.72 107.572 34.72H108.052V32.84C106.312 32.84 105.132 33.6 104.512 34.82V33.04H102.692V44H104.512V38.04ZM114.813 34.4C116.693 34.4 118.293 35.58 118.273 37.72H111.353C111.553 35.58 113.033 34.4 114.813 34.4ZM119.933 40.62H117.973C117.573 41.8 116.533 42.64 114.893 42.64C113.033 42.64 111.473 41.42 111.333 39.2H120.093C120.133 38.82 120.153 38.5 120.153 38.1C120.153 35.1 118.073 32.86 114.893 32.86C111.693 32.86 109.473 35.04 109.473 38.5C109.473 41.98 111.773 44.18 114.893 44.18C117.613 44.18 119.373 42.62 119.933 40.62Z" fill="#828282"/>
<path d="M24.451 107.924H11.613L9.555 114H0.784L13.23 79.602H22.932L35.378 114H26.509L24.451 107.924ZM22.295 101.456L18.032 88.863L13.818 101.456H22.295ZM52.4449 90.529C53.2289 89.255 54.3559 88.226 55.8259 87.442C57.2959 86.658 58.9783 86.266 60.8729 86.266C63.1269 86.266 65.1686 86.8377 66.9979 87.981C68.8273 89.1243 70.2646 90.7577 71.3099 92.881C72.3879 95.0043 72.9269 97.4707 72.9269 100.28C72.9269 103.089 72.3879 105.572 71.3099 107.728C70.2646 109.851 68.8273 111.501 66.9979 112.677C65.1686 113.82 63.1269 114.392 60.8729 114.392C58.9456 114.392 57.2633 114.016 55.8259 113.265C54.3886 112.481 53.2616 111.452 52.4449 110.178V114H44.0659V77.74H52.4449V90.529ZM64.4009 100.28C64.4009 98.1893 63.8129 96.556 62.6369 95.38C61.4936 94.1713 60.0726 93.567 58.3739 93.567C56.7079 93.567 55.2869 94.1713 54.1109 95.38C52.9676 96.5887 52.3959 98.2383 52.3959 100.329C52.3959 102.42 52.9676 104.069 54.1109 105.278C55.2869 106.487 56.7079 107.091 58.3739 107.091C60.0399 107.091 61.4609 106.487 62.6369 105.278C63.8129 104.037 64.4009 102.371 64.4009 100.28ZM94.6688 114.392C91.9901 114.392 89.5728 113.82 87.4168 112.677C85.2934 111.534 83.6111 109.9 82.3698 107.777C81.1611 105.654 80.5568 103.171 80.5568 100.329C80.5568 97.5197 81.1774 95.0533 82.4188 92.93C83.6601 90.774 85.3588 89.1243 87.5148 87.981C89.6708 86.8377 92.0881 86.266 94.7668 86.266C97.4454 86.266 99.8628 86.8377 102.019 87.981C104.175 89.1243 105.873 90.774 107.115 92.93C108.356 95.0533 108.977 97.5197 108.977 100.329C108.977 103.138 108.34 105.621 107.066 107.777C105.824 109.9 104.109 111.534 101.921 112.677C99.7648 113.82 97.3474 114.392 94.6688 114.392ZM94.6688 107.14C96.2694 107.14 97.6251 106.552 98.7358 105.376C99.8791 104.2 100.451 102.518 100.451 100.329C100.451 98.1403 99.8954 96.458 98.7848 95.282C97.7068 94.106 96.3674 93.518 94.7668 93.518C93.1334 93.518 91.7778 94.106 90.6998 95.282C89.6218 96.4253 89.0828 98.1077 89.0828 100.329C89.0828 102.518 89.6054 104.2 90.6508 105.376C91.7288 106.552 93.0681 107.14 94.6688 107.14ZM145.321 86.658V114H136.942V110.276C136.093 111.485 134.933 112.465 133.463 113.216C132.026 113.935 130.425 114.294 128.661 114.294C126.57 114.294 124.725 113.837 123.124 112.922C121.523 111.975 120.282 110.619 119.4 108.855C118.518 107.091 118.077 105.017 118.077 102.632V86.658H126.407V101.505C126.407 103.334 126.881 104.755 127.828 105.768C128.775 106.781 130.049 107.287 131.65 107.287C133.283 107.287 134.574 106.781 135.521 105.768C136.468 104.755 136.942 103.334 136.942 101.505V86.658H145.321ZM171.479 106.895V114H167.216C164.178 114 161.809 113.265 160.111 111.795C158.412 110.292 157.563 107.859 157.563 104.494V93.616H154.231V86.658H157.563V79.994H165.942V86.658H171.43V93.616H165.942V104.592C165.942 105.409 166.138 105.997 166.53 106.356C166.922 106.715 167.575 106.895 168.49 106.895H171.479ZM204.562 79.602V100.182C204.562 102.24 205.068 103.824 206.081 104.935C207.093 106.046 208.58 106.601 210.54 106.601C212.5 106.601 214.002 106.046 215.048 104.935C216.093 103.824 216.616 102.24 216.616 100.182V79.602H224.995V100.133C224.995 103.204 224.341 105.801 223.035 107.924C221.728 110.047 219.964 111.648 217.743 112.726C215.554 113.804 213.104 114.343 210.393 114.343C207.681 114.343 205.248 113.82 203.092 112.775C200.968 111.697 199.286 110.096 198.045 107.973C196.803 105.817 196.183 103.204 196.183 100.133V79.602H204.562ZM246.901 114.392C244.517 114.392 242.393 113.984 240.531 113.167C238.669 112.35 237.199 111.24 236.121 109.835C235.043 108.398 234.439 106.797 234.308 105.033H242.589C242.687 105.98 243.128 106.748 243.912 107.336C244.696 107.924 245.66 108.218 246.803 108.218C247.849 108.218 248.649 108.022 249.204 107.63C249.792 107.205 250.086 106.666 250.086 106.013C250.086 105.229 249.678 104.657 248.861 104.298C248.045 103.906 246.722 103.481 244.892 103.024C242.932 102.567 241.299 102.093 239.992 101.603C238.686 101.08 237.559 100.28 236.611 99.202C235.664 98.0913 235.19 96.605 235.19 94.743C235.19 93.175 235.615 91.754 236.464 90.48C237.346 89.1733 238.62 88.1443 240.286 87.393C241.985 86.6417 243.994 86.266 246.313 86.266C249.743 86.266 252.438 87.1153 254.398 88.814C256.391 90.5127 257.534 92.7667 257.828 95.576H250.086C249.956 94.6287 249.531 93.8773 248.812 93.322C248.126 92.7667 247.212 92.489 246.068 92.489C245.088 92.489 244.337 92.685 243.814 93.077C243.292 93.4363 243.03 93.9427 243.03 94.596C243.03 95.38 243.439 95.968 244.255 96.36C245.105 96.752 246.411 97.144 248.175 97.536C250.201 98.0587 251.85 98.5813 253.124 99.104C254.398 99.594 255.509 100.411 256.456 101.554C257.436 102.665 257.943 104.167 257.975 106.062C257.975 107.663 257.518 109.1 256.603 110.374C255.721 111.615 254.431 112.595 252.732 113.314C251.066 114.033 249.123 114.392 246.901 114.392Z" fill="#828282"/>
</svg>
