<svg width="286" height="173" viewBox="0 0 286 173" fill="none" xmlns="http://www.w3.org/2000/svg">
<path d="M10.2344 37.4785H12.1094C12.0117 38.377 11.7546 39.181 11.3379 39.8906C10.9212 40.6003 10.332 41.1634 9.57031 41.5801C8.80859 41.9902 7.85807 42.1953 6.71875 42.1953C5.88542 42.1953 5.12695 42.0391 4.44336 41.7266C3.76628 41.4141 3.18359 40.9714 2.69531 40.3984C2.20703 39.819 1.82943 39.1257 1.5625 38.3184C1.30208 37.5046 1.17188 36.5996 1.17188 35.6035V34.1875C1.17188 33.1914 1.30208 32.2897 1.5625 31.4824C1.82943 30.6686 2.21029 29.972 2.70508 29.3926C3.20638 28.8132 3.80859 28.3672 4.51172 28.0547C5.21484 27.7422 6.00586 27.5859 6.88477 27.5859C7.95898 27.5859 8.86719 27.7878 9.60938 28.1914C10.3516 28.5951 10.9277 29.1549 11.3379 29.8711C11.7546 30.5807 12.0117 31.4043 12.1094 32.3418H10.2344C10.1432 31.6777 9.97396 31.1081 9.72656 30.6328C9.47917 30.151 9.1276 29.7799 8.67188 29.5195C8.21615 29.2591 7.62044 29.1289 6.88477 29.1289C6.25326 29.1289 5.69661 29.2493 5.21484 29.4902C4.73958 29.7311 4.33919 30.0729 4.01367 30.5156C3.69466 30.9583 3.45378 31.4889 3.29102 32.1074C3.12826 32.7259 3.04688 33.4128 3.04688 34.168V35.6035C3.04688 36.3001 3.11849 36.9544 3.26172 37.5664C3.41146 38.1784 3.63607 38.7155 3.93555 39.1777C4.23503 39.64 4.61589 40.0046 5.07812 40.2715C5.54036 40.5319 6.08724 40.6621 6.71875 40.6621C7.51953 40.6621 8.15755 40.5352 8.63281 40.2812C9.10807 40.0273 9.46615 39.6628 9.70703 39.1875C9.95443 38.7122 10.1302 38.1426 10.2344 37.4785ZM15.9258 36.834V36.6094C15.9258 35.8477 16.0365 35.1413 16.2578 34.4902C16.4792 33.8327 16.7982 33.263 17.2148 32.7812C17.6315 32.293 18.1361 31.9154 18.7285 31.6484C19.321 31.375 19.985 31.2383 20.7207 31.2383C21.4629 31.2383 22.1302 31.375 22.7227 31.6484C23.3216 31.9154 23.8294 32.293 24.2461 32.7812C24.6693 33.263 24.9915 33.8327 25.2129 34.4902C25.4342 35.1413 25.5449 35.8477 25.5449 36.6094V36.834C25.5449 37.5957 25.4342 38.3021 25.2129 38.9531C24.9915 39.6042 24.6693 40.1738 24.2461 40.6621C23.8294 41.1439 23.3249 41.5215 22.7324 41.7949C22.1465 42.0618 21.4824 42.1953 20.7402 42.1953C19.998 42.1953 19.3307 42.0618 18.7383 41.7949C18.1458 41.5215 17.638 41.1439 17.2148 40.6621C16.7982 40.1738 16.4792 39.6042 16.2578 38.9531C16.0365 38.3021 15.9258 37.5957 15.9258 36.834ZM17.7324 36.6094V36.834C17.7324 37.3613 17.7943 37.8594 17.918 38.3281C18.0417 38.7904 18.2272 39.2005 18.4746 39.5586C18.7285 39.9167 19.0443 40.1999 19.4219 40.4082C19.7995 40.61 20.2389 40.7109 20.7402 40.7109C21.235 40.7109 21.668 40.61 22.0391 40.4082C22.4167 40.1999 22.7292 39.9167 22.9766 39.5586C23.224 39.2005 23.4095 38.7904 23.5332 38.3281C23.6634 37.8594 23.7285 37.3613 23.7285 36.834V36.6094C23.7285 36.0885 23.6634 35.597 23.5332 35.1348C23.4095 34.666 23.2207 34.2526 22.9668 33.8945C22.7194 33.5299 22.4069 33.2435 22.0293 33.0352C21.6582 32.8268 21.222 32.7227 20.7207 32.7227C20.2259 32.7227 19.7897 32.8268 19.4121 33.0352C19.041 33.2435 18.7285 33.5299 18.4746 33.8945C18.2272 34.2526 18.0417 34.666 17.918 35.1348C17.7943 35.597 17.7324 36.0885 17.7324 36.6094ZM31.6172 33.6895V42H29.8105V31.4336H31.5195L31.6172 33.6895ZM31.1875 36.3164L30.4355 36.2871C30.4421 35.5645 30.5495 34.8971 30.7578 34.2852C30.9661 33.6667 31.2591 33.1296 31.6367 32.6738C32.0143 32.2181 32.4635 31.8665 32.9844 31.6191C33.5117 31.3652 34.0944 31.2383 34.7324 31.2383C35.2533 31.2383 35.722 31.3099 36.1387 31.4531C36.5553 31.5898 36.9102 31.8112 37.2031 32.1172C37.5026 32.4232 37.7305 32.8203 37.8867 33.3086C38.043 33.7904 38.1211 34.3796 38.1211 35.0762V42H36.3047V35.0566C36.3047 34.5033 36.2233 34.0605 36.0605 33.7285C35.8978 33.39 35.6602 33.1458 35.3477 32.9961C35.0352 32.8398 34.651 32.7617 34.1953 32.7617C33.7461 32.7617 33.3359 32.8561 32.9648 33.0449C32.6003 33.2337 32.2845 33.4941 32.0176 33.8262C31.7572 34.1582 31.5521 34.5391 31.4023 34.9688C31.2591 35.3919 31.1875 35.8411 31.1875 36.3164ZM47.2891 31.4336V32.8203H41.5762V31.4336H47.2891ZM43.5098 28.8652H45.3164V39.3828C45.3164 39.7409 45.3717 40.0111 45.4824 40.1934C45.5931 40.3757 45.7363 40.4961 45.9121 40.5547C46.0879 40.6133 46.2767 40.6426 46.4785 40.6426C46.6283 40.6426 46.7845 40.6296 46.9473 40.6035C47.1165 40.571 47.2435 40.5449 47.3281 40.5254L47.3379 42C47.1947 42.0456 47.0059 42.0879 46.7715 42.127C46.5436 42.1725 46.2669 42.1953 45.9414 42.1953C45.4987 42.1953 45.0918 42.1074 44.7207 41.9316C44.3496 41.7559 44.0534 41.4629 43.832 41.0527C43.6172 40.6361 43.5098 40.0762 43.5098 39.373V28.8652ZM57.6387 40.1934V34.7539C57.6387 34.3372 57.554 33.9759 57.3848 33.6699C57.222 33.3574 56.9746 33.1165 56.6426 32.9473C56.3105 32.778 55.9004 32.6934 55.4121 32.6934C54.9564 32.6934 54.556 32.7715 54.2109 32.9277C53.8724 33.084 53.6055 33.2891 53.4102 33.543C53.2214 33.7969 53.127 34.0703 53.127 34.3633H51.3203C51.3203 33.9857 51.418 33.6113 51.6133 33.2402C51.8086 32.8691 52.0885 32.5339 52.4531 32.2344C52.8242 31.9284 53.2669 31.6875 53.7812 31.5117C54.3021 31.3294 54.8815 31.2383 55.5195 31.2383C56.2878 31.2383 56.9648 31.3685 57.5508 31.6289C58.1432 31.8893 58.6055 32.2832 58.9375 32.8105C59.276 33.3314 59.4453 33.9857 59.4453 34.7734V39.6953C59.4453 40.0469 59.4746 40.4212 59.5332 40.8184C59.5983 41.2155 59.6927 41.5573 59.8164 41.8438V42H57.9316C57.8405 41.7917 57.7689 41.515 57.7168 41.1699C57.6647 40.8184 57.6387 40.4928 57.6387 40.1934ZM57.9512 35.5938L57.9707 36.8633H56.1445C55.6302 36.8633 55.1712 36.9056 54.7676 36.9902C54.3639 37.0684 54.0254 37.1888 53.752 37.3516C53.4785 37.5143 53.2702 37.7194 53.127 37.9668C52.9837 38.2077 52.9121 38.4909 52.9121 38.8164C52.9121 39.1484 52.987 39.4512 53.1367 39.7246C53.2865 39.998 53.5111 40.2161 53.8105 40.3789C54.1165 40.5352 54.4909 40.6133 54.9336 40.6133C55.487 40.6133 55.9753 40.4961 56.3984 40.2617C56.8216 40.0273 57.1569 39.7409 57.4043 39.4023C57.6582 39.0638 57.7949 38.735 57.8145 38.416L58.5859 39.2852C58.5404 39.5586 58.4167 39.8613 58.2148 40.1934C58.013 40.5254 57.7428 40.8444 57.4043 41.1504C57.0723 41.4499 56.6751 41.7005 56.2129 41.9023C55.7572 42.0977 55.2428 42.1953 54.6699 42.1953C53.9538 42.1953 53.3255 42.0553 52.7852 41.7754C52.2513 41.4954 51.8346 41.1211 51.5352 40.6523C51.2422 40.1771 51.0957 39.6465 51.0957 39.0605C51.0957 38.4941 51.2064 37.9961 51.4277 37.5664C51.6491 37.1302 51.9681 36.7689 52.3848 36.4824C52.8014 36.1895 53.3027 35.9681 53.8887 35.8184C54.4746 35.6686 55.1289 35.5938 55.8516 35.5938H57.9512ZM68.5156 40.7109C68.9453 40.7109 69.3424 40.623 69.707 40.4473C70.0716 40.2715 70.3711 40.0306 70.6055 39.7246C70.8398 39.4121 70.9733 39.0573 71.0059 38.6602H72.7246C72.6921 39.2852 72.4805 39.8678 72.0898 40.4082C71.7057 40.9421 71.2012 41.375 70.5762 41.707C69.9512 42.0326 69.2643 42.1953 68.5156 42.1953C67.7214 42.1953 67.028 42.0553 66.4355 41.7754C65.8496 41.4954 65.3613 41.1113 64.9707 40.623C64.5866 40.1348 64.2969 39.5749 64.1016 38.9434C63.9128 38.3053 63.8184 37.6315 63.8184 36.9219V36.5117C63.8184 35.8021 63.9128 35.1315 64.1016 34.5C64.2969 33.862 64.5866 33.2988 64.9707 32.8105C65.3613 32.3223 65.8496 31.9382 66.4355 31.6582C67.028 31.3783 67.7214 31.2383 68.5156 31.2383C69.3424 31.2383 70.0651 31.4076 70.6836 31.7461C71.3021 32.0781 71.7871 32.5339 72.1387 33.1133C72.4967 33.6862 72.6921 34.3372 72.7246 35.0664H71.0059C70.9733 34.6302 70.8496 34.2363 70.6348 33.8848C70.4264 33.5332 70.14 33.2533 69.7754 33.0449C69.4173 32.8301 68.9974 32.7227 68.5156 32.7227C67.9622 32.7227 67.4967 32.8333 67.1191 33.0547C66.748 33.2695 66.4518 33.5625 66.2305 33.9336C66.0156 34.2982 65.8594 34.7051 65.7617 35.1543C65.6706 35.597 65.625 36.0495 65.625 36.5117V36.9219C65.625 37.3841 65.6706 37.8398 65.7617 38.2891C65.8529 38.7383 66.0059 39.1452 66.2207 39.5098C66.4421 39.8743 66.7383 40.1673 67.1094 40.3887C67.487 40.6035 67.9557 40.7109 68.5156 40.7109ZM81.1797 31.4336V32.8203H75.4668V31.4336H81.1797ZM77.4004 28.8652H79.207V39.3828C79.207 39.7409 79.2624 40.0111 79.373 40.1934C79.4837 40.3757 79.627 40.4961 79.8027 40.5547C79.9785 40.6133 80.1673 40.6426 80.3691 40.6426C80.5189 40.6426 80.6751 40.6296 80.8379 40.6035C81.0072 40.571 81.1341 40.5449 81.2188 40.5254L81.2285 42C81.0853 42.0456 80.8965 42.0879 80.6621 42.127C80.4342 42.1725 80.1576 42.1953 79.832 42.1953C79.3893 42.1953 78.9824 42.1074 78.6113 41.9316C78.2402 41.7559 77.944 41.4629 77.7227 41.0527C77.5078 40.6361 77.4004 40.0762 77.4004 39.373V28.8652ZM101.117 37.4785H102.992C102.895 38.377 102.637 39.181 102.221 39.8906C101.804 40.6003 101.215 41.1634 100.453 41.5801C99.6914 41.9902 98.7409 42.1953 97.6016 42.1953C96.7682 42.1953 96.0098 42.0391 95.3262 41.7266C94.6491 41.4141 94.0664 40.9714 93.5781 40.3984C93.0898 39.819 92.7122 39.1257 92.4453 38.3184C92.1849 37.5046 92.0547 36.5996 92.0547 35.6035V34.1875C92.0547 33.1914 92.1849 32.2897 92.4453 31.4824C92.7122 30.6686 93.0931 29.972 93.5879 29.3926C94.0892 28.8132 94.6914 28.3672 95.3945 28.0547C96.0977 27.7422 96.8887 27.5859 97.7676 27.5859C98.8418 27.5859 99.75 27.7878 100.492 28.1914C101.234 28.5951 101.811 29.1549 102.221 29.8711C102.637 30.5807 102.895 31.4043 102.992 32.3418H101.117C101.026 31.6777 100.857 31.1081 100.609 30.6328C100.362 30.151 100.01 29.7799 99.5547 29.5195C99.099 29.2591 98.5033 29.1289 97.7676 29.1289C97.1361 29.1289 96.5794 29.2493 96.0977 29.4902C95.6224 29.7311 95.222 30.0729 94.8965 30.5156C94.5775 30.9583 94.3366 31.4889 94.1738 32.1074C94.0111 32.7259 93.9297 33.4128 93.9297 34.168V35.6035C93.9297 36.3001 94.0013 36.9544 94.1445 37.5664C94.2943 38.1784 94.5189 38.7155 94.8184 39.1777C95.1178 39.64 95.4987 40.0046 95.9609 40.2715C96.4232 40.5319 96.9701 40.6621 97.6016 40.6621C98.4023 40.6621 99.0404 40.5352 99.5156 40.2812C99.9909 40.0273 100.349 39.6628 100.59 39.1875C100.837 38.7122 101.013 38.1426 101.117 37.4785ZM109.094 27V42H107.287V27H109.094ZM108.664 36.3164L107.912 36.2871C107.919 35.5645 108.026 34.8971 108.234 34.2852C108.443 33.6667 108.736 33.1296 109.113 32.6738C109.491 32.2181 109.94 31.8665 110.461 31.6191C110.988 31.3652 111.571 31.2383 112.209 31.2383C112.73 31.2383 113.199 31.3099 113.615 31.4531C114.032 31.5898 114.387 31.8112 114.68 32.1172C114.979 32.4232 115.207 32.8203 115.363 33.3086C115.52 33.7904 115.598 34.3796 115.598 35.0762V42H113.781V35.0566C113.781 34.5033 113.7 34.0605 113.537 33.7285C113.374 33.39 113.137 33.1458 112.824 32.9961C112.512 32.8398 112.128 32.7617 111.672 32.7617C111.223 32.7617 110.812 32.8561 110.441 33.0449C110.077 33.2337 109.761 33.4941 109.494 33.8262C109.234 34.1582 109.029 34.5391 108.879 34.9688C108.736 35.3919 108.664 35.8411 108.664 36.3164ZM126.533 40.1934V34.7539C126.533 34.3372 126.449 33.9759 126.279 33.6699C126.117 33.3574 125.869 33.1165 125.537 32.9473C125.205 32.778 124.795 32.6934 124.307 32.6934C123.851 32.6934 123.451 32.7715 123.105 32.9277C122.767 33.084 122.5 33.2891 122.305 33.543C122.116 33.7969 122.021 34.0703 122.021 34.3633H120.215C120.215 33.9857 120.312 33.6113 120.508 33.2402C120.703 32.8691 120.983 32.5339 121.348 32.2344C121.719 31.9284 122.161 31.6875 122.676 31.5117C123.197 31.3294 123.776 31.2383 124.414 31.2383C125.182 31.2383 125.859 31.3685 126.445 31.6289C127.038 31.8893 127.5 32.2832 127.832 32.8105C128.171 33.3314 128.34 33.9857 128.34 34.7734V39.6953C128.34 40.0469 128.369 40.4212 128.428 40.8184C128.493 41.2155 128.587 41.5573 128.711 41.8438V42H126.826C126.735 41.7917 126.663 41.515 126.611 41.1699C126.559 40.8184 126.533 40.4928 126.533 40.1934ZM126.846 35.5938L126.865 36.8633H125.039C124.525 36.8633 124.066 36.9056 123.662 36.9902C123.258 37.0684 122.92 37.1888 122.646 37.3516C122.373 37.5143 122.165 37.7194 122.021 37.9668C121.878 38.2077 121.807 38.4909 121.807 38.8164C121.807 39.1484 121.882 39.4512 122.031 39.7246C122.181 39.998 122.406 40.2161 122.705 40.3789C123.011 40.5352 123.385 40.6133 123.828 40.6133C124.382 40.6133 124.87 40.4961 125.293 40.2617C125.716 40.0273 126.051 39.7409 126.299 39.4023C126.553 39.0638 126.689 38.735 126.709 38.416L127.48 39.2852C127.435 39.5586 127.311 39.8613 127.109 40.1934C126.908 40.5254 126.637 40.8444 126.299 41.1504C125.967 41.4499 125.57 41.7005 125.107 41.9023C124.652 42.0977 124.137 42.1953 123.564 42.1953C122.848 42.1953 122.22 42.0553 121.68 41.7754C121.146 41.4954 120.729 41.1211 120.43 40.6523C120.137 40.1771 119.99 39.6465 119.99 39.0605C119.99 38.4941 120.101 37.9961 120.322 37.5664C120.544 37.1302 120.863 36.7689 121.279 36.4824C121.696 36.1895 122.197 35.9681 122.783 35.8184C123.369 35.6686 124.023 35.5938 124.746 35.5938H126.846ZM134.988 33.6895V42H133.182V31.4336H134.891L134.988 33.6895ZM134.559 36.3164L133.807 36.2871C133.813 35.5645 133.921 34.8971 134.129 34.2852C134.337 33.6667 134.63 33.1296 135.008 32.6738C135.385 32.2181 135.835 31.8665 136.355 31.6191C136.883 31.3652 137.465 31.2383 138.104 31.2383C138.624 31.2383 139.093 31.3099 139.51 31.4531C139.926 31.5898 140.281 31.8112 140.574 32.1172C140.874 32.4232 141.102 32.8203 141.258 33.3086C141.414 33.7904 141.492 34.3796 141.492 35.0762V42H139.676V35.0566C139.676 34.5033 139.594 34.0605 139.432 33.7285C139.269 33.39 139.031 33.1458 138.719 32.9961C138.406 32.8398 138.022 32.7617 137.566 32.7617C137.117 32.7617 136.707 32.8561 136.336 33.0449C135.971 33.2337 135.656 33.4941 135.389 33.8262C135.128 34.1582 134.923 34.5391 134.773 34.9688C134.63 35.3919 134.559 35.8411 134.559 36.3164ZM148.043 33.6895V42H146.236V31.4336H147.945L148.043 33.6895ZM147.613 36.3164L146.861 36.2871C146.868 35.5645 146.975 34.8971 147.184 34.2852C147.392 33.6667 147.685 33.1296 148.062 32.6738C148.44 32.2181 148.889 31.8665 149.41 31.6191C149.938 31.3652 150.52 31.2383 151.158 31.2383C151.679 31.2383 152.148 31.3099 152.564 31.4531C152.981 31.5898 153.336 31.8112 153.629 32.1172C153.928 32.4232 154.156 32.8203 154.312 33.3086C154.469 33.7904 154.547 34.3796 154.547 35.0762V42H152.73V35.0566C152.73 34.5033 152.649 34.0605 152.486 33.7285C152.324 33.39 152.086 33.1458 151.773 32.9961C151.461 32.8398 151.077 32.7617 150.621 32.7617C150.172 32.7617 149.762 32.8561 149.391 33.0449C149.026 33.2337 148.71 33.4941 148.443 33.8262C148.183 34.1582 147.978 34.5391 147.828 34.9688C147.685 35.3919 147.613 35.8411 147.613 36.3164ZM163.676 42.1953C162.94 42.1953 162.273 42.0716 161.674 41.8242C161.081 41.5703 160.57 41.2155 160.141 40.7598C159.717 40.304 159.392 39.7637 159.164 39.1387C158.936 38.5137 158.822 37.8301 158.822 37.0879V36.6777C158.822 35.8184 158.949 35.0534 159.203 34.3828C159.457 33.7057 159.802 33.1328 160.238 32.6641C160.674 32.1953 161.169 31.8405 161.723 31.5996C162.276 31.3587 162.849 31.2383 163.441 31.2383C164.197 31.2383 164.848 31.3685 165.395 31.6289C165.948 31.8893 166.4 32.2539 166.752 32.7227C167.104 33.1849 167.364 33.7318 167.533 34.3633C167.702 34.9883 167.787 35.6719 167.787 36.4141V37.2246H159.896V35.75H165.98V35.6133C165.954 35.1445 165.857 34.6888 165.688 34.2461C165.525 33.8034 165.264 33.4388 164.906 33.1523C164.548 32.8659 164.06 32.7227 163.441 32.7227C163.031 32.7227 162.654 32.8105 162.309 32.9863C161.964 33.1556 161.667 33.4095 161.42 33.748C161.173 34.0866 160.98 34.5 160.844 34.9883C160.707 35.4766 160.639 36.0397 160.639 36.6777V37.0879C160.639 37.5892 160.707 38.0612 160.844 38.5039C160.987 38.9401 161.192 39.3242 161.459 39.6562C161.732 39.9883 162.061 40.2487 162.445 40.4375C162.836 40.6263 163.279 40.7207 163.773 40.7207C164.411 40.7207 164.952 40.5905 165.395 40.3301C165.837 40.0697 166.225 39.7214 166.557 39.2852L167.65 40.1543C167.423 40.4993 167.133 40.8281 166.781 41.1406C166.43 41.4531 165.997 41.707 165.482 41.9023C164.975 42.0977 164.372 42.1953 163.676 42.1953ZM173.859 27V42H172.043V27H173.859ZM184.912 39.1973C184.912 38.9368 184.854 38.696 184.736 38.4746C184.626 38.2467 184.395 38.0417 184.043 37.8594C183.698 37.6706 183.177 37.5078 182.48 37.3711C181.895 37.2474 181.364 37.1009 180.889 36.9316C180.42 36.7624 180.02 36.5573 179.688 36.3164C179.362 36.0755 179.111 35.7923 178.936 35.4668C178.76 35.1413 178.672 34.7604 178.672 34.3242C178.672 33.9076 178.763 33.5137 178.945 33.1426C179.134 32.7715 179.398 32.4427 179.736 32.1562C180.081 31.8698 180.495 31.6452 180.977 31.4824C181.458 31.3197 181.995 31.2383 182.588 31.2383C183.434 31.2383 184.157 31.388 184.756 31.6875C185.355 31.987 185.814 32.3874 186.133 32.8887C186.452 33.3835 186.611 33.9336 186.611 34.5391H184.805C184.805 34.2461 184.717 33.9629 184.541 33.6895C184.372 33.4095 184.121 33.1784 183.789 32.9961C183.464 32.8138 183.063 32.7227 182.588 32.7227C182.087 32.7227 181.68 32.8008 181.367 32.957C181.061 33.1068 180.837 33.2988 180.693 33.5332C180.557 33.7676 180.488 34.015 180.488 34.2754C180.488 34.4707 180.521 34.6465 180.586 34.8027C180.658 34.9525 180.781 35.0924 180.957 35.2227C181.133 35.3464 181.38 35.4635 181.699 35.5742C182.018 35.6849 182.425 35.7956 182.92 35.9062C183.786 36.1016 184.499 36.3359 185.059 36.6094C185.618 36.8828 186.035 37.2181 186.309 37.6152C186.582 38.0124 186.719 38.4941 186.719 39.0605C186.719 39.5228 186.621 39.946 186.426 40.3301C186.237 40.7142 185.96 41.0462 185.596 41.3262C185.238 41.5996 184.808 41.8145 184.307 41.9707C183.812 42.1204 183.255 42.1953 182.637 42.1953C181.706 42.1953 180.918 42.0293 180.273 41.6973C179.629 41.3652 179.141 40.9355 178.809 40.4082C178.477 39.8809 178.311 39.3242 178.311 38.7383H180.127C180.153 39.2331 180.296 39.627 180.557 39.9199C180.817 40.2064 181.136 40.4115 181.514 40.5352C181.891 40.6523 182.266 40.7109 182.637 40.7109C183.132 40.7109 183.545 40.6458 183.877 40.5156C184.215 40.3854 184.473 40.2064 184.648 39.9785C184.824 39.7507 184.912 39.4902 184.912 39.1973Z" fill="#F2F2F2"/>
<path d="M23.3037 104.444H30.4575C30.314 106.789 29.668 108.87 28.5195 110.688C27.387 112.507 25.8 113.926 23.7583 114.947C21.7326 115.968 19.2922 116.479 16.437 116.479C14.2039 116.479 12.2021 116.096 10.4316 115.33C8.66113 114.549 7.14583 113.432 5.88574 111.98C4.6416 110.529 3.69255 108.774 3.03857 106.717C2.3846 104.659 2.05762 102.354 2.05762 99.8022V97.3857C2.05762 94.8337 2.39258 92.5288 3.0625 90.4712C3.74837 88.3976 4.72135 86.6351 5.98145 85.1836C7.25749 83.7321 8.78076 82.6156 10.5513 81.834C12.3218 81.0524 14.2996 80.6616 16.4849 80.6616C19.3879 80.6616 21.8363 81.188 23.8301 82.2407C25.8398 83.2935 27.395 84.745 28.4956 86.5952C29.6121 88.4455 30.2821 90.5509 30.5054 92.9116H23.3276C23.2479 91.508 22.9688 90.3197 22.4902 89.3467C22.0117 88.3577 21.286 87.616 20.313 87.1216C19.356 86.6112 18.0799 86.356 16.4849 86.356C15.2886 86.356 14.2438 86.5793 13.3506 87.0259C12.4574 87.4725 11.7077 88.1504 11.1016 89.0596C10.4954 89.9688 10.0409 91.1172 9.73779 92.5049C9.45068 93.8766 9.30713 95.4876 9.30713 97.3379V99.8022C9.30713 101.605 9.44271 103.192 9.71387 104.563C9.98503 105.919 10.3997 107.068 10.958 108.009C11.5322 108.934 12.266 109.636 13.1592 110.114C14.0684 110.577 15.161 110.808 16.437 110.808C17.9364 110.808 19.1725 110.569 20.1455 110.09C21.1185 109.612 21.8602 108.902 22.3706 107.961C22.897 107.02 23.208 105.847 23.3037 104.444ZM38.5396 103.319V102.817C38.5396 100.919 38.8108 99.1722 39.3531 97.5771C39.8954 95.9661 40.685 94.5705 41.7218 93.3901C42.7586 92.2098 44.0346 91.2926 45.5499 90.6387C47.0652 89.9688 48.8038 89.6338 50.7657 89.6338C52.7276 89.6338 54.4742 89.9688 56.0055 90.6387C57.5367 91.2926 58.8207 92.2098 59.8575 93.3901C60.9103 94.5705 61.7078 95.9661 62.2501 97.5771C62.7924 99.1722 63.0636 100.919 63.0636 102.817V103.319C63.0636 105.201 62.7924 106.948 62.2501 108.559C61.7078 110.154 60.9103 111.55 59.8575 112.746C58.8207 113.926 57.5447 114.844 56.0294 115.498C54.5141 116.152 52.7755 116.479 50.8136 116.479C48.8517 116.479 47.1051 116.152 45.5738 115.498C44.0585 114.844 42.7745 113.926 41.7218 112.746C40.685 111.55 39.8954 110.154 39.3531 108.559C38.8108 106.948 38.5396 105.201 38.5396 103.319ZM45.4303 102.817V103.319C45.4303 104.404 45.526 105.417 45.7174 106.358C45.9088 107.299 46.2119 108.128 46.6266 108.846C47.0572 109.548 47.6155 110.098 48.3014 110.497C48.9872 110.896 49.8246 111.095 50.8136 111.095C51.7706 111.095 52.5921 110.896 53.2779 110.497C53.9638 110.098 54.5141 109.548 54.9288 108.846C55.3435 108.128 55.6466 107.299 55.838 106.358C56.0453 105.417 56.149 104.404 56.149 103.319V102.817C56.149 101.764 56.0453 100.775 55.838 99.8501C55.6466 98.909 55.3355 98.0796 54.9049 97.3618C54.4902 96.6281 53.9399 96.0539 53.254 95.6392C52.5681 95.2244 51.7387 95.0171 50.7657 95.0171C49.7927 95.0171 48.9633 95.2244 48.2774 95.6392C47.6075 96.0539 47.0572 96.6281 46.6266 97.3618C46.2119 98.0796 45.9088 98.909 45.7174 99.8501C45.526 100.775 45.4303 101.764 45.4303 102.817ZM78.9455 95.6392V116H72.0549V90.1123H78.5148L78.9455 95.6392ZM77.9406 102.147H76.0744C76.0744 100.233 76.3217 98.5103 76.8161 96.979C77.3106 95.4318 78.0044 94.1159 78.8977 93.0312C79.7909 91.9307 80.8516 91.0933 82.0798 90.519C83.3239 89.9289 84.7116 89.6338 86.2429 89.6338C87.4551 89.6338 88.5637 89.8092 89.5686 90.1602C90.5734 90.5111 91.4348 91.0693 92.1525 91.835C92.8863 92.6006 93.4445 93.6134 93.8273 94.8735C94.2261 96.1336 94.4255 97.6729 94.4255 99.4912V116H87.487V99.4673C87.487 98.3188 87.3275 97.4256 87.0085 96.7876C86.6895 96.1496 86.2189 95.703 85.5969 95.4478C84.9908 95.1766 84.2411 95.041 83.3479 95.041C82.4227 95.041 81.6172 95.2244 80.9314 95.5913C80.2614 95.9582 79.7032 96.4686 79.2565 97.1226C78.8259 97.7606 78.4989 98.5103 78.2756 99.3716C78.0523 100.233 77.9406 101.158 77.9406 102.147ZM117.246 90.1123V94.9932H102.173V90.1123H117.246ZM105.905 83.7241H112.796V108.2C112.796 108.95 112.891 109.524 113.083 109.923C113.29 110.322 113.593 110.601 113.992 110.76C114.391 110.904 114.893 110.976 115.499 110.976C115.93 110.976 116.313 110.96 116.648 110.928C116.999 110.88 117.294 110.832 117.533 110.784L117.557 115.856C116.967 116.048 116.329 116.199 115.643 116.311C114.957 116.423 114.199 116.479 113.37 116.479C111.855 116.479 110.531 116.231 109.398 115.737C108.282 115.226 107.42 114.413 106.814 113.296C106.208 112.18 105.905 110.712 105.905 108.894V83.7241ZM140.042 110.162V98.6299C140.042 97.8005 139.907 97.0907 139.636 96.5005C139.364 95.8944 138.942 95.4238 138.368 95.0889C137.809 94.7539 137.084 94.5864 136.19 94.5864C135.425 94.5864 134.763 94.722 134.204 94.9932C133.646 95.2484 133.216 95.6232 132.912 96.1177C132.609 96.5962 132.458 97.1624 132.458 97.8164H125.567C125.567 96.7158 125.822 95.6711 126.333 94.6821C126.843 93.6932 127.585 92.8239 128.558 92.0742C129.531 91.3086 130.687 90.7104 132.027 90.2798C133.383 89.8491 134.898 89.6338 136.573 89.6338C138.583 89.6338 140.369 89.9688 141.933 90.6387C143.496 91.3086 144.724 92.3135 145.617 93.6533C146.526 94.9932 146.981 96.668 146.981 98.6777V109.755C146.981 111.175 147.069 112.339 147.244 113.249C147.419 114.142 147.675 114.923 148.01 115.593V116H141.047C140.712 115.298 140.457 114.421 140.282 113.368C140.122 112.299 140.042 111.231 140.042 110.162ZM140.952 100.233L140.999 104.133H137.147C136.238 104.133 135.449 104.236 134.779 104.444C134.109 104.651 133.558 104.946 133.128 105.329C132.697 105.696 132.378 106.127 132.171 106.621C131.979 107.116 131.884 107.658 131.884 108.248C131.884 108.838 132.019 109.373 132.29 109.851C132.562 110.314 132.952 110.681 133.463 110.952C133.973 111.207 134.571 111.334 135.257 111.334C136.294 111.334 137.195 111.127 137.961 110.712C138.726 110.298 139.317 109.787 139.731 109.181C140.162 108.575 140.385 108.001 140.401 107.458L142.22 110.377C141.964 111.031 141.614 111.709 141.167 112.411C140.736 113.113 140.186 113.775 139.516 114.397C138.846 115.003 138.041 115.506 137.1 115.904C136.158 116.287 135.042 116.479 133.75 116.479C132.107 116.479 130.616 116.152 129.276 115.498C127.952 114.828 126.899 113.91 126.118 112.746C125.352 111.566 124.969 110.226 124.969 108.727C124.969 107.371 125.224 106.167 125.735 105.114C126.245 104.061 126.995 103.176 127.984 102.458C128.989 101.724 130.241 101.174 131.74 100.807C133.239 100.424 134.978 100.233 136.956 100.233H140.952ZM167.887 111.095C168.733 111.095 169.482 110.936 170.136 110.617C170.79 110.282 171.301 109.819 171.667 109.229C172.05 108.623 172.25 107.913 172.266 107.1H178.75C178.734 108.918 178.247 110.537 177.29 111.957C176.333 113.36 175.049 114.469 173.438 115.282C171.827 116.08 170.025 116.479 168.031 116.479C166.021 116.479 164.266 116.144 162.767 115.474C161.284 114.804 160.048 113.879 159.059 112.698C158.07 111.502 157.328 110.114 156.833 108.535C156.339 106.94 156.092 105.233 156.092 103.415V102.721C156.092 100.887 156.339 99.1802 156.833 97.6011C157.328 96.006 158.07 94.6183 159.059 93.438C160.048 92.2417 161.284 91.3086 162.767 90.6387C164.25 89.9688 165.989 89.6338 167.983 89.6338C170.104 89.6338 171.963 90.0405 173.558 90.854C175.169 91.6675 176.429 92.8319 177.338 94.3472C178.263 95.8465 178.734 97.625 178.75 99.6826H172.266C172.25 98.8213 172.066 98.0397 171.715 97.3379C171.38 96.6361 170.886 96.0778 170.232 95.6631C169.594 95.2324 168.804 95.0171 167.863 95.0171C166.858 95.0171 166.037 95.2324 165.399 95.6631C164.761 96.0778 164.266 96.652 163.916 97.3857C163.565 98.1035 163.317 98.925 163.174 99.8501C163.046 100.759 162.982 101.716 162.982 102.721V103.415C162.982 104.42 163.046 105.385 163.174 106.31C163.301 107.235 163.541 108.057 163.892 108.774C164.258 109.492 164.761 110.058 165.399 110.473C166.037 110.888 166.866 111.095 167.887 111.095ZM200.326 90.1123V94.9932H185.253V90.1123H200.326ZM188.985 83.7241H195.876V108.2C195.876 108.95 195.971 109.524 196.163 109.923C196.37 110.322 196.673 110.601 197.072 110.76C197.471 110.904 197.973 110.976 198.579 110.976C199.01 110.976 199.393 110.96 199.728 110.928C200.079 110.88 200.374 110.832 200.613 110.784L200.637 115.856C200.047 116.048 199.409 116.199 198.723 116.311C198.037 116.423 197.279 116.479 196.45 116.479C194.934 116.479 193.611 116.231 192.478 115.737C191.362 115.226 190.5 114.413 189.894 113.296C189.288 112.18 188.985 110.712 188.985 108.894V83.7241ZM245.919 81.1641H253.073V104.181C253.073 106.86 252.498 109.117 251.35 110.952C250.217 112.786 248.646 114.166 246.637 115.091C244.643 116.016 242.346 116.479 239.746 116.479C237.146 116.479 234.833 116.016 232.807 115.091C230.798 114.166 229.219 112.786 228.07 110.952C226.938 109.117 226.371 106.86 226.371 104.181V81.1641H233.549V104.181C233.549 105.744 233.796 107.02 234.291 108.009C234.785 108.998 235.495 109.723 236.42 110.186C237.361 110.649 238.47 110.88 239.746 110.88C241.054 110.88 242.162 110.649 243.072 110.186C243.997 109.723 244.699 108.998 245.177 108.009C245.672 107.02 245.919 105.744 245.919 104.181V81.1641ZM277.448 108.846C277.448 108.352 277.305 107.905 277.017 107.506C276.73 107.108 276.196 106.741 275.414 106.406C274.649 106.055 273.54 105.736 272.089 105.449C270.781 105.162 269.561 104.803 268.428 104.372C267.312 103.925 266.339 103.391 265.509 102.769C264.696 102.147 264.058 101.413 263.595 100.568C263.133 99.7065 262.901 98.7256 262.901 97.625C262.901 96.5404 263.133 95.5195 263.595 94.5625C264.074 93.6055 264.752 92.7601 265.629 92.0264C266.522 91.2767 267.607 90.6945 268.883 90.2798C270.175 89.8491 271.626 89.6338 273.237 89.6338C275.486 89.6338 277.416 89.9927 279.027 90.7104C280.654 91.4282 281.898 92.4172 282.76 93.6772C283.637 94.9214 284.076 96.341 284.076 97.936H277.185C277.185 97.2661 277.041 96.668 276.754 96.1416C276.483 95.5993 276.052 95.1766 275.462 94.8735C274.888 94.5545 274.138 94.395 273.213 94.395C272.448 94.395 271.786 94.5306 271.227 94.8018C270.669 95.057 270.239 95.4079 269.935 95.8545C269.648 96.2852 269.505 96.7637 269.505 97.29C269.505 97.6888 269.585 98.0477 269.744 98.3667C269.92 98.6698 270.199 98.9489 270.581 99.2041C270.964 99.4593 271.459 99.6986 272.065 99.9219C272.687 100.129 273.453 100.321 274.362 100.496C276.228 100.879 277.895 101.381 279.362 102.003C280.83 102.61 281.994 103.439 282.855 104.492C283.717 105.528 284.147 106.892 284.147 108.583C284.147 109.731 283.892 110.784 283.382 111.741C282.871 112.698 282.138 113.536 281.181 114.253C280.224 114.955 279.075 115.506 277.735 115.904C276.411 116.287 274.92 116.479 273.261 116.479C270.853 116.479 268.811 116.048 267.136 115.187C265.477 114.325 264.217 113.233 263.356 111.909C262.51 110.569 262.088 109.197 262.088 107.793H268.62C268.651 108.735 268.891 109.492 269.337 110.066C269.8 110.641 270.382 111.055 271.084 111.311C271.802 111.566 272.575 111.693 273.405 111.693C274.298 111.693 275.04 111.574 275.63 111.334C276.22 111.079 276.667 110.744 276.97 110.33C277.289 109.899 277.448 109.404 277.448 108.846Z" fill="white"/>
<path d="M84.375 23.4688V28.1562C84.375 31.3789 86.4258 34.0156 89.3555 34.8945C112.207 41.3398 128.906 62.1406 128.906 86.75C128.906 116.633 104.59 140.656 75 140.656C45.1172 140.656 21.0938 116.633 21.0938 86.75C21.0938 62.1406 37.5 41.3398 60.3516 34.8945C63.2812 34.0156 65.625 31.3789 65.625 28.1562V23.4688C65.625 18.7812 61.2305 15.2656 56.543 16.4375C25.1953 24.6406 2.05078 53.3516 2.34375 87.3359C2.34375 127.473 34.8633 159.699 75 159.406C115.137 159.406 147.656 126.887 147.656 86.75C147.656 53.0586 124.219 24.6406 92.8711 16.4375C88.4766 15.2656 84.375 18.7812 84.375 23.4688Z" fill="#FAD62C" fill-opacity="0.3"/>
</svg>
