<svg width="321" height="173" viewBox="0 0 321 173" fill="none" xmlns="http://www.w3.org/2000/svg">
<path d="M0.86 39.02C0.86 37.66 1.16667 36.44 1.78 35.36C2.39333 34.2667 3.22667 33.4133 4.28 32.8C5.34667 32.1867 6.52667 31.88 7.82 31.88C9.34 31.88 10.6667 32.2467 11.8 32.98C12.9333 33.7133 13.76 34.7533 14.28 36.1H12.1C11.7133 35.26 11.1533 34.6133 10.42 34.16C9.7 33.7067 8.83333 33.48 7.82 33.48C6.84667 33.48 5.97333 33.7067 5.2 34.16C4.42667 34.6133 3.82 35.26 3.38 36.1C2.94 36.9267 2.72 37.9 2.72 39.02C2.72 40.1267 2.94 41.1 3.38 41.94C3.82 42.7667 4.42667 43.4067 5.2 43.86C5.97333 44.3133 6.84667 44.54 7.82 44.54C8.83333 44.54 9.7 44.32 10.42 43.88C11.1533 43.4267 11.7133 42.78 12.1 41.94H14.28C13.76 43.2733 12.9333 44.3067 11.8 45.04C10.6667 45.76 9.34 46.12 7.82 46.12C6.52667 46.12 5.34667 45.82 4.28 45.22C3.22667 44.6067 2.39333 43.76 1.78 42.68C1.16667 41.6 0.86 40.38 0.86 39.02ZM21.7692 46.18C20.7426 46.18 19.8092 45.9467 18.9692 45.48C18.1426 45.0133 17.4892 44.3533 17.0092 43.5C16.5426 42.6333 16.3092 41.6333 16.3092 40.5C16.3092 39.38 16.5492 38.3933 17.0292 37.54C17.5226 36.6733 18.1892 36.0133 19.0292 35.56C19.8692 35.0933 20.8092 34.86 21.8492 34.86C22.8892 34.86 23.8292 35.0933 24.6692 35.56C25.5092 36.0133 26.1692 36.6667 26.6492 37.52C27.1426 38.3733 27.3892 39.3667 27.3892 40.5C27.3892 41.6333 27.1359 42.6333 26.6292 43.5C26.1359 44.3533 25.4626 45.0133 24.6092 45.48C23.7559 45.9467 22.8092 46.18 21.7692 46.18ZM21.7692 44.58C22.4226 44.58 23.0359 44.4267 23.6092 44.12C24.1826 43.8133 24.6426 43.3533 24.9892 42.74C25.3492 42.1267 25.5292 41.38 25.5292 40.5C25.5292 39.62 25.3559 38.8733 25.0092 38.26C24.6626 37.6467 24.2092 37.1933 23.6492 36.9C23.0892 36.5933 22.4826 36.44 21.8292 36.44C21.1626 36.44 20.5492 36.5933 19.9892 36.9C19.4426 37.1933 19.0026 37.6467 18.6692 38.26C18.3359 38.8733 18.1692 39.62 18.1692 40.5C18.1692 41.3933 18.3292 42.1467 18.6492 42.76C18.9826 43.3733 19.4226 43.8333 19.9692 44.14C20.5159 44.4333 21.1159 44.58 21.7692 44.58ZM35.1222 34.84C36.4555 34.84 37.5355 35.2467 38.3622 36.06C39.1889 36.86 39.6022 38.02 39.6022 39.54V46H37.8022V39.8C37.8022 38.7067 37.5289 37.8733 36.9822 37.3C36.4355 36.7133 35.6889 36.42 34.7422 36.42C33.7822 36.42 33.0155 36.72 32.4422 37.32C31.8822 37.92 31.6022 38.7933 31.6022 39.94V46H29.7822V35.04H31.6022V36.6C31.9622 36.04 32.4489 35.6067 33.0622 35.3C33.6889 34.9933 34.3755 34.84 35.1222 34.84ZM44.7952 36.54V43C44.7952 43.5333 44.9085 43.9133 45.1352 44.14C45.3618 44.3533 45.7552 44.46 46.3152 44.46H47.6552V46H46.0152C45.0018 46 44.2418 45.7667 43.7352 45.3C43.2285 44.8333 42.9752 44.0667 42.9752 43V36.54H41.5552V35.04H42.9752V32.28H44.7952V35.04H47.6552V36.54H44.7952ZM49.1803 40.48C49.1803 39.36 49.407 38.38 49.8603 37.54C50.3136 36.6867 50.9336 36.0267 51.7203 35.56C52.5203 35.0933 53.407 34.86 54.3803 34.86C55.3403 34.86 56.1736 35.0667 56.8803 35.48C57.587 35.8933 58.1136 36.4133 58.4603 37.04V35.04H60.3003V46H58.4603V43.96C58.1003 44.6 57.5603 45.1333 56.8403 45.56C56.1336 45.9733 55.307 46.18 54.3603 46.18C53.387 46.18 52.507 45.94 51.7203 45.46C50.9336 44.98 50.3136 44.3067 49.8603 43.44C49.407 42.5733 49.1803 41.5867 49.1803 40.48ZM58.4603 40.5C58.4603 39.6733 58.2936 38.9533 57.9603 38.34C57.627 37.7267 57.1736 37.26 56.6003 36.94C56.0403 36.6067 55.4203 36.44 54.7403 36.44C54.0603 36.44 53.4403 36.6 52.8803 36.92C52.3203 37.24 51.8736 37.7067 51.5403 38.32C51.207 38.9333 51.0403 39.6533 51.0403 40.48C51.0403 41.32 51.207 42.0533 51.5403 42.68C51.8736 43.2933 52.3203 43.7667 52.8803 44.1C53.4403 44.42 54.0603 44.58 54.7403 44.58C55.4203 44.58 56.0403 44.42 56.6003 44.1C57.1736 43.7667 57.627 43.2933 57.9603 42.68C58.2936 42.0533 58.4603 41.3267 58.4603 40.5ZM62.6959 40.5C62.6959 39.3667 62.9226 38.38 63.3759 37.54C63.8293 36.6867 64.4559 36.0267 65.2559 35.56C66.0693 35.0933 66.9959 34.86 68.0359 34.86C69.3826 34.86 70.4893 35.1867 71.3559 35.84C72.2359 36.4933 72.8159 37.4 73.0959 38.56H71.1359C70.9493 37.8933 70.5826 37.3667 70.0359 36.98C69.5026 36.5933 68.8359 36.4 68.0359 36.4C66.9959 36.4 66.1559 36.76 65.5159 37.48C64.8759 38.1867 64.5559 39.1933 64.5559 40.5C64.5559 41.82 64.8759 42.84 65.5159 43.56C66.1559 44.28 66.9959 44.64 68.0359 44.64C68.8359 44.64 69.5026 44.4533 70.0359 44.08C70.5693 43.7067 70.9359 43.1733 71.1359 42.48H73.0959C72.8026 43.6 72.2159 44.5 71.3359 45.18C70.4559 45.8467 69.3559 46.18 68.0359 46.18C66.9959 46.18 66.0693 45.9467 65.2559 45.48C64.4559 45.0133 63.8293 44.3533 63.3759 43.5C62.9226 42.6467 62.6959 41.6467 62.6959 40.5ZM77.7444 36.54V43C77.7444 43.5333 77.8577 43.9133 78.0844 44.14C78.311 44.3533 78.7044 44.46 79.2644 44.46H80.6044V46H78.9644C77.951 46 77.191 45.7667 76.6844 45.3C76.1777 44.8333 75.9244 44.0667 75.9244 43V36.54H74.5044V35.04H75.9244V32.28H77.7444V35.04H80.6044V36.54H77.7444ZM87.4616 39.02C87.4616 37.66 87.7682 36.44 88.3816 35.36C88.9949 34.2667 89.8282 33.4133 90.8816 32.8C91.9482 32.1867 93.1282 31.88 94.4216 31.88C95.9416 31.88 97.2682 32.2467 98.4016 32.98C99.5349 33.7133 100.362 34.7533 100.882 36.1H98.7016C98.3149 35.26 97.7549 34.6133 97.0216 34.16C96.3016 33.7067 95.4349 33.48 94.4216 33.48C93.4482 33.48 92.5749 33.7067 91.8016 34.16C91.0282 34.6133 90.4216 35.26 89.9816 36.1C89.5416 36.9267 89.3216 37.9 89.3216 39.02C89.3216 40.1267 89.5416 41.1 89.9816 41.94C90.4216 42.7667 91.0282 43.4067 91.8016 43.86C92.5749 44.3133 93.4482 44.54 94.4216 44.54C95.4349 44.54 96.3016 44.32 97.0216 43.88C97.7549 43.4267 98.3149 42.78 98.7016 41.94H100.882C100.362 43.2733 99.5349 44.3067 98.4016 45.04C97.2682 45.76 95.9416 46.12 94.4216 46.12C93.1282 46.12 91.9482 45.82 90.8816 45.22C89.8282 44.6067 88.9949 43.76 88.3816 42.68C87.7682 41.6 87.4616 40.38 87.4616 39.02ZM109.031 34.84C109.857 34.84 110.604 35.02 111.271 35.38C111.937 35.7267 112.457 36.2533 112.831 36.96C113.217 37.6667 113.411 38.5267 113.411 39.54V46H111.611V39.8C111.611 38.7067 111.337 37.8733 110.791 37.3C110.244 36.7133 109.497 36.42 108.551 36.42C107.591 36.42 106.824 36.72 106.251 37.32C105.691 37.92 105.411 38.7933 105.411 39.94V46H103.591V31.2H105.411V36.6C105.771 36.04 106.264 35.6067 106.891 35.3C107.531 34.9933 108.244 34.84 109.031 34.84ZM115.704 40.48C115.704 39.36 115.93 38.38 116.384 37.54C116.837 36.6867 117.457 36.0267 118.244 35.56C119.044 35.0933 119.93 34.86 120.904 34.86C121.864 34.86 122.697 35.0667 123.404 35.48C124.11 35.8933 124.637 36.4133 124.984 37.04V35.04H126.824V46H124.984V43.96C124.624 44.6 124.084 45.1333 123.364 45.56C122.657 45.9733 121.83 46.18 120.884 46.18C119.91 46.18 119.03 45.94 118.244 45.46C117.457 44.98 116.837 44.3067 116.384 43.44C115.93 42.5733 115.704 41.5867 115.704 40.48ZM124.984 40.5C124.984 39.6733 124.817 38.9533 124.484 38.34C124.15 37.7267 123.697 37.26 123.124 36.94C122.564 36.6067 121.944 36.44 121.264 36.44C120.584 36.44 119.964 36.6 119.404 36.92C118.844 37.24 118.397 37.7067 118.064 38.32C117.73 38.9333 117.564 39.6533 117.564 40.48C117.564 41.32 117.73 42.0533 118.064 42.68C118.397 43.2933 118.844 43.7667 119.404 44.1C119.964 44.42 120.584 44.58 121.264 44.58C121.944 44.58 122.564 44.42 123.124 44.1C123.697 43.7667 124.15 43.2933 124.484 42.68C124.817 42.0533 124.984 41.3267 124.984 40.5ZM135.239 34.84C136.573 34.84 137.653 35.2467 138.479 36.06C139.306 36.86 139.719 38.02 139.719 39.54V46H137.919V39.8C137.919 38.7067 137.646 37.8733 137.099 37.3C136.553 36.7133 135.806 36.42 134.859 36.42C133.899 36.42 133.133 36.72 132.559 37.32C131.999 37.92 131.719 38.7933 131.719 39.94V46H129.899V35.04H131.719V36.6C132.079 36.04 132.566 35.6067 133.179 35.3C133.806 34.9933 134.493 34.84 135.239 34.84ZM148.032 34.84C149.366 34.84 150.446 35.2467 151.272 36.06C152.099 36.86 152.512 38.02 152.512 39.54V46H150.712V39.8C150.712 38.7067 150.439 37.8733 149.892 37.3C149.346 36.7133 148.599 36.42 147.652 36.42C146.692 36.42 145.926 36.72 145.352 37.32C144.792 37.92 144.512 38.7933 144.512 39.94V46H142.692V35.04H144.512V36.6C144.872 36.04 145.359 35.6067 145.972 35.3C146.599 34.9933 147.286 34.84 148.032 34.84ZM165.485 40.1C165.485 40.4467 165.465 40.8133 165.425 41.2H156.665C156.732 42.28 157.099 43.1267 157.765 43.74C158.445 44.34 159.265 44.64 160.225 44.64C161.012 44.64 161.665 44.46 162.185 44.1C162.719 43.7267 163.092 43.2333 163.305 42.62H165.265C164.972 43.6733 164.385 44.5333 163.505 45.2C162.625 45.8533 161.532 46.18 160.225 46.18C159.185 46.18 158.252 45.9467 157.425 45.48C156.612 45.0133 155.972 44.3533 155.505 43.5C155.039 42.6333 154.805 41.6333 154.805 40.5C154.805 39.3667 155.032 38.3733 155.485 37.52C155.939 36.6667 156.572 36.0133 157.385 35.56C158.212 35.0933 159.159 34.86 160.225 34.86C161.265 34.86 162.185 35.0867 162.985 35.54C163.785 35.9933 164.399 36.62 164.825 37.42C165.265 38.2067 165.485 39.1 165.485 40.1ZM163.605 39.72C163.605 39.0267 163.452 38.4333 163.145 37.94C162.839 37.4333 162.419 37.0533 161.885 36.8C161.365 36.5333 160.785 36.4 160.145 36.4C159.225 36.4 158.439 36.6933 157.785 37.28C157.145 37.8667 156.779 38.68 156.685 39.72H163.605ZM169.708 31.2V46H167.888V31.2H169.708ZM176.69 46.18C175.85 46.18 175.096 46.04 174.43 45.76C173.763 45.4667 173.236 45.0667 172.85 44.56C172.463 44.04 172.25 43.4467 172.21 42.78H174.09C174.143 43.3267 174.396 43.7733 174.85 44.12C175.316 44.4667 175.923 44.64 176.67 44.64C177.363 44.64 177.91 44.4867 178.31 44.18C178.71 43.8733 178.91 43.4867 178.91 43.02C178.91 42.54 178.696 42.1867 178.27 41.96C177.843 41.72 177.183 41.4867 176.29 41.26C175.476 41.0467 174.81 40.8333 174.29 40.62C173.783 40.3933 173.343 40.0667 172.97 39.64C172.61 39.2 172.43 38.6267 172.43 37.92C172.43 37.36 172.596 36.8467 172.93 36.38C173.263 35.9133 173.736 35.5467 174.35 35.28C174.963 35 175.663 34.86 176.45 34.86C177.663 34.86 178.643 35.1667 179.39 35.78C180.136 36.3933 180.536 37.2333 180.59 38.3H178.77C178.73 37.7267 178.496 37.2667 178.07 36.92C177.656 36.5733 177.096 36.4 176.39 36.4C175.736 36.4 175.216 36.54 174.83 36.82C174.443 37.1 174.25 37.4667 174.25 37.92C174.25 38.28 174.363 38.58 174.59 38.82C174.83 39.0467 175.123 39.2333 175.47 39.38C175.83 39.5133 176.323 39.6667 176.95 39.84C177.736 40.0533 178.376 40.2667 178.87 40.48C179.363 40.68 179.783 40.9867 180.13 41.4C180.49 41.8133 180.676 42.3533 180.69 43.02C180.69 43.62 180.523 44.16 180.19 44.64C179.856 45.12 179.383 45.5 178.77 45.78C178.17 46.0467 177.476 46.18 176.69 46.18Z" fill="#F2F2F2"/>
<path d="M1.617 98.752C1.617 109.042 8.771 116.245 18.914 116.245C27.097 116.245 33.271 111.688 35.231 104.24H26.019C24.598 107.18 22.001 108.65 18.816 108.65C13.671 108.65 10.143 104.828 10.143 98.752C10.143 92.676 13.671 88.854 18.816 88.854C22.001 88.854 24.598 90.324 26.019 93.264H35.231C33.271 85.816 27.097 81.21 18.914 81.21C8.771 81.21 1.617 88.462 1.617 98.752ZM72.0162 102.329C72.0162 93.656 65.8422 88.266 57.8062 88.266C49.8192 88.266 43.5962 93.656 43.5962 102.329C43.5962 111.002 49.6722 116.392 57.7082 116.392C65.7442 116.392 72.0162 111.002 72.0162 102.329ZM52.1222 102.329C52.1222 97.674 54.7682 95.518 57.8062 95.518C60.7462 95.518 63.4902 97.674 63.4902 102.329C63.4902 106.935 60.6972 109.14 57.7082 109.14C54.6702 109.14 52.1222 106.935 52.1222 102.329ZM100.226 116H108.556V100.026C108.556 92.676 104.342 88.364 98.0214 88.364C94.3464 88.364 91.4064 89.981 89.7404 92.284V88.658H81.3614V116H89.7404V101.153C89.7404 97.429 91.7984 95.371 94.9834 95.371C98.1684 95.371 100.226 97.429 100.226 101.153V116ZM120.602 106.494C120.602 113.599 124.571 116 130.255 116H134.518V108.895H131.529C129.667 108.895 128.981 108.209 128.981 106.592V95.616H134.469V88.658H128.981V81.994H120.602V88.658H117.27V95.616H120.602V106.494ZM142.419 102.28C142.419 110.904 147.76 116.392 154.424 116.392C158.491 116.392 161.382 114.53 162.901 112.129V116H171.28V88.658H162.901V92.529C161.431 90.128 158.54 88.266 154.473 88.266C147.76 88.266 142.419 93.656 142.419 102.28ZM162.901 102.329C162.901 106.69 160.108 109.091 156.923 109.091C153.787 109.091 150.945 106.641 150.945 102.28C150.945 97.919 153.787 95.567 156.923 95.567C160.108 95.567 162.901 97.968 162.901 102.329ZM180.576 102.329C180.576 111.002 186.26 116.392 194.296 116.392C201.156 116.392 206.007 112.423 207.428 106.102H198.51C197.775 108.111 196.452 109.238 194.149 109.238C191.16 109.238 189.102 106.886 189.102 102.329C189.102 97.772 191.16 95.42 194.149 95.42C196.452 95.42 197.824 96.645 198.51 98.556H207.428C206.007 92.039 201.156 88.266 194.296 88.266C186.26 88.266 180.576 93.705 180.576 102.329ZM218.133 106.494C218.133 113.599 222.102 116 227.786 116H232.049V108.895H229.06C227.198 108.895 226.512 108.209 226.512 106.592V95.616H232V88.658H226.512V81.994H218.133V88.658H214.801V95.616H218.133V106.494ZM256.753 102.133C256.753 111.639 262.976 116.343 270.963 116.343C278.901 116.343 285.565 111.639 285.565 102.133V81.602H277.186V102.182C277.186 106.249 275.079 108.601 271.11 108.601C267.141 108.601 265.132 106.249 265.132 102.182V81.602H256.753V102.133ZM318.546 108.062C318.399 97.87 303.601 100.957 303.601 96.596C303.601 95.273 304.679 94.489 306.639 94.489C308.991 94.489 310.412 95.714 310.657 97.576H318.399C317.86 92.186 313.94 88.266 306.884 88.266C299.73 88.266 295.761 92.088 295.761 96.743C295.761 106.788 310.657 103.603 310.657 108.013C310.657 109.238 309.53 110.218 307.374 110.218C305.071 110.218 303.356 108.944 303.16 107.033H294.879C295.271 112.325 300.171 116.392 307.472 116.392C314.332 116.392 318.546 112.815 318.546 108.062Z" fill="white"/>
<path d="M84.375 23.4688V28.1562C84.375 31.3789 86.4258 34.0156 89.3555 34.8945C112.207 41.3398 128.906 62.1406 128.906 86.75C128.906 116.633 104.59 140.656 75 140.656C45.1172 140.656 21.0938 116.633 21.0938 86.75C21.0938 62.1406 37.5 41.3398 60.3516 34.8945C63.2812 34.0156 65.625 31.3789 65.625 28.1562V23.4688C65.625 18.7812 61.2305 15.2656 56.543 16.4375C25.1953 24.6406 2.05078 53.3516 2.34375 87.3359C2.34375 127.473 34.8633 159.699 75 159.406C115.137 159.406 147.656 126.887 147.656 86.75C147.656 53.0586 124.219 24.6406 92.8711 16.4375C88.4766 15.2656 84.375 18.7812 84.375 23.4688Z" fill="#FAD62C" fill-opacity="0.3"/>
</svg>
