<svg width="166" height="166" viewBox="0 0 166 166" fill="none" xmlns="http://www.w3.org/2000/svg">
<g filter="url(#filter0_d_650_6720)">
<rect x="6" y="5" width="152" height="152" rx="10" fill="black" fill-opacity="0.7" shape-rendering="crispEdges"/>
</g>
<path d="M64.871 65.77C62.141 65.77 60.23 67.694 60.23 70.424C60.23 73.154 62.154 75.065 64.884 75.065C67.289 75.065 68.81 73.492 69.278 71.919V69.852H64.442V71.49H67.263C66.925 72.517 66.158 73.102 65.053 73.102C63.454 73.102 62.492 72.114 62.492 70.424C62.492 68.838 63.441 67.824 64.871 67.824C65.703 67.824 66.327 68.149 66.665 68.76H69.122C68.641 66.888 67.055 65.77 64.871 65.77ZM71.3673 71.36C71.3673 73.648 72.7843 75.104 74.5523 75.104C75.6313 75.104 76.3983 74.61 76.8013 73.973V75H79.0243V67.746H76.8013V68.773C76.4113 68.136 75.6443 67.642 74.5653 67.642C72.7843 67.642 71.3673 69.072 71.3673 71.36ZM76.8013 71.373C76.8013 72.53 76.0603 73.167 75.2153 73.167C74.3833 73.167 73.6293 72.517 73.6293 71.36C73.6293 70.203 74.3833 69.579 75.2153 69.579C76.0603 69.579 76.8013 70.216 76.8013 71.373ZM91.9296 75H94.1396V70.762C94.1396 68.812 92.9826 67.668 91.1886 67.668C90.1356 67.668 89.2256 68.253 88.7446 69.02C88.2506 68.149 87.3666 67.668 86.2746 67.668C85.3256 67.668 84.5846 68.071 84.1556 68.656V67.746H81.9326V75H84.1556V71.061C84.1556 70.112 84.7016 69.592 85.5466 69.592C86.3916 69.592 86.9376 70.112 86.9376 71.061V75H89.1476V71.061C89.1476 70.112 89.6936 69.592 90.5386 69.592C91.3836 69.592 91.9296 70.112 91.9296 71.061V75ZM100.192 69.423C100.933 69.423 101.557 69.878 101.557 70.671H98.7753C98.9053 69.865 99.4643 69.423 100.192 69.423ZM103.663 72.595H101.297C101.115 72.985 100.764 73.297 100.14 73.297C99.4253 73.297 98.8403 72.855 98.7623 71.906H103.793C103.819 71.685 103.832 71.464 103.832 71.256C103.832 69.046 102.337 67.642 100.218 67.642C98.0603 67.642 96.5523 69.072 96.5523 71.373C96.5523 73.674 98.0863 75.104 100.218 75.104C102.025 75.104 103.312 74.012 103.663 72.595ZM34.5487 87.874H31.1297V97H34.5487C37.4607 97 39.3327 95.141 39.3327 92.437C39.3327 89.72 37.4607 87.874 34.5487 87.874ZM33.3527 95.076V89.772H34.4057C36.0827 89.772 37.0707 90.76 37.0707 92.437C37.0707 94.114 36.0827 95.076 34.4057 95.076H33.3527ZM45.073 91.423C45.814 91.423 46.438 91.878 46.438 92.671H43.656C43.786 91.865 44.345 91.423 45.073 91.423ZM48.544 94.595H46.178C45.996 94.985 45.645 95.297 45.021 95.297C44.306 95.297 43.721 94.855 43.643 93.906H48.674C48.7 93.685 48.713 93.464 48.713 93.256C48.713 91.046 47.218 89.642 45.099 89.642C42.941 89.642 41.433 91.072 41.433 93.373C41.433 95.674 42.967 97.104 45.099 97.104C46.906 97.104 48.193 96.012 48.544 94.595ZM50.4968 89.746L53.0708 97H55.8138L58.3878 89.746H56.0218L54.4488 94.92L52.8758 89.746H50.4968ZM63.8215 91.423C64.5625 91.423 65.1865 91.878 65.1865 92.671H62.4045C62.5345 91.865 63.0935 91.423 63.8215 91.423ZM67.2925 94.595H64.9265C64.7445 94.985 64.3935 95.297 63.7695 95.297C63.0545 95.297 62.4695 94.855 62.3915 93.906H67.4225C67.4485 93.685 67.4615 93.464 67.4615 93.256C67.4615 91.046 65.9665 89.642 63.8475 89.642C61.6895 89.642 60.1815 91.072 60.1815 93.373C60.1815 95.674 61.7155 97.104 63.8475 97.104C65.6545 97.104 66.9415 96.012 67.2925 94.595ZM69.9342 97H72.1572V87.38H69.9342V97ZM82.1662 93.373C82.1662 91.072 80.5282 89.642 78.3962 89.642C76.2772 89.642 74.6262 91.072 74.6262 93.373C74.6262 95.674 76.2382 97.104 78.3702 97.104C80.5022 97.104 82.1662 95.674 82.1662 93.373ZM76.8882 93.373C76.8882 92.138 77.5902 91.566 78.3962 91.566C79.1762 91.566 79.9042 92.138 79.9042 93.373C79.9042 94.595 79.1632 95.18 78.3702 95.18C77.5642 95.18 76.8882 94.595 76.8882 93.373ZM86.8686 90.773V89.746H84.6456V100.458H86.8686V95.986C87.2715 96.597 88.0386 97.104 89.1046 97.104C90.8856 97.104 92.3026 95.648 92.3026 93.36C92.3026 91.072 90.8856 89.642 89.1046 89.642C88.0386 89.642 87.2715 90.136 86.8686 90.773ZM90.0406 93.36C90.0406 94.517 89.2866 95.167 88.4416 95.167C87.6096 95.167 86.8556 94.53 86.8556 93.373C86.8556 92.216 87.6096 91.579 88.4416 91.579C89.2866 91.579 90.0406 92.203 90.0406 93.36ZM104.766 97H106.976V92.762C106.976 90.812 105.819 89.668 104.025 89.668C102.972 89.668 102.062 90.253 101.581 91.02C101.087 90.149 100.203 89.668 99.1108 89.668C98.1618 89.668 97.4208 90.071 96.9918 90.656V89.746H94.7688V97H96.9918V93.061C96.9918 92.112 97.5378 91.592 98.3828 91.592C99.2278 91.592 99.7738 92.112 99.7738 93.061V97H101.984V93.061C101.984 92.112 102.53 91.592 103.375 91.592C104.22 91.592 104.766 92.112 104.766 93.061V97ZM113.029 91.423C113.77 91.423 114.394 91.878 114.394 92.671H111.612C111.742 91.865 112.301 91.423 113.029 91.423ZM116.5 94.595H114.134C113.952 94.985 113.601 95.297 112.977 95.297C112.262 95.297 111.677 94.855 111.599 93.906H116.63C116.656 93.685 116.669 93.464 116.669 93.256C116.669 91.046 115.174 89.642 113.055 89.642C110.897 89.642 109.389 91.072 109.389 93.373C109.389 95.674 110.923 97.104 113.055 97.104C114.862 97.104 116.149 96.012 116.5 94.595ZM124.146 97H126.356V92.762C126.356 90.812 125.238 89.668 123.561 89.668C122.586 89.668 121.806 90.097 121.364 90.708V89.746H119.141V97H121.364V93.061C121.364 92.073 121.91 91.527 122.755 91.527C123.6 91.527 124.146 92.073 124.146 93.061V97ZM129.552 94.478C129.552 96.363 130.605 97 132.113 97H133.244V95.115H132.451C131.957 95.115 131.775 94.933 131.775 94.504V91.592H133.231V89.746H131.775V87.978H129.552V89.746H128.668V91.592H129.552V94.478Z" fill="white"/>
<path d="M130.937 129.667H130V131.542C130 136.338 133.768 140.195 138.437 140.436V143.724L146 138.104L138.437 132.484V135.761H137.031C133.671 135.761 130.937 133.027 130.937 129.667V129.667Z" fill="white"/>
<defs>
<filter id="filter0_d_650_6720" x="0" y="0" width="166" height="166" filterUnits="userSpaceOnUse" color-interpolation-filters="sRGB">
<feFlood flood-opacity="0" result="BackgroundImageFix"/>
<feColorMatrix in="SourceAlpha" type="matrix" values="0 0 0 0 0 0 0 0 0 0 0 0 0 0 0 0 0 0 127 0" result="hardAlpha"/>
<feOffset dx="1" dy="2"/>
<feGaussianBlur stdDeviation="3.5"/>
<feComposite in2="hardAlpha" operator="out"/>
<feColorMatrix type="matrix" values="0 0 0 0 0 0 0 0 0 0 0 0 0 0 0 0 0 0 0.25 0"/>
<feBlend mode="normal" in2="BackgroundImageFix" result="effect1_dropShadow_650_6720"/>
<feBlend mode="normal" in="SourceGraphic" in2="effect1_dropShadow_650_6720" result="shape"/>
</filter>
</defs>
</svg>
