<svg width="1440" height="1024" viewBox="0 0 1440 1024" fill="none" xmlns="http://www.w3.org/2000/svg">
<g clip-path="url(#clip0_746_1512)">
<rect width="1440" height="1024" fill="white"/>
<g filter="url(#filter0_f_746_1512)">
<path d="M56.3367 283.594C85.5799 283.594 106.897 261.498 106.897 234.496H104.897C104.897 260.375 84.4932 281.594 56.3367 281.594V283.594ZM106.897 234.496V234.23H104.897V234.496H106.897ZM106.897 234.23C106.897 207.228 85.8455 185.397 56.6024 185.397V187.397C84.759 187.397 104.897 208.35 104.897 234.23H106.897ZM56.6024 185.397C27.3593 185.397 6.04209 207.493 6.04209 234.496H8.04209C8.04209 208.616 28.4459 187.397 56.6024 187.397V185.397ZM6.04209 234.496V234.761H8.04209V234.496H6.04209ZM6.04209 234.761C6.04209 261.764 27.0936 283.594 56.3367 283.594V281.594C28.1801 281.594 8.04209 260.641 8.04209 234.761H6.04209ZM56.6024 262.727C40.7387 262.727 29.4341 249.949 29.4341 234.496H27.4341C27.4341 250.931 39.5145 264.727 56.6024 264.727V262.727ZM29.4341 234.496V234.23H27.4341V234.496H29.4341ZM29.4341 234.23C29.4341 218.775 40.4737 206.264 56.3367 206.264V204.264C39.248 204.264 27.4341 217.796 27.4341 234.23H29.4341ZM56.3367 206.264C72.2004 206.264 83.5051 219.042 83.5051 234.496H85.5051C85.5051 218.061 73.4246 204.264 56.3367 204.264V206.264ZM83.5051 234.496V234.761H85.5051V234.496H83.5051ZM83.5051 234.761C83.5051 250.216 72.4654 262.727 56.6024 262.727V264.727C73.6911 264.727 85.5051 251.195 85.5051 234.761H83.5051ZM203.637 187.991H204.637V186.991H203.637V187.991ZM183.175 187.991V186.991H182.175V187.991H183.175ZM143.049 187.991H144.049V186.991H143.049V187.991ZM122.587 187.991V186.991H121.587V187.991H122.587ZM162.846 283.462C175.515 283.462 185.996 279.955 193.311 272.743C200.629 265.529 204.637 254.744 204.637 240.475H202.637C202.637 254.374 198.74 264.583 191.907 271.319C185.071 278.059 175.157 281.462 162.846 281.462V283.462ZM204.637 240.475V187.991H202.637V240.475H204.637ZM203.637 186.991H183.175V188.991H203.637V186.991ZM182.175 187.991V241.272H184.175V187.991H182.175ZM182.175 241.272C182.175 248.485 180.324 253.79 177.093 257.285C173.872 260.769 169.152 262.594 163.112 262.594V264.594C169.562 264.594 174.873 262.633 178.562 258.643C182.24 254.664 184.175 248.808 184.175 241.272H182.175ZM163.112 262.594C157.083 262.594 152.365 260.709 149.141 257.113C145.903 253.502 144.049 248.026 144.049 240.608H142.049C142.049 248.336 143.981 254.354 147.652 258.449C151.338 262.559 156.651 264.594 163.112 264.594V262.594ZM144.049 240.608V187.991H142.049V240.608H144.049ZM143.049 186.991H122.587V188.991H143.049V186.991ZM121.587 187.991V241.139H123.587V187.991H121.587ZM121.587 241.139C121.587 255.008 125.461 265.625 132.644 272.773C139.825 279.92 150.175 283.462 162.846 283.462V281.462C150.538 281.462 140.758 278.027 134.055 271.356C127.352 264.686 123.587 254.642 123.587 241.139H121.587ZM224.479 281H223.479V282H224.479V281ZM244.941 281V282H245.941V281H244.941ZM244.941 251.237V250.237H243.941V251.237H244.941ZM261.018 251.237L261.849 250.681L261.552 250.237H261.018V251.237ZM280.949 281L280.118 281.556L280.415 282H280.949V281ZM304.865 281V282H306.761L305.69 280.435L304.865 281ZM282.144 247.783L281.797 246.845L280.596 247.29L281.319 248.347L282.144 247.783ZM224.479 187.991V186.991H223.479V187.991H224.479ZM244.941 233.167H243.941V234.167H244.941V233.167ZM244.941 206.46V205.46H243.941V206.46H244.941ZM224.479 282H244.941V280H224.479V282ZM245.941 281V251.237H243.941V281H245.941ZM244.941 252.237H261.018V250.237H244.941V252.237ZM260.187 251.794L280.118 281.556L281.779 280.444L261.849 250.681L260.187 251.794ZM280.949 282H304.865V280H280.949V282ZM305.69 280.435L282.97 247.218L281.319 248.347L304.04 281.565L305.69 280.435ZM282.492 248.72C288.554 246.472 293.711 242.912 297.351 237.943C300.995 232.97 303.075 226.645 303.075 218.95H301.075C301.075 226.269 299.102 232.168 295.737 236.761C292.369 241.36 287.56 244.708 281.797 246.845L282.492 248.72ZM303.075 218.95V218.684H301.075V218.95H303.075ZM303.075 218.684C303.075 209.698 300.211 202.119 294.81 196.718L293.396 198.132C298.358 203.095 301.075 210.131 301.075 218.684H303.075ZM294.81 196.718C288.458 190.366 279.004 186.991 266.997 186.991V188.991C278.641 188.991 287.523 192.26 293.396 198.132L294.81 196.718ZM266.997 186.991H224.479V188.991H266.997V186.991ZM223.479 187.991V281H225.479V187.991H223.479ZM245.941 233.167V206.46H243.941V233.167H245.941ZM244.941 207.46H265.27V205.46H244.941V207.46ZM265.27 207.46C270.119 207.46 273.885 208.562 276.42 210.595C278.92 212.601 280.347 215.615 280.347 219.747H282.347C282.347 215.109 280.718 211.48 277.671 209.035C274.658 206.618 270.386 205.46 265.27 205.46V207.46ZM280.347 219.747V220.013H282.347V219.747H280.347ZM280.347 220.013C280.347 223.674 279.022 226.674 276.591 228.773C274.145 230.884 270.481 232.167 265.669 232.167V234.167C270.822 234.167 274.996 232.792 277.898 230.287C280.816 227.768 282.347 224.191 282.347 220.013H280.347ZM265.669 232.167H244.941V234.167H265.669V232.167ZM398.068 225.328L398.32 224.36L398.316 224.359L398.068 225.328ZM414.145 213.901L413.575 214.723L414.399 215.294L414.968 214.469L414.145 213.901ZM424.775 198.488L425.598 199.056L426.126 198.29L425.401 197.708L424.775 198.488ZM388.501 243.398L388.75 242.429L388.749 242.429L388.501 243.398ZM366.046 252.965L366.683 252.193L365.916 251.56L365.279 252.324L366.046 252.965ZM353.955 267.447L353.188 266.806L352.568 267.549L353.289 268.193L353.955 267.447ZM393.417 283.329C403.61 283.329 412.391 280.697 418.646 275.614C424.925 270.511 428.565 263.009 428.565 253.496H426.565C426.565 262.452 423.163 269.366 417.384 274.062C411.581 278.779 403.288 281.329 393.417 281.329V283.329ZM428.565 253.496V253.23H426.565V253.496H428.565ZM428.565 253.23C428.565 244.867 425.805 238.832 420.546 234.287C415.348 229.796 407.786 226.827 398.32 224.36L397.816 226.295C407.217 228.745 414.403 231.622 419.238 235.8C424.011 239.925 426.565 245.383 426.565 253.23H428.565ZM398.316 224.359C390.243 222.291 385.376 220.793 382.516 219.102C381.115 218.274 380.264 217.436 379.75 216.523C379.236 215.609 379.005 214.524 379.005 213.104H377.005C377.005 214.74 377.271 216.196 378.007 217.503C378.743 218.811 379.894 219.875 381.498 220.824C384.651 222.687 389.816 224.246 397.82 226.296L398.316 224.359ZM379.005 213.104V212.838H377.005V213.104H379.005ZM379.005 212.838C379.005 210.916 379.867 209.183 381.632 207.9C383.421 206.599 386.183 205.733 389.963 205.733V203.733C385.903 203.733 382.686 204.66 380.456 206.283C378.201 207.922 377.005 210.243 377.005 212.838H379.005ZM389.963 205.733C397.512 205.733 405.416 209.064 413.575 214.723L414.715 213.079C406.398 207.311 398.092 203.733 389.963 203.733V205.733ZM414.968 214.469L425.598 199.056L423.951 197.92L413.322 213.333L414.968 214.469ZM425.401 197.708C415.786 189.99 404.005 185.663 390.229 185.663V187.663C403.557 187.663 414.895 191.839 424.149 199.268L425.401 197.708ZM390.229 185.663C380.538 185.663 372.156 188.51 366.179 193.591C360.189 198.683 356.676 205.972 356.676 214.698H358.676C358.676 206.549 361.939 199.821 367.475 195.114C373.024 190.396 380.919 187.663 390.229 187.663V185.663ZM356.676 214.698V214.964H358.676V214.698H356.676ZM356.676 214.964C356.676 224.461 359.807 230.683 365.446 235.1C370.996 239.447 378.897 241.978 388.254 244.367L388.749 242.429C379.371 240.035 371.859 237.583 366.68 233.526C361.59 229.539 358.676 223.935 358.676 214.964H356.676ZM388.253 244.367C396.035 246.362 400.564 247.99 403.147 249.697C404.414 250.534 405.163 251.359 405.608 252.212C406.053 253.066 406.236 254.031 406.236 255.223H408.236C408.236 253.825 408.02 252.514 407.382 251.288C406.742 250.061 405.722 249.001 404.249 248.028C401.352 246.114 396.513 244.42 388.75 242.429L388.253 244.367ZM406.236 255.223V255.489H408.236V255.223H406.236ZM406.236 255.489C406.236 257.852 405.164 259.74 403.117 261.08C401.029 262.447 397.889 263.258 393.816 263.258V265.258C398.114 265.258 401.684 264.409 404.213 262.753C406.784 261.07 408.236 258.573 408.236 255.489H406.236ZM393.816 263.258C383.497 263.258 374.946 259.014 366.683 252.193L365.41 253.736C373.888 260.734 382.876 265.258 393.816 265.258V263.258ZM365.279 252.324L353.188 266.806L354.723 268.088L366.814 253.605L365.279 252.324ZM353.289 268.193C364.645 278.332 379.104 283.329 393.417 283.329V281.329C379.563 281.329 365.587 276.493 354.621 266.701L353.289 268.193ZM465.034 281H464.034V282H465.034V281ZM485.496 281V282H486.496V281H485.496ZM485.496 206.859V205.859H484.496V206.859H485.496ZM513.797 206.859V207.859H514.797V206.859H513.797ZM513.797 187.991H514.797V186.991H513.797V187.991ZM436.733 187.991V186.991H435.733V187.991H436.733ZM436.733 206.859H435.733V207.859H436.733V206.859ZM465.034 206.859H466.034V205.859H465.034V206.859ZM465.034 282H485.496V280H465.034V282ZM486.496 281V206.859H484.496V281H486.496ZM485.496 207.859H513.797V205.859H485.496V207.859ZM514.797 206.859V187.991H512.797V206.859H514.797ZM513.797 186.991H436.733V188.991H513.797V186.991ZM435.733 187.991V206.859H437.733V187.991H435.733ZM436.733 207.859H465.034V205.859H436.733V207.859ZM464.034 206.859V281H466.034V206.859H464.034ZM570.687 283.594C599.93 283.594 621.248 261.498 621.248 234.496H619.248C619.248 260.375 598.844 281.594 570.687 281.594V283.594ZM621.248 234.496V234.23H619.248V234.496H621.248ZM621.248 234.23C621.248 207.228 600.196 185.397 570.953 185.397V187.397C599.11 187.397 619.248 208.35 619.248 234.23H621.248ZM570.953 185.397C541.71 185.397 520.393 207.493 520.393 234.496H522.393C522.393 208.616 542.796 187.397 570.953 187.397V185.397ZM520.393 234.496V234.761H522.393V234.496H520.393ZM520.393 234.761C520.393 261.764 541.444 283.594 570.687 283.594V281.594C542.531 281.594 522.393 260.641 522.393 234.761H520.393ZM570.953 262.727C555.089 262.727 543.785 249.949 543.785 234.496H541.785C541.785 250.931 553.865 264.727 570.953 264.727V262.727ZM543.785 234.496V234.23H541.785V234.496H543.785ZM543.785 234.23C543.785 218.775 554.824 206.264 570.687 206.264V204.264C553.599 204.264 541.785 217.796 541.785 234.23H543.785ZM570.687 206.264C586.551 206.264 597.856 219.042 597.856 234.496H599.856C599.856 218.061 587.775 204.264 570.687 204.264V206.264ZM597.856 234.496V234.761H599.856V234.496H597.856ZM597.856 234.761C597.856 250.216 586.816 262.727 570.953 262.727V264.727C588.042 264.727 599.856 251.195 599.856 234.761H597.856ZM638.399 281H637.399V282H638.399V281ZM658.861 281V282H659.861V281H658.861ZM658.861 251.237V250.237H657.861V251.237H658.861ZM674.938 251.237L675.769 250.681L675.472 250.237H674.938V251.237ZM694.868 281L694.037 281.556L694.335 282H694.868V281ZM718.785 281V282H720.68L719.61 280.435L718.785 281ZM696.064 247.783L695.717 246.845L694.516 247.29L695.239 248.347L696.064 247.783ZM638.399 187.991V186.991H637.399V187.991H638.399ZM658.861 233.167H657.861V234.167H658.861V233.167ZM658.861 206.46V205.46H657.861V206.46H658.861ZM638.399 282H658.861V280H638.399V282ZM659.861 281V251.237H657.861V281H659.861ZM658.861 252.237H674.938V250.237H658.861V252.237ZM674.107 251.794L694.037 281.556L695.699 280.444L675.769 250.681L674.107 251.794ZM694.868 282H718.785V280H694.868V282ZM719.61 280.435L696.89 247.218L695.239 248.347L717.96 281.565L719.61 280.435ZM696.412 248.72C702.474 246.472 707.631 242.912 711.271 237.943C714.915 232.97 716.995 226.645 716.995 218.95H714.995C714.995 226.269 713.022 232.168 709.657 236.761C706.288 241.36 701.48 244.708 695.717 246.845L696.412 248.72ZM716.995 218.95V218.684H714.995V218.95H716.995ZM716.995 218.684C716.995 209.698 714.131 202.119 708.73 196.718L707.315 198.132C712.278 203.095 714.995 210.131 714.995 218.684H716.995ZM708.73 196.718C702.378 190.366 692.924 186.991 680.917 186.991V188.991C692.561 188.991 701.443 192.26 707.315 198.132L708.73 196.718ZM680.917 186.991H638.399V188.991H680.917V186.991ZM637.399 187.991V281H639.399V187.991H637.399ZM659.861 233.167V206.46H657.861V233.167H659.861ZM658.861 207.46H679.19V205.46H658.861V207.46ZM679.19 207.46C684.039 207.46 687.805 208.562 690.34 210.595C692.84 212.601 694.267 215.615 694.267 219.747H696.267C696.267 215.109 694.638 211.48 691.591 209.035C688.578 206.618 684.306 205.46 679.19 205.46V207.46ZM694.267 219.747V220.013H696.267V219.747H694.267ZM694.267 220.013C694.267 223.674 692.942 226.674 690.511 228.773C688.065 230.884 684.4 232.167 679.588 232.167V234.167C684.742 234.167 688.916 232.792 691.818 230.287C694.736 227.768 696.267 224.191 696.267 220.013H694.267ZM679.588 232.167H658.861V234.167H679.588V232.167ZM757.22 281H756.22V282H757.22V281ZM777.681 281V282H778.681V281H777.681ZM777.681 243.929L776.839 243.391L776.681 243.637V243.929H777.681ZM813.423 187.991L814.266 188.53L815.249 186.991H813.423V187.991ZM790.171 187.991V186.991H789.607L789.316 187.474L790.171 187.991ZM767.583 225.328L766.724 225.839L767.576 227.272L768.439 225.845L767.583 225.328ZM745.394 187.991L746.254 187.48L745.963 186.991H745.394V187.991ZM721.478 187.991V186.991H719.659L720.633 188.527L721.478 187.991ZM757.22 244.328H758.22V244.038L758.064 243.792L757.22 244.328ZM757.22 282H777.681V280H757.22V282ZM778.681 281V243.929H776.681V281H778.681ZM778.524 244.468L814.266 188.53L812.581 187.453L776.839 243.391L778.524 244.468ZM813.423 186.991H790.171V188.991H813.423V186.991ZM789.316 187.474L766.728 224.81L768.439 225.845L791.027 188.509L789.316 187.474ZM768.443 224.817L746.254 187.48L744.534 188.502L766.724 225.839L768.443 224.817ZM745.394 186.991H721.478V188.991H745.394V186.991ZM720.633 188.527L756.375 244.864L758.064 243.792L722.322 187.456L720.633 188.527ZM756.22 244.328V281H758.22V244.328H756.22Z" fill="#F4CB00" fill-opacity="0.2"/>
</g>
<g clip-path="url(#clip1_746_1512)">
<g opacity="0.5">
<g opacity="0.8">
<path d="M499.668 1068.25L753.656 1102.97L1072.32 1161.37L1234.81 1162.95L1439.9 1110.86L1441.47 1112.44L1439.9 1110.86L1577.15 957.759L1493.53 771.508L1621.32 626.295L1605.54 441.622L1536.13 271.155L1400.46 238.009L1228.5 209.598V208.019L1138.58 170.138L971.36 304.302L972.938 474.769L813.604 555.267H812.026H813.604V662.598L671.623 720.999L594.322 698.901L472.85 817.281L341.912 834.644L321.403 946.71L181 1027.21L499.668 1068.25ZM474.427 817.281L594.322 698.901L643.227 848.849L498.091 904.093L474.427 817.281ZM1222.19 408.476L976.093 473.19L1228.5 211.176L1222.19 408.476ZM1222.19 410.054L1353.13 346.918L1387.84 425.838L1337.36 504.758C1313.69 506.337 1124.38 493.709 1105.45 492.131L1222.19 410.054ZM1387.84 427.417L1542.44 408.476L1368.91 593.148L1338.93 504.758L1387.84 427.417ZM1491.96 768.351L1381.53 754.145L1368.91 594.727L1542.44 410.054L1491.96 768.351ZM1072.32 1159.79L816.759 1054.04L968.205 1022.47L1170.13 1013L1072.32 1159.79ZM876.706 880.417L873.551 730.469L995.024 864.633L876.706 880.417ZM875.129 881.995L993.446 866.211L966.627 1020.89L712.639 905.671L875.129 881.995ZM711.062 905.671L646.382 852.006L871.974 881.995L711.062 905.671ZM1335.78 506.337L1228.5 591.57L1069.17 626.295L1103.88 493.709C1114.92 493.709 1305.8 507.915 1335.78 506.337ZM1367.33 594.727L1381.53 754.145L1230.08 591.57L1337.36 506.337L1367.33 594.727ZM1160.67 932.504L996.601 866.211L1146.47 809.389L1288.45 891.466L1160.67 932.504ZM1146.47 807.811L1228.5 593.148L1288.45 889.887L1146.47 807.811ZM1069.17 627.873L1228.5 593.148L1144.89 809.389L995.024 866.211L1069.17 627.873ZM968.205 1020.89L995.024 866.211L1160.67 934.083L1170.13 1011.42L968.205 1020.89ZM1288.45 891.466L1438.32 1109.28L1162.25 934.083L1288.45 891.466ZM1230.08 593.148L1381.53 755.724L1290.03 888.309L1230.08 593.148ZM1067.59 626.295L815.181 555.267L1102.3 493.709L1067.59 626.295ZM995.024 864.633L873.551 728.891L1067.59 627.873L995.024 864.633ZM871.974 730.469L875.129 880.417L646.382 850.427L871.974 730.469ZM499.668 907.25L643.227 852.006L501.246 1065.09L499.668 907.25ZM501.246 1066.67L644.804 852.006L711.062 905.671L755.234 1101.39L501.246 1066.67ZM711.062 907.25L965.05 1022.47L813.604 1054.04L755.234 1101.39L711.062 907.25ZM815.181 1055.62L1067.59 1159.79L756.811 1101.39L815.181 1055.62ZM1073.9 1159.79L1171.71 1013L1234.81 1161.37L1073.9 1159.79ZM1234.81 1161.37L1171.71 1011.42L1162.25 934.083L1439.9 1109.28L1234.81 1161.37ZM1290.03 891.466L1575.57 956.18L1439.9 1109.28L1290.03 891.466ZM1575.57 954.602L1290.03 889.887L1383.1 755.724L1493.53 769.929L1575.57 954.602ZM1619.74 623.138L1493.53 766.772L1544.02 406.897L1605.54 438.465L1619.74 623.138ZM1544.02 406.897L1537.71 271.155L1605.54 436.887L1544.02 406.897ZM1400.46 236.43L1536.13 269.577L1542.44 406.897L1387.84 425.838L1353.13 346.918L1400.46 236.43ZM1400.46 236.43L1353.13 345.34L1223.77 408.476L1230.08 211.176L1400.46 236.43ZM972.938 304.302L1138.58 173.294L1226.93 211.176L974.515 473.19L972.938 304.302ZM972.938 474.769L1219.04 410.054L1103.88 492.131L818.336 553.689L972.938 474.769ZM813.604 556.845L1066.01 627.873L871.974 730.469L815.181 664.176L813.604 556.845ZM671.623 722.577L813.604 664.176L870.396 728.891L644.804 850.427L671.623 722.577ZM644.804 848.849L597.477 700.48L673.2 722.577L644.804 848.849ZM343.489 834.644L474.427 817.281L498.091 905.671L322.981 945.131L343.489 834.644ZM322.981 946.71L498.091 907.25L499.668 1066.67L185.733 1025.63L322.981 946.71Z" fill="#D1D3D4"/>
<path d="M591.167 698.9C591.167 697.322 592.744 694.165 595.899 694.165C597.477 694.165 600.632 695.743 600.632 698.9C600.632 700.479 599.055 703.635 595.899 703.635C592.744 703.635 591.167 702.057 591.167 698.9Z" fill="#F540A8"/>
<path d="M638.494 850.427C638.494 847.27 641.649 845.691 644.804 845.691C647.959 845.691 649.537 848.848 649.537 852.005C649.537 855.162 646.381 856.74 643.226 856.74C641.649 856.74 638.494 853.583 638.494 850.427Z" fill="#4EEADC"/>
<path d="M494.935 905.671C494.935 904.092 496.513 900.936 499.668 900.936C501.246 900.936 504.401 902.514 504.401 905.671C504.401 907.249 502.823 910.406 499.668 910.406C496.513 910.406 494.935 908.828 494.935 905.671Z" fill="#0A8C9F"/>
<path d="M471.272 818.859C471.272 817.281 472.85 814.124 476.005 814.124C477.582 814.124 480.737 815.702 480.737 818.859C480.737 820.438 479.16 823.594 476.005 823.594C472.85 822.016 471.272 820.438 471.272 818.859Z" fill="#F7D05E"/>
<path d="M318.248 945.131C318.248 943.552 319.826 940.396 322.981 940.396C324.558 940.396 327.713 941.974 327.713 945.131C327.713 946.709 326.136 949.866 322.981 949.866C319.826 949.866 318.248 948.287 318.248 945.131Z" fill="#F540A8"/>
<path d="M337.179 834.642C337.179 831.486 340.334 829.907 343.489 829.907C346.644 829.907 348.222 833.064 348.222 836.221C348.222 839.378 345.067 840.956 341.911 840.956C340.334 840.956 337.179 837.799 337.179 834.642Z" fill="#F56138"/>
<path d="M706.329 905.671C706.329 904.092 707.907 900.936 711.062 900.936C712.639 900.936 715.795 902.514 715.795 905.671C715.795 907.249 714.217 910.406 711.062 910.406C707.907 910.406 706.329 907.249 706.329 905.671Z" fill="#F56138"/>
<path d="M868.818 881.995C868.818 878.838 871.973 877.26 875.128 877.26C878.284 877.26 879.861 880.417 879.861 883.573C879.861 886.73 876.706 888.309 873.551 888.309C871.973 886.73 868.818 885.152 868.818 881.995Z" fill="#F7D05E"/>
<path d="M867.24 728.89C867.24 727.312 868.818 724.155 871.973 724.155C873.551 724.155 876.706 725.734 876.706 728.89C876.706 730.469 875.128 733.626 871.973 733.626C868.818 733.626 867.24 732.047 867.24 728.89Z" fill="#0A8C9F"/>
<path d="M810.448 662.597C810.448 661.019 812.026 657.862 815.181 657.862C816.758 657.862 819.914 659.441 819.914 662.597C819.914 664.176 818.336 667.333 815.181 667.333C812.026 667.333 810.448 665.754 810.448 662.597Z" fill="#F7D05E"/>
<path d="M808.871 555.266C808.871 552.11 812.026 550.531 815.181 550.531C818.336 550.531 819.914 553.688 819.914 556.845C819.914 560.002 816.759 561.58 813.603 561.58C810.448 560.002 808.871 558.423 808.871 555.266Z" fill="#F56138"/>
<path d="M1062.86 626.294C1062.86 624.715 1064.44 621.559 1067.59 621.559C1069.17 621.559 1072.32 623.137 1072.32 626.294C1072.32 627.872 1070.75 631.029 1067.59 631.029C1064.44 631.029 1062.86 629.451 1062.86 626.294Z" fill="#F56138"/>
<path d="M969.782 473.19C969.782 471.612 971.36 468.455 974.515 468.455C976.093 468.455 979.248 470.033 979.248 473.19C979.248 474.769 977.67 477.925 974.515 477.925C971.36 477.925 969.782 476.347 969.782 473.19Z" fill="#F540A8"/>
<path d="M1215.88 408.475C1215.88 405.319 1219.04 403.74 1222.19 403.74C1225.35 403.74 1226.93 406.897 1226.93 410.054C1226.93 413.211 1223.77 414.789 1220.62 414.789C1217.46 414.789 1215.88 411.632 1215.88 408.475Z" fill="#4EEADC"/>
<path d="M1223.77 211.175C1223.77 209.596 1225.35 206.439 1228.5 206.439C1230.08 206.439 1233.24 208.018 1233.24 211.175C1233.24 212.753 1231.66 215.91 1228.5 215.91C1225.35 214.331 1223.77 212.753 1223.77 211.175Z" fill="#0A8C9F"/>
<path d="M1133.85 173.294C1133.85 170.137 1135.43 168.559 1138.58 168.559C1140.16 168.559 1143.31 170.137 1143.31 173.294C1143.31 174.872 1141.74 178.029 1138.58 178.029C1135.43 176.451 1133.85 174.872 1133.85 173.294Z" fill="#0A8C9F"/>
<path d="M966.627 304.302C966.627 301.145 969.782 299.566 972.937 299.566C976.092 299.566 977.67 302.723 977.67 305.88C977.67 309.037 974.515 310.615 971.36 310.615C969.782 309.037 966.627 305.88 966.627 304.302Z" fill="#F56138"/>
<path d="M1099.14 492.131C1099.14 490.552 1100.72 487.396 1103.88 487.396C1105.45 487.396 1108.61 488.974 1108.61 492.131C1108.61 493.709 1107.03 496.866 1103.88 496.866C1100.72 496.866 1099.14 495.287 1099.14 492.131Z" fill="#F7D05E"/>
<path d="M990.291 864.633C990.291 863.054 991.869 859.897 995.024 859.897C996.601 859.897 999.756 861.476 999.756 864.633C999.756 866.211 998.179 869.368 995.024 869.368C991.869 869.368 990.291 867.789 990.291 864.633Z" fill="#F540A8"/>
<path d="M963.472 1020.89C963.472 1019.31 965.05 1016.16 968.205 1016.16C969.782 1016.16 972.938 1017.74 972.938 1020.89C972.938 1022.47 971.36 1025.63 968.205 1025.63C965.05 1025.63 963.472 1024.05 963.472 1020.89Z" fill="#4EEADC"/>
<path d="M1165.4 1011.42C1165.4 1009.85 1166.98 1006.69 1170.13 1006.69C1171.71 1006.69 1174.87 1008.27 1174.87 1011.42C1174.87 1013 1173.29 1016.16 1170.13 1016.16C1166.98 1016.16 1165.4 1014.58 1165.4 1011.42Z" fill="#0A8C9F"/>
<path d="M1155.94 932.503C1155.94 929.346 1159.09 927.768 1162.25 927.768C1165.4 927.768 1166.98 930.924 1166.98 934.081C1166.98 937.238 1163.82 938.816 1160.67 938.816C1157.51 938.816 1154.36 935.66 1155.94 932.503Z" fill="#4EEADC"/>
<path d="M1285.3 889.887C1285.3 888.308 1286.87 885.151 1290.03 885.151C1291.61 885.151 1294.76 886.73 1294.76 889.887C1294.76 891.465 1293.18 894.622 1290.03 894.622C1286.87 894.622 1285.3 893.043 1285.3 889.887Z" fill="#F540A8"/>
<path d="M1140.16 807.81C1140.16 804.654 1143.31 803.075 1146.47 803.075C1149.62 803.075 1151.2 806.232 1151.2 809.389C1151.2 812.546 1148.05 814.124 1144.89 814.124C1141.74 812.546 1140.16 810.967 1140.16 807.81Z" fill="#F7D05E"/>
<path d="M1223.77 591.569C1223.77 588.412 1226.93 586.834 1230.08 586.834C1233.24 586.834 1234.81 589.991 1234.81 593.148C1234.81 596.304 1231.66 597.883 1228.5 597.883C1225.35 596.304 1222.19 594.726 1223.77 591.569Z" fill="#F540A8"/>
<path d="M1376.79 755.722C1376.79 752.566 1379.95 750.987 1383.1 750.987C1386.26 750.987 1387.84 754.144 1387.84 757.301C1387.84 760.458 1384.68 762.036 1381.53 762.036C1378.37 760.458 1376.79 758.879 1376.79 755.722Z" fill="#4EEADC"/>
<path d="M1364.17 593.147C1364.17 591.569 1365.75 588.412 1368.91 588.412C1370.48 588.412 1373.64 589.99 1373.64 593.147C1373.64 594.726 1372.06 597.883 1368.91 597.883C1365.75 597.883 1364.17 596.304 1364.17 593.147Z" fill="#4EEADC"/>
<path d="M1332.62 506.337C1332.62 504.758 1334.2 501.602 1337.36 501.602C1338.93 501.602 1342.09 503.18 1342.09 506.337C1342.09 507.915 1340.51 511.072 1337.36 511.072C1334.2 509.494 1332.62 507.915 1332.62 506.337Z" fill="#0A8C9F"/>
<path d="M1383.1 425.838C1383.1 424.259 1384.68 421.103 1387.84 421.103C1389.41 421.103 1392.57 422.681 1392.57 425.838C1392.57 427.416 1390.99 430.573 1387.84 430.573C1384.68 430.573 1383.1 427.416 1383.1 425.838Z" fill="#F56138"/>
<path d="M1348.4 345.34C1348.4 343.761 1349.98 340.604 1353.13 340.604C1354.71 340.604 1357.86 342.183 1357.86 345.34C1357.86 346.918 1356.29 350.075 1353.13 350.075C1349.98 350.075 1348.4 348.496 1348.4 345.34Z" fill="#F7D05E"/>
</g>
<g opacity="0.4">
<path d="M264.611 1044.57H357.688L561.193 1065.09L621.141 1019.32L703.174 1033.52L845.155 1077.72L972.938 1112.44L1028.15 1174L1162.25 1137.7L1244.28 1046.15L1348.4 1033.52L1454.1 919.877L1444.63 804.654L1577.15 739.94L1596.08 566.316L1484.07 301.145L1439.9 201.706L1250.59 222.225L1174.87 201.706L1129.12 215.912L794.673 373.751H793.095H794.673L862.508 582.1L668.468 585.257L676.356 738.362L457.074 733.626L395.549 741.518L406.592 881.996L256.723 894.623L201.509 957.759L264.611 1044.57ZM562.771 1065.09L360.843 1044.57L490.203 1006.69L523.332 902.515L636.917 891.466L622.718 1019.32L562.771 1065.09ZM864.086 585.257L988.713 481.083L979.248 670.49L876.706 788.87L864.086 585.257ZM1413.08 451.093V619.982L1285.3 719.421L1250.59 553.689L1321.58 406.898L1413.08 451.093ZM1102.3 1065.09L1095.99 954.602L1182.75 941.975L1244.28 1046.15L1163.82 1137.7L1102.3 1065.09ZM982.403 941.975L1094.41 954.602L1100.72 1065.09L821.492 971.965L982.403 941.975ZM1182.75 940.397L1094.41 953.024L982.403 940.397L988.713 875.682L1067.59 769.93L1304.23 855.163L1182.75 940.397ZM1249.01 553.689L1094.41 631.03L977.671 670.49L987.136 481.083L1249.01 553.689ZM979.248 670.49L1094.41 631.03L1067.59 768.351L988.713 874.104L875.129 787.292L979.248 670.49ZM1067.59 769.93L1094.41 631.03L1249.01 553.689L1283.72 719.421L1302.65 855.163L1067.59 769.93ZM1250.59 553.689L990.291 481.083L1148.05 421.103L1321.58 408.476L1250.59 553.689ZM988.713 479.504L797.828 376.908L1146.47 419.525L988.713 479.504ZM875.129 790.449L988.713 877.261L982.403 941.975L823.069 971.965L739.458 799.919L875.129 790.449ZM739.458 799.919L821.492 970.386L703.174 1033.52L621.141 1019.32L635.339 891.466L739.458 799.919ZM704.752 1033.52L823.069 971.965L1102.3 1065.09L976.093 1110.86L848.31 1076.14L704.752 1033.52ZM974.515 1110.86L1102.3 1065.09L1163.82 1137.7L1029.73 1172.42L974.515 1110.86ZM1455.67 919.877L1349.98 1031.94L1245.86 1046.15L1184.33 941.975L1304.23 856.741L1444.63 806.233L1455.67 919.877ZM1444.63 804.654L1304.23 855.163L1285.3 719.421L1413.08 619.982L1577.15 741.518L1444.63 804.654ZM1596.08 567.895L1577.15 741.518L1413.08 619.982V451.093L1484.07 304.302L1596.08 567.895ZM1484.07 302.724L1413.08 449.515L1321.58 405.319L1252.17 223.804L1441.47 203.284L1484.07 302.724ZM1250.59 223.804L1320 405.319L1146.47 417.947L1173.29 201.706L1250.59 223.804ZM1130.69 219.068L1174.87 204.863L1148.05 421.103L797.828 378.487L1130.69 219.068ZM796.251 376.908L988.713 479.504L864.086 583.679L796.251 376.908ZM864.086 585.257L875.129 790.449L670.045 589.992L864.086 585.257ZM670.045 588.414L875.129 788.87L739.458 799.919L677.933 741.518L670.045 588.414ZM677.933 741.518L739.458 799.919L636.917 889.888L397.127 741.518L457.074 733.626L677.933 741.518ZM397.127 741.518L636.917 889.888L523.332 900.937L408.17 881.996L397.127 741.518ZM256.723 894.623L406.592 883.574L520.177 902.515L488.625 1005.11L359.265 1042.99L266.189 1044.57L203.086 957.759L256.723 894.623Z" fill="#BCBEC0"/>
<path opacity="0.7" d="M392.394 741.519C392.394 739.941 393.972 738.362 395.549 738.362C397.127 738.362 398.704 739.941 398.704 741.519C398.704 743.098 397.127 744.676 395.549 744.676C393.972 744.676 392.394 743.098 392.394 741.519Z" fill="#F56138"/>
<path opacity="0.7" d="M408.17 886.732C409.912 886.732 411.325 885.318 411.325 883.575C411.325 881.831 409.912 880.418 408.17 880.418C406.427 880.418 405.015 881.831 405.015 883.575C405.015 885.318 406.427 886.732 408.17 886.732Z" fill="#F7D05E"/>
<path opacity="0.7" d="M198.354 956.18C198.354 954.602 199.931 953.023 201.509 953.023C203.086 953.023 204.664 954.602 204.664 956.18C204.664 957.759 203.086 959.337 201.509 959.337C199.931 960.915 198.354 959.337 198.354 956.18Z" fill="#0A8C9F"/>
<path opacity="0.7" d="M521.754 905.672C523.497 905.672 524.91 904.259 524.91 902.515C524.91 900.772 523.497 899.358 521.754 899.358C520.012 899.358 518.599 900.772 518.599 902.515C518.599 904.259 520.012 905.672 521.754 905.672Z" fill="#F540A8"/>
<path opacity="0.7" d="M633.761 889.889C633.761 888.311 635.339 886.732 636.917 886.732C638.494 886.732 640.072 888.311 640.072 889.889C640.072 891.468 638.494 893.046 636.917 893.046C635.339 893.046 633.761 891.468 633.761 889.889Z" fill="#F7D05E"/>
<path opacity="0.7" d="M739.458 803.076C741.201 803.076 742.613 801.663 742.613 799.92C742.613 798.176 741.201 796.763 739.458 796.763C737.716 796.763 736.303 798.176 736.303 799.92C736.303 801.663 737.716 803.076 739.458 803.076Z" fill="#F7D05E"/>
<path opacity="0.7" d="M677.933 744.676C679.676 744.676 681.088 743.263 681.088 741.519C681.088 739.776 679.676 738.362 677.933 738.362C676.191 738.362 674.778 739.776 674.778 741.519C674.778 743.263 676.191 744.676 677.933 744.676Z" fill="#0A8C9F"/>
<path opacity="0.7" d="M666.89 588.415C666.89 586.836 668.468 585.258 670.046 585.258C671.623 585.258 673.201 586.836 673.201 588.415C673.201 589.993 671.623 591.571 670.046 591.571C668.468 591.571 666.89 589.993 666.89 588.415Z" fill="#4EEADC"/>
<path opacity="0.7" d="M864.086 588.414C865.828 588.414 867.241 587.001 867.241 585.257C867.241 583.514 865.828 582.101 864.086 582.101C862.343 582.101 860.931 583.514 860.931 585.257C860.931 587.001 862.343 588.414 864.086 588.414Z" fill="#4EEADC"/>
<path opacity="0.7" d="M796.251 380.066C797.993 380.066 799.406 378.652 799.406 376.909C799.406 375.165 797.993 373.752 796.251 373.752C794.508 373.752 793.095 375.165 793.095 376.909C793.095 378.652 794.508 380.066 796.251 380.066Z" fill="#0A8C9F"/>
<path opacity="0.7" d="M1143.32 419.526C1143.32 417.948 1144.89 416.369 1146.47 416.369C1148.05 416.369 1149.63 417.948 1149.63 419.526C1149.63 421.104 1148.05 422.683 1146.47 422.683C1144.89 422.683 1143.32 421.104 1143.32 419.526Z" fill="#0A8C9F"/>
<path opacity="0.7" d="M988.714 482.661C990.456 482.661 991.869 481.248 991.869 479.504C991.869 477.761 990.456 476.348 988.714 476.348C986.971 476.348 985.559 477.761 985.559 479.504C985.559 481.248 986.971 482.661 988.714 482.661Z" fill="#F56138"/>
<path opacity="0.7" d="M1247.43 553.689C1247.43 552.111 1249.01 550.532 1250.59 550.532C1252.17 550.532 1253.74 552.111 1253.74 553.689C1253.74 555.267 1252.17 556.846 1250.59 556.846C1249.01 556.846 1247.43 555.267 1247.43 553.689Z" fill="#4EEADC"/>
<path opacity="0.7" d="M1091.26 631.031C1091.26 629.452 1092.83 627.874 1094.41 627.874C1095.99 627.874 1097.57 629.452 1097.57 631.031C1097.57 632.609 1095.99 634.188 1094.41 634.188C1092.83 634.188 1091.26 634.188 1091.26 631.031Z" fill="#F540A8"/>
<path opacity="0.7" d="M974.516 670.491C974.516 668.912 976.093 667.334 977.671 667.334C979.248 667.334 980.826 668.912 980.826 670.491C980.826 672.069 979.248 673.648 977.671 673.648C976.093 673.648 974.516 672.069 974.516 670.491Z" fill="#F7D05E"/>
<path opacity="0.7" d="M871.974 790.449C871.974 788.87 873.551 787.292 875.129 787.292C876.706 787.292 878.284 788.87 878.284 790.449C878.284 792.027 876.706 793.606 875.129 793.606C873.551 793.606 871.974 792.027 871.974 790.449Z" fill="#0A8C9F"/>
<path opacity="0.7" d="M818.336 970.386C818.336 968.808 819.914 967.229 821.492 967.229C823.069 967.229 824.647 968.808 824.647 970.386C824.647 971.965 823.069 973.543 821.492 973.543C819.914 973.543 818.336 971.965 818.336 970.386Z" fill="#4EEADC"/>
<path opacity="0.7" d="M979.248 941.976C979.248 940.398 980.826 938.819 982.403 938.819C983.981 938.819 985.558 940.398 985.558 941.976C985.558 943.555 983.981 945.133 982.403 945.133C979.248 945.133 979.248 943.555 979.248 941.976Z" fill="#F540A8"/>
<path opacity="0.7" d="M988.714 880.418C990.456 880.418 991.869 879.005 991.869 877.261C991.869 875.518 990.456 874.104 988.714 874.104C986.971 874.104 985.559 875.518 985.559 877.261C985.559 879.005 986.971 880.418 988.714 880.418Z" fill="#4EEADC"/>
<path opacity="0.7" d="M1064.44 769.93C1064.44 768.352 1066.01 766.773 1067.59 766.773C1069.17 766.773 1070.75 768.352 1070.75 769.93C1070.75 771.509 1069.17 773.087 1067.59 773.087C1066.01 773.087 1064.44 771.509 1064.44 769.93Z" fill="#F7D05E"/>
<path opacity="0.7" d="M1301.07 855.164C1301.07 853.585 1302.65 852.007 1304.23 852.007C1305.8 852.007 1307.38 853.585 1307.38 855.164C1307.38 856.742 1305.8 858.32 1304.23 858.32C1302.65 858.32 1301.07 856.742 1301.07 855.164Z" fill="#F56138"/>
<path opacity="0.7" d="M1182.75 945.133C1184.5 945.133 1185.91 943.72 1185.91 941.976C1185.91 940.233 1184.5 938.819 1182.75 938.819C1181.01 938.819 1179.6 940.233 1179.6 941.976C1179.6 943.72 1181.01 945.133 1182.75 945.133Z" fill="#0A8C9F"/>
<path opacity="0.7" d="M1094.41 956.182C1096.15 956.182 1097.57 954.768 1097.57 953.025C1097.57 951.282 1096.15 949.868 1094.41 949.868C1092.67 949.868 1091.26 951.282 1091.26 953.025C1091.26 954.768 1092.67 956.182 1094.41 956.182Z" fill="#F7D05E"/>
<path opacity="0.7" d="M1282.14 719.421C1282.14 717.843 1283.72 716.265 1285.3 716.265C1286.87 716.265 1288.45 717.843 1288.45 719.421C1288.45 721 1286.87 722.578 1285.3 722.578C1283.72 722.578 1282.14 721 1282.14 719.421Z" fill="#0A8C9F"/>
<path opacity="0.7" d="M1321.58 410.055C1323.32 410.055 1324.73 408.641 1324.73 406.898C1324.73 405.155 1323.32 403.741 1321.58 403.741C1319.84 403.741 1318.42 405.155 1318.42 406.898C1318.42 408.641 1319.84 410.055 1321.58 410.055Z" fill="#F56138"/>
</g>
</g>
</g>
</g>
<defs>
<filter id="filter0_f_746_1512" x="1.04199" y="180.396" width="818.381" height="108.198" filterUnits="userSpaceOnUse" color-interpolation-filters="sRGB">
<feFlood flood-opacity="0" result="BackgroundImageFix"/>
<feBlend mode="normal" in="SourceGraphic" in2="BackgroundImageFix" result="shape"/>
<feGaussianBlur stdDeviation="3" result="effect1_foregroundBlur_746_1512"/>
</filter>
<clipPath id="clip0_746_1512">
<rect width="1440" height="1024" fill="white"/>
</clipPath>
<clipPath id="clip1_746_1512">
<rect width="1440" height="1024" fill="white"/>
</clipPath>
</defs>
</svg>
