<svg width="272" height="173" viewBox="0 0 272 173" fill="none" xmlns="http://www.w3.org/2000/svg">
<path d="M84.375 23.4688V28.1562C84.375 31.3789 86.4258 34.0156 89.3555 34.8945C112.207 41.3398 128.906 62.1406 128.906 86.75C128.906 116.633 104.59 140.656 75 140.656C45.1172 140.656 21.0938 116.633 21.0938 86.75C21.0938 62.1406 37.5 41.3398 60.3516 34.8945C63.2812 34.0156 65.625 31.3789 65.625 28.1562V23.4688C65.625 18.7812 61.2305 15.2656 56.543 16.4375C25.1953 24.6406 2.05078 53.3516 2.34375 87.3359C2.34375 127.473 34.8633 159.699 75 159.406C115.137 159.406 147.656 126.887 147.656 86.75C147.656 53.0586 124.219 24.6406 92.8711 16.4375C88.4766 15.2656 84.375 18.7812 84.375 23.4688Z" fill="#FAD62C" fill-opacity="0.3"/>
<path d="M10.9 46H12.82L7.8 32.14H5.7L0.66 46H2.58L3.7 42.9H9.78L10.9 46ZM9.26 41.42H4.22L6.74 34.38L9.26 41.42ZM26.6686 31.9C22.7486 31.9 19.6686 34.84 19.6686 39.02C19.6686 43.2 22.7486 46.12 26.6686 46.12C30.4486 46.12 33.1886 43.34 33.5086 39.88V38.48H26.0086V39.96H31.5686C31.2886 42.72 29.4086 44.48 26.6686 44.48C23.7286 44.48 21.5286 42.36 21.5286 39.02C21.5286 35.66 23.7286 33.54 26.6686 33.54C28.6286 33.54 30.1486 34.48 30.9086 36.1H33.0886C32.0486 33.42 29.6086 31.9 26.6686 31.9ZM35.915 46H37.735V31.2H35.915V46ZM40.8369 46H42.6569V35.04H40.8369V46ZM41.7769 33.26C42.4369 33.26 42.9769 32.72 42.9769 32.02C42.9769 31.32 42.4369 30.78 41.7769 30.78C41.0769 30.78 40.5369 31.32 40.5369 32.02C40.5369 32.72 41.0769 33.26 41.7769 33.26ZM61.5788 46H63.3788V39.54C63.3788 36.4 61.4388 34.84 58.9388 34.84C57.2588 34.84 55.6988 35.7 55.0588 37.28C54.3388 35.64 52.8388 34.84 51.0388 34.84C49.5988 34.84 48.2988 35.46 47.5788 36.62V35.04H45.7588V46H47.5788V39.96C47.5788 37.6 48.8388 36.42 50.6788 36.42C52.4788 36.42 53.6788 37.56 53.6788 39.8V46H55.4788V39.96C55.4788 37.6 56.7388 36.42 58.5788 36.42C60.3788 36.42 61.5788 37.56 61.5788 39.8V46ZM68.1842 37.06V35.04H66.3642V51.2H68.1842V43.98C68.8642 45.1 70.2842 46.18 72.2842 46.18C75.2242 46.18 77.4842 43.88 77.4842 40.48C77.4842 37.06 75.2242 34.86 72.2842 34.86C70.2842 34.86 68.8442 35.9 68.1842 37.06ZM75.6242 40.48C75.6242 43.06 73.9242 44.58 71.9042 44.58C69.9242 44.58 68.1842 43.08 68.1842 40.5C68.1842 37.96 69.9242 36.44 71.9042 36.44C73.9242 36.44 75.6242 37.9 75.6242 40.48ZM87.7598 43.02C87.6798 39.1 81.3198 40.52 81.3198 37.92C81.3198 37.04 82.1198 36.4 83.4598 36.4C84.9198 36.4 85.7598 37.2 85.8398 38.3H87.6598C87.5398 36.16 85.9398 34.86 83.5198 34.86C81.0798 34.86 79.4998 36.24 79.4998 37.92C79.4998 42 85.9798 40.58 85.9798 43.02C85.9798 43.92 85.1798 44.64 83.7398 44.64C82.1998 44.64 81.2598 43.84 81.1598 42.78H79.2798C79.3998 44.78 81.1998 46.18 83.7598 46.18C86.1798 46.18 87.7598 44.82 87.7598 43.02ZM94.9891 36.4C96.8691 36.4 98.4691 37.58 98.4491 39.72H91.5291C91.7291 37.58 93.2091 36.4 94.9891 36.4ZM100.109 42.62H98.1491C97.7491 43.8 96.7091 44.64 95.0691 44.64C93.2091 44.64 91.6491 43.42 91.5091 41.2H100.269C100.309 40.82 100.329 40.5 100.329 40.1C100.329 37.1 98.2491 34.86 95.0691 34.86C91.8691 34.86 89.6491 37.04 89.6491 40.5C89.6491 43.98 91.9491 46.18 95.0691 46.18C97.7891 46.18 99.5491 44.62 100.109 42.62ZM108.063 46H109.883V32.06H108.063V46ZM121.005 46H122.805V39.54C122.805 36.4 120.865 34.84 118.325 34.84C116.845 34.84 115.525 35.46 114.805 36.6V35.04H112.985V46H114.805V39.94C114.805 37.58 116.085 36.42 117.945 36.42C119.785 36.42 121.005 37.56 121.005 39.8V46ZM126.178 43C126.178 45.2 127.278 46 129.218 46H130.858V44.46H129.518C128.398 44.46 127.998 44.08 127.998 43V36.54H130.858V35.04H127.998V32.28H126.178V35.04H124.758V36.54H126.178V43ZM143.463 40.5C143.463 37.04 141.043 34.86 137.923 34.86C134.823 34.86 132.383 37.04 132.383 40.5C132.383 43.98 134.743 46.18 137.843 46.18C140.963 46.18 143.463 43.98 143.463 40.5ZM134.243 40.5C134.243 37.74 135.983 36.44 137.903 36.44C139.783 36.44 141.603 37.74 141.603 40.5C141.603 43.28 139.743 44.58 137.843 44.58C135.943 44.58 134.243 43.28 134.243 40.5Z" fill="#828282"/>
<path d="M36.897 98.703C36.897 88.364 29.106 81.112 19.306 81.112C9.555 81.112 1.617 88.364 1.617 98.703C1.617 109.042 9.555 116.343 19.306 116.343C29.057 116.343 36.897 109.042 36.897 98.703ZM10.192 98.703C10.192 92.578 13.72 88.707 19.306 88.707C24.794 88.707 28.371 92.578 28.371 98.703C28.371 104.73 24.794 108.699 19.306 108.699C13.72 108.699 10.192 104.73 10.192 98.703ZM73.4575 88.658H65.0785V103.505C65.0785 107.229 63.0205 109.287 59.7865 109.287C56.6505 109.287 54.5435 107.229 54.5435 103.505V88.658H46.2135V104.632C46.2135 111.933 50.4765 116.294 56.7975 116.294C60.4725 116.294 63.4125 114.628 65.0785 112.276V116H73.4575V88.658ZM92.7551 103.309C92.7551 98.605 95.0581 97.233 99.0271 97.233H101.33V88.364C97.6551 88.364 94.6661 90.324 92.7551 93.215V88.658H84.3761V116H92.7551V103.309ZM132.428 116H142.571L148.255 93.362L153.743 116H163.886L172.853 81.602H163.837L158.839 106.641L152.959 81.602H143.747L137.622 106.641L132.673 81.602H123.706L132.428 116ZM208.709 102.329C208.709 93.656 202.535 88.266 194.499 88.266C186.512 88.266 180.289 93.656 180.289 102.329C180.289 111.002 186.365 116.392 194.401 116.392C202.437 116.392 208.709 111.002 208.709 102.329ZM188.815 102.329C188.815 97.674 191.461 95.518 194.499 95.518C197.439 95.518 200.183 97.674 200.183 102.329C200.183 106.935 197.39 109.14 194.401 109.14C191.363 109.14 188.815 106.935 188.815 102.329ZM226.433 103.309C226.433 98.605 228.736 97.233 232.705 97.233H235.008V88.364C231.333 88.364 228.344 90.324 226.433 93.215V88.658H218.054V116H226.433V103.309ZM243.913 116H252.292V104.534L260.622 116H271.01L259.544 102.378L270.912 88.658H260.573L252.292 99.781V79.74H243.913V116Z" fill="#828282"/>
</svg>
