<svg width="373" height="173" viewBox="0 0 373 173" fill="none" xmlns="http://www.w3.org/2000/svg">
<path d="M84.375 23.4688V28.1562C84.375 31.3789 86.4258 34.0156 89.3555 34.8945C112.207 41.3398 128.906 62.1406 128.906 86.75C128.906 116.633 104.59 140.656 75 140.656C45.1172 140.656 21.0938 116.633 21.0938 86.75C21.0938 62.1406 37.5 41.3398 60.3516 34.8945C63.2812 34.0156 65.625 31.3789 65.625 28.1562V23.4688C65.625 18.7812 61.2305 15.2656 56.543 16.4375C25.1953 24.6406 2.05078 53.3516 2.34375 87.3359C2.34375 127.473 34.8633 159.699 75 159.406C115.137 159.406 147.656 126.887 147.656 86.75C147.656 53.0586 124.219 24.6406 92.8711 16.4375C88.4766 15.2656 84.375 18.7812 84.375 23.4688Z" fill="#FAD62C" fill-opacity="0.3"/>
<path d="M3.86 38.68V33.56H6.54C8.62 33.56 9.5 34.52 9.5 36.14C9.5 37.7 8.62 38.68 6.54 38.68H3.86ZM11.36 36.14C11.36 33.86 9.82 32.06 6.54 32.06H2.04V46H3.86V40.18H6.54C10 40.18 11.36 38.26 11.36 36.14ZM18.282 36.4C20.162 36.4 21.762 37.58 21.742 39.72H14.822C15.022 37.58 16.502 36.4 18.282 36.4ZM23.402 42.62H21.442C21.042 43.8 20.002 44.64 18.362 44.64C16.502 44.64 14.942 43.42 14.802 41.2H23.562C23.602 40.82 23.622 40.5 23.622 40.1C23.622 37.1 21.542 34.86 18.362 34.86C15.162 34.86 12.942 37.04 12.942 40.5C12.942 43.98 15.242 46.18 18.362 46.18C21.082 46.18 22.842 44.62 23.402 42.62ZM27.8444 40.04C27.8444 37.5 29.1644 36.72 30.9044 36.72H31.3844V34.84C29.6444 34.84 28.4644 35.6 27.8444 36.82V35.04H26.0244V46H27.8444V40.04ZM33.8253 46H35.6453V36.54H37.9453V35.04H35.6453V34.26C35.6453 32.84 36.1853 32.24 37.8253 32.24V30.72C35.0253 30.72 33.8253 31.82 33.8253 34.26V35.04H32.4053V36.54H33.8253V46ZM44.7273 36.4C46.6073 36.4 48.2073 37.58 48.1873 39.72H41.2673C41.4673 37.58 42.9473 36.4 44.7273 36.4ZM49.8473 42.62H47.8873C47.4873 43.8 46.4473 44.64 44.8073 44.64C42.9473 44.64 41.3873 43.42 41.2473 41.2H50.0073C50.0473 40.82 50.0673 40.5 50.0673 40.1C50.0673 37.1 47.9873 34.86 44.8073 34.86C41.6073 34.86 39.3873 37.04 39.3873 40.5C39.3873 43.98 41.6873 46.18 44.8073 46.18C47.5273 46.18 49.2873 44.62 49.8473 42.62ZM51.7897 40.5C51.7897 43.98 54.0097 46.18 57.1297 46.18C59.8497 46.18 61.6297 44.66 62.1897 42.48H60.2297C59.8297 43.86 58.7497 44.64 57.1297 44.64C55.1297 44.64 53.6497 43.22 53.6497 40.5C53.6497 37.82 55.1297 36.4 57.1297 36.4C58.7497 36.4 59.8497 37.24 60.2297 38.56H62.1897C61.6297 36.26 59.8497 34.86 57.1297 34.86C54.0097 34.86 51.7897 37.06 51.7897 40.5ZM65.0181 43C65.0181 45.2 66.1181 46 68.0581 46H69.6981V44.46H68.3581C67.2381 44.46 66.8381 44.08 66.8381 43V36.54H69.6981V35.04H66.8381V32.28H65.0181V35.04H63.5981V36.54H65.0181V43ZM79.0553 38.68V33.56H81.7353C83.8153 33.56 84.6953 34.52 84.6953 36.14C84.6953 37.7 83.8153 38.68 81.7353 38.68H79.0553ZM86.5553 36.14C86.5553 33.86 85.0153 32.06 81.7353 32.06H77.2353V46H79.0553V40.18H81.7353C85.1953 40.18 86.5553 38.26 86.5553 36.14ZM88.1373 40.48C88.1373 43.88 90.3973 46.18 93.3173 46.18C95.3373 46.18 96.7573 45.14 97.4173 43.96V46H99.2573V35.04H97.4173V37.04C96.7773 35.9 95.3773 34.86 93.3373 34.86C90.3973 34.86 88.1373 37.06 88.1373 40.48ZM97.4173 40.5C97.4173 43.08 95.6973 44.58 93.6973 44.58C91.6973 44.58 89.9973 43.06 89.9973 40.48C89.9973 37.9 91.6973 36.44 93.6973 36.44C95.6973 36.44 97.4173 37.96 97.4173 40.5ZM104.153 40.04C104.153 37.5 105.473 36.72 107.213 36.72H107.693V34.84C105.953 34.84 104.773 35.6 104.153 36.82V35.04H102.333V46H104.153V40.04ZM110.194 43C110.194 45.2 111.294 46 113.234 46H114.874V44.46H113.534C112.414 44.46 112.014 44.08 112.014 43V36.54H114.874V35.04H112.014V32.28H110.194V35.04H108.774V36.54H110.194V43ZM125.099 46H126.899V39.54C126.899 36.4 124.959 34.84 122.419 34.84C120.939 34.84 119.619 35.46 118.899 36.6V35.04H117.079V46H118.899V39.94C118.899 37.58 120.179 36.42 122.039 36.42C123.879 36.42 125.099 37.56 125.099 39.8V46ZM134.532 36.4C136.412 36.4 138.012 37.58 137.992 39.72H131.072C131.272 37.58 132.752 36.4 134.532 36.4ZM139.652 42.62H137.692C137.292 43.8 136.252 44.64 134.612 44.64C132.752 44.64 131.192 43.42 131.052 41.2H139.812C139.852 40.82 139.872 40.5 139.872 40.1C139.872 37.1 137.792 34.86 134.612 34.86C131.412 34.86 129.192 37.04 129.192 40.5C129.192 43.98 131.492 46.18 134.612 46.18C137.332 46.18 139.092 44.62 139.652 42.62ZM144.094 40.04C144.094 37.5 145.414 36.72 147.154 36.72H147.634V34.84C145.894 34.84 144.714 35.6 144.094 36.82V35.04H142.274V46H144.094V40.04Z" fill="#F2F2F2"/>
<path d="M36.897 98.703C36.897 88.364 29.106 81.112 19.306 81.112C9.555 81.112 1.617 88.364 1.617 98.703C1.617 109.042 9.555 116.343 19.306 116.343C29.057 116.343 36.897 109.042 36.897 98.703ZM10.192 98.703C10.192 92.578 13.72 88.707 19.306 88.707C24.794 88.707 28.371 92.578 28.371 98.703C28.371 104.73 24.794 108.699 19.306 108.699C13.72 108.699 10.192 104.73 10.192 98.703ZM73.4575 88.658H65.0785V103.505C65.0785 107.229 63.0205 109.287 59.7865 109.287C56.6505 109.287 54.5435 107.229 54.5435 103.505V88.658H46.2135V104.632C46.2135 111.933 50.4765 116.294 56.7975 116.294C60.4725 116.294 63.4125 114.628 65.0785 112.276V116H73.4575V88.658ZM92.7551 103.309C92.7551 98.605 95.0581 97.233 99.0271 97.233H101.33V88.364C97.6551 88.364 94.6661 90.324 92.7551 93.215V88.658H84.3761V116H92.7551V103.309ZM133.898 96.988V88.364H138.455C141.787 88.364 143.208 90.03 143.208 92.676C143.208 95.322 141.787 96.988 138.455 96.988H133.898ZM151.734 92.676C151.734 86.355 147.52 81.602 139.092 81.602H125.519V116H133.898V103.652H139.092C147.863 103.652 151.734 98.36 151.734 92.676ZM159.33 102.28C159.33 110.904 164.671 116.392 171.335 116.392C175.402 116.392 178.293 114.53 179.812 112.129V116H188.191V88.658H179.812V92.529C178.342 90.128 175.451 88.266 171.384 88.266C164.671 88.266 159.33 93.656 159.33 102.28ZM179.812 102.329C179.812 106.69 177.019 109.091 173.834 109.091C170.698 109.091 167.856 106.641 167.856 102.28C167.856 97.919 170.698 95.567 173.834 95.567C177.019 95.567 179.812 97.968 179.812 102.329ZM207.532 103.309C207.532 98.605 209.835 97.233 213.804 97.233H216.107V88.364C212.432 88.364 209.443 90.324 207.532 93.215V88.658H199.153V116H207.532V103.309ZM226.335 106.494C226.335 113.599 230.304 116 235.988 116H240.251V108.895H237.262C235.4 108.895 234.714 108.209 234.714 106.592V95.616H240.202V88.658H234.714V81.994H226.335V88.658H223.003V95.616H226.335V106.494ZM268.683 116H277.013V100.026C277.013 92.676 272.799 88.364 266.478 88.364C262.803 88.364 259.863 89.981 258.197 92.284V88.658H249.818V116H258.197V101.153C258.197 97.429 260.255 95.371 263.44 95.371C266.625 95.371 268.683 97.429 268.683 101.153V116ZM299.79 94.979C302.583 94.979 304.935 96.694 304.935 99.683H294.449C294.939 96.645 297.046 94.979 299.79 94.979ZM312.873 106.935H303.955C303.269 108.405 301.946 109.581 299.594 109.581C296.899 109.581 294.694 107.915 294.4 104.338H313.363C313.461 103.505 313.51 102.672 313.51 101.888C313.51 93.558 307.875 88.266 299.888 88.266C291.754 88.266 286.07 93.656 286.07 102.329C286.07 111.002 291.852 116.392 299.888 116.392C306.699 116.392 311.55 112.276 312.873 106.935ZM331.209 103.309C331.209 98.605 333.512 97.233 337.481 97.233H339.784V88.364C336.109 88.364 333.12 90.324 331.209 93.215V88.658H322.83V116H331.209V103.309ZM370.886 108.062C370.739 97.87 355.941 100.957 355.941 96.596C355.941 95.273 357.019 94.489 358.979 94.489C361.331 94.489 362.752 95.714 362.997 97.576H370.739C370.2 92.186 366.28 88.266 359.224 88.266C352.07 88.266 348.101 92.088 348.101 96.743C348.101 106.788 362.997 103.603 362.997 108.013C362.997 109.238 361.87 110.218 359.714 110.218C357.411 110.218 355.696 108.944 355.5 107.033H347.219C347.611 112.325 352.511 116.392 359.812 116.392C366.672 116.392 370.886 112.815 370.886 108.062Z" fill="white"/>
</svg>
