<svg width="373" height="173" viewBox="0 0 373 173" fill="none" xmlns="http://www.w3.org/2000/svg">
<path d="M84.375 23.4688V28.1562C84.375 31.3789 86.4258 34.0156 89.3555 34.8945C112.207 41.3398 128.906 62.1406 128.906 86.75C128.906 116.633 104.59 140.656 75 140.656C45.1172 140.656 21.0938 116.633 21.0938 86.75C21.0938 62.1406 37.5 41.3398 60.3516 34.8945C63.2812 34.0156 65.625 31.3789 65.625 28.1562V23.4688C65.625 18.7812 61.2305 15.2656 56.543 16.4375C25.1953 24.6406 2.05078 53.3516 2.34375 87.3359C2.34375 127.473 34.8633 159.699 75 159.406C115.137 159.406 147.656 126.887 147.656 86.75C147.656 53.0586 124.219 24.6406 92.8711 16.4375C88.4766 15.2656 84.375 18.7812 84.375 23.4688Z" fill="#FAD62C" fill-opacity="0.3"/>
<path d="M11.36 36.14C11.36 37.3 10.96 38.2667 10.16 39.04C9.37333 39.8 8.16667 40.18 6.54 40.18H3.86V46H2.04V32.06H6.54C8.11333 32.06 9.30667 32.44 10.12 33.2C10.9467 33.96 11.36 34.94 11.36 36.14ZM6.54 38.68C7.55333 38.68 8.3 38.46 8.78 38.02C9.26 37.58 9.5 36.9533 9.5 36.14C9.5 34.42 8.51333 33.56 6.54 33.56H3.86V38.68H6.54ZM23.622 40.1C23.622 40.4467 23.602 40.8133 23.562 41.2H14.802C14.8687 42.28 15.2354 43.1267 15.902 43.74C16.582 44.34 17.402 44.64 18.362 44.64C19.1487 44.64 19.802 44.46 20.322 44.1C20.8554 43.7267 21.2287 43.2333 21.442 42.62H23.402C23.1087 43.6733 22.522 44.5333 21.642 45.2C20.762 45.8533 19.6687 46.18 18.362 46.18C17.322 46.18 16.3887 45.9467 15.562 45.48C14.7487 45.0133 14.1087 44.3533 13.642 43.5C13.1754 42.6333 12.942 41.6333 12.942 40.5C12.942 39.3667 13.1687 38.3733 13.622 37.52C14.0754 36.6667 14.7087 36.0133 15.522 35.56C16.3487 35.0933 17.2954 34.86 18.362 34.86C19.402 34.86 20.322 35.0867 21.122 35.54C21.922 35.9933 22.5354 36.62 22.962 37.42C23.402 38.2067 23.622 39.1 23.622 40.1ZM21.742 39.72C21.742 39.0267 21.5887 38.4333 21.282 37.94C20.9754 37.4333 20.5554 37.0533 20.022 36.8C19.502 36.5333 18.922 36.4 18.282 36.4C17.362 36.4 16.5754 36.6933 15.922 37.28C15.282 37.8667 14.9154 38.68 14.822 39.72H21.742ZM27.8444 36.82C28.1644 36.1933 28.6177 35.7067 29.2044 35.36C29.8044 35.0133 30.531 34.84 31.3844 34.84V36.72H30.9044C28.8644 36.72 27.8444 37.8267 27.8444 40.04V46H26.0244V35.04H27.8444V36.82ZM37.9453 36.54H35.6453V46H33.8253V36.54H32.4053V35.04H33.8253V34.26C33.8253 33.0333 34.1386 32.14 34.7653 31.58C35.4053 31.0067 36.4253 30.72 37.8253 30.72V32.24C37.0253 32.24 36.4586 32.4 36.1253 32.72C35.8053 33.0267 35.6453 33.54 35.6453 34.26V35.04H37.9453V36.54ZM50.0673 40.1C50.0673 40.4467 50.0473 40.8133 50.0073 41.2H41.2473C41.314 42.28 41.6807 43.1267 42.3473 43.74C43.0273 44.34 43.8473 44.64 44.8073 44.64C45.594 44.64 46.2473 44.46 46.7673 44.1C47.3007 43.7267 47.674 43.2333 47.8873 42.62H49.8473C49.554 43.6733 48.9673 44.5333 48.0873 45.2C47.2073 45.8533 46.114 46.18 44.8073 46.18C43.7673 46.18 42.834 45.9467 42.0073 45.48C41.194 45.0133 40.554 44.3533 40.0873 43.5C39.6207 42.6333 39.3873 41.6333 39.3873 40.5C39.3873 39.3667 39.614 38.3733 40.0673 37.52C40.5207 36.6667 41.154 36.0133 41.9673 35.56C42.794 35.0933 43.7407 34.86 44.8073 34.86C45.8473 34.86 46.7673 35.0867 47.5673 35.54C48.3673 35.9933 48.9807 36.62 49.4073 37.42C49.8473 38.2067 50.0673 39.1 50.0673 40.1ZM48.1873 39.72C48.1873 39.0267 48.034 38.4333 47.7273 37.94C47.4207 37.4333 47.0007 37.0533 46.4673 36.8C45.9473 36.5333 45.3673 36.4 44.7273 36.4C43.8073 36.4 43.0207 36.6933 42.3673 37.28C41.7273 37.8667 41.3607 38.68 41.2673 39.72H48.1873ZM51.7897 40.5C51.7897 39.3667 52.0164 38.38 52.4697 37.54C52.923 36.6867 53.5497 36.0267 54.3497 35.56C55.163 35.0933 56.0897 34.86 57.1297 34.86C58.4764 34.86 59.583 35.1867 60.4497 35.84C61.3297 36.4933 61.9097 37.4 62.1897 38.56H60.2297C60.043 37.8933 59.6764 37.3667 59.1297 36.98C58.5964 36.5933 57.9297 36.4 57.1297 36.4C56.0897 36.4 55.2497 36.76 54.6097 37.48C53.9697 38.1867 53.6497 39.1933 53.6497 40.5C53.6497 41.82 53.9697 42.84 54.6097 43.56C55.2497 44.28 56.0897 44.64 57.1297 44.64C57.9297 44.64 58.5964 44.4533 59.1297 44.08C59.663 43.7067 60.0297 43.1733 60.2297 42.48H62.1897C61.8964 43.6 61.3097 44.5 60.4297 45.18C59.5497 45.8467 58.4497 46.18 57.1297 46.18C56.0897 46.18 55.163 45.9467 54.3497 45.48C53.5497 45.0133 52.923 44.3533 52.4697 43.5C52.0164 42.6467 51.7897 41.6467 51.7897 40.5ZM66.8381 36.54V43C66.8381 43.5333 66.9515 43.9133 67.1781 44.14C67.4048 44.3533 67.7981 44.46 68.3581 44.46H69.6981V46H68.0581C67.0448 46 66.2848 45.7667 65.7781 45.3C65.2715 44.8333 65.0181 44.0667 65.0181 43V36.54H63.5981V35.04H65.0181V32.28H66.8381V35.04H69.6981V36.54H66.8381ZM86.5553 36.14C86.5553 37.3 86.1553 38.2667 85.3553 39.04C84.5686 39.8 83.362 40.18 81.7353 40.18H79.0553V46H77.2353V32.06H81.7353C83.3086 32.06 84.502 32.44 85.3153 33.2C86.142 33.96 86.5553 34.94 86.5553 36.14ZM81.7353 38.68C82.7486 38.68 83.4953 38.46 83.9753 38.02C84.4553 37.58 84.6953 36.9533 84.6953 36.14C84.6953 34.42 83.7086 33.56 81.7353 33.56H79.0553V38.68H81.7353ZM88.1373 40.48C88.1373 39.36 88.364 38.38 88.8173 37.54C89.2707 36.6867 89.8907 36.0267 90.6773 35.56C91.4773 35.0933 92.364 34.86 93.3373 34.86C94.2973 34.86 95.1307 35.0667 95.8373 35.48C96.544 35.8933 97.0707 36.4133 97.4173 37.04V35.04H99.2573V46H97.4173V43.96C97.0573 44.6 96.5173 45.1333 95.7973 45.56C95.0907 45.9733 94.264 46.18 93.3173 46.18C92.344 46.18 91.464 45.94 90.6773 45.46C89.8907 44.98 89.2707 44.3067 88.8173 43.44C88.364 42.5733 88.1373 41.5867 88.1373 40.48ZM97.4173 40.5C97.4173 39.6733 97.2507 38.9533 96.9173 38.34C96.584 37.7267 96.1307 37.26 95.5573 36.94C94.9973 36.6067 94.3773 36.44 93.6973 36.44C93.0173 36.44 92.3973 36.6 91.8373 36.92C91.2773 37.24 90.8307 37.7067 90.4973 38.32C90.164 38.9333 89.9973 39.6533 89.9973 40.48C89.9973 41.32 90.164 42.0533 90.4973 42.68C90.8307 43.2933 91.2773 43.7667 91.8373 44.1C92.3973 44.42 93.0173 44.58 93.6973 44.58C94.3773 44.58 94.9973 44.42 95.5573 44.1C96.1307 43.7667 96.584 43.2933 96.9173 42.68C97.2507 42.0533 97.4173 41.3267 97.4173 40.5ZM104.153 36.82C104.473 36.1933 104.926 35.7067 105.513 35.36C106.113 35.0133 106.84 34.84 107.693 34.84V36.72H107.213C105.173 36.72 104.153 37.8267 104.153 40.04V46H102.333V35.04H104.153V36.82ZM112.014 36.54V43C112.014 43.5333 112.127 43.9133 112.354 44.14C112.581 44.3533 112.974 44.46 113.534 44.46H114.874V46H113.234C112.221 46 111.461 45.7667 110.954 45.3C110.447 44.8333 110.194 44.0667 110.194 43V36.54H108.774V35.04H110.194V32.28H112.014V35.04H114.874V36.54H112.014ZM127.079 40.1C127.079 40.4467 127.059 40.8133 127.019 41.2H118.259C118.326 42.28 118.692 43.1267 119.359 43.74C120.039 44.34 120.859 44.64 121.819 44.64C122.606 44.64 123.259 44.46 123.779 44.1C124.312 43.7267 124.686 43.2333 124.899 42.62H126.859C126.566 43.6733 125.979 44.5333 125.099 45.2C124.219 45.8533 123.126 46.18 121.819 46.18C120.779 46.18 119.846 45.9467 119.019 45.48C118.206 45.0133 117.566 44.3533 117.099 43.5C116.632 42.6333 116.399 41.6333 116.399 40.5C116.399 39.3667 116.626 38.3733 117.079 37.52C117.532 36.6667 118.166 36.0133 118.979 35.56C119.806 35.0933 120.752 34.86 121.819 34.86C122.859 34.86 123.779 35.0867 124.579 35.54C125.379 35.9933 125.992 36.62 126.419 37.42C126.859 38.2067 127.079 39.1 127.079 40.1ZM125.199 39.72C125.199 39.0267 125.046 38.4333 124.739 37.94C124.432 37.4333 124.012 37.0533 123.479 36.8C122.959 36.5333 122.379 36.4 121.739 36.4C120.819 36.4 120.032 36.6933 119.379 37.28C118.739 37.8667 118.372 38.68 118.279 39.72H125.199ZM134.821 34.84C136.155 34.84 137.235 35.2467 138.061 36.06C138.888 36.86 139.301 38.02 139.301 39.54V46H137.501V39.8C137.501 38.7067 137.228 37.8733 136.681 37.3C136.135 36.7133 135.388 36.42 134.441 36.42C133.481 36.42 132.715 36.72 132.141 37.32C131.581 37.92 131.301 38.7933 131.301 39.94V46H129.481V35.04H131.301V36.6C131.661 36.04 132.148 35.6067 132.761 35.3C133.388 34.9933 134.075 34.84 134.821 34.84ZM152.274 40.1C152.274 40.4467 152.254 40.8133 152.214 41.2H143.454C143.521 42.28 143.888 43.1267 144.554 43.74C145.234 44.34 146.054 44.64 147.014 44.64C147.801 44.64 148.454 44.46 148.974 44.1C149.508 43.7267 149.881 43.2333 150.094 42.62H152.054C151.761 43.6733 151.174 44.5333 150.294 45.2C149.414 45.8533 148.321 46.18 147.014 46.18C145.974 46.18 145.041 45.9467 144.214 45.48C143.401 45.0133 142.761 44.3533 142.294 43.5C141.828 42.6333 141.594 41.6333 141.594 40.5C141.594 39.3667 141.821 38.3733 142.274 37.52C142.728 36.6667 143.361 36.0133 144.174 35.56C145.001 35.0933 145.948 34.86 147.014 34.86C148.054 34.86 148.974 35.0867 149.774 35.54C150.574 35.9933 151.188 36.62 151.614 37.42C152.054 38.2067 152.274 39.1 152.274 40.1ZM150.394 39.72C150.394 39.0267 150.241 38.4333 149.934 37.94C149.628 37.4333 149.208 37.0533 148.674 36.8C148.154 36.5333 147.574 36.4 146.934 36.4C146.014 36.4 145.228 36.6933 144.574 37.28C143.934 37.8667 143.568 38.68 143.474 39.72H150.394ZM156.497 36.82C156.817 36.1933 157.27 35.7067 157.857 35.36C158.457 35.0133 159.183 34.84 160.037 34.84V36.72H159.557C157.517 36.72 156.497 37.8267 156.497 40.04V46H154.677V35.04H156.497V36.82Z" fill="#F2F2F2"/>
<path d="M36.897 98.703C36.897 88.364 29.106 81.112 19.306 81.112C9.555 81.112 1.617 88.364 1.617 98.703C1.617 109.042 9.555 116.343 19.306 116.343C29.057 116.343 36.897 109.042 36.897 98.703ZM10.192 98.703C10.192 92.578 13.72 88.707 19.306 88.707C24.794 88.707 28.371 92.578 28.371 98.703C28.371 104.73 24.794 108.699 19.306 108.699C13.72 108.699 10.192 104.73 10.192 98.703ZM73.4575 88.658H65.0785V103.505C65.0785 107.229 63.0205 109.287 59.7865 109.287C56.6505 109.287 54.5435 107.229 54.5435 103.505V88.658H46.2135V104.632C46.2135 111.933 50.4765 116.294 56.7975 116.294C60.4725 116.294 63.4125 114.628 65.0785 112.276V116H73.4575V88.658ZM92.7551 103.309C92.7551 98.605 95.0581 97.233 99.0271 97.233H101.33V88.364C97.6551 88.364 94.6661 90.324 92.7551 93.215V88.658H84.3761V116H92.7551V103.309ZM133.898 96.988V88.364H138.455C141.787 88.364 143.208 90.03 143.208 92.676C143.208 95.322 141.787 96.988 138.455 96.988H133.898ZM151.734 92.676C151.734 86.355 147.52 81.602 139.092 81.602H125.519V116H133.898V103.652H139.092C147.863 103.652 151.734 98.36 151.734 92.676ZM159.33 102.28C159.33 110.904 164.671 116.392 171.335 116.392C175.402 116.392 178.293 114.53 179.812 112.129V116H188.191V88.658H179.812V92.529C178.342 90.128 175.451 88.266 171.384 88.266C164.671 88.266 159.33 93.656 159.33 102.28ZM179.812 102.329C179.812 106.69 177.019 109.091 173.834 109.091C170.698 109.091 167.856 106.641 167.856 102.28C167.856 97.919 170.698 95.567 173.834 95.567C177.019 95.567 179.812 97.968 179.812 102.329ZM207.532 103.309C207.532 98.605 209.835 97.233 213.804 97.233H216.107V88.364C212.432 88.364 209.443 90.324 207.532 93.215V88.658H199.153V116H207.532V103.309ZM226.335 106.494C226.335 113.599 230.304 116 235.988 116H240.251V108.895H237.262C235.4 108.895 234.714 108.209 234.714 106.592V95.616H240.202V88.658H234.714V81.994H226.335V88.658H223.003V95.616H226.335V106.494ZM268.683 116H277.013V100.026C277.013 92.676 272.799 88.364 266.478 88.364C262.803 88.364 259.863 89.981 258.197 92.284V88.658H249.818V116H258.197V101.153C258.197 97.429 260.255 95.371 263.44 95.371C266.625 95.371 268.683 97.429 268.683 101.153V116ZM299.79 94.979C302.583 94.979 304.935 96.694 304.935 99.683H294.449C294.939 96.645 297.046 94.979 299.79 94.979ZM312.873 106.935H303.955C303.269 108.405 301.946 109.581 299.594 109.581C296.899 109.581 294.694 107.915 294.4 104.338H313.363C313.461 103.505 313.51 102.672 313.51 101.888C313.51 93.558 307.875 88.266 299.888 88.266C291.754 88.266 286.07 93.656 286.07 102.329C286.07 111.002 291.852 116.392 299.888 116.392C306.699 116.392 311.55 112.276 312.873 106.935ZM331.209 103.309C331.209 98.605 333.512 97.233 337.481 97.233H339.784V88.364C336.109 88.364 333.12 90.324 331.209 93.215V88.658H322.83V116H331.209V103.309ZM370.886 108.062C370.739 97.87 355.941 100.957 355.941 96.596C355.941 95.273 357.019 94.489 358.979 94.489C361.331 94.489 362.752 95.714 362.997 97.576H370.739C370.2 92.186 366.28 88.266 359.224 88.266C352.07 88.266 348.101 92.088 348.101 96.743C348.101 106.788 362.997 103.603 362.997 108.013C362.997 109.238 361.87 110.218 359.714 110.218C357.411 110.218 355.696 108.944 355.5 107.033H347.219C347.611 112.325 352.511 116.392 359.812 116.392C366.672 116.392 370.886 112.815 370.886 108.062Z" fill="white"/>
</svg>
