<svg width="237" height="173" viewBox="0 0 237 173" fill="none" xmlns="http://www.w3.org/2000/svg">
<path d="M84.375 23.4688V28.1562C84.375 31.3789 86.4258 34.0156 89.3555 34.8945C112.207 41.3398 128.906 62.1406 128.906 86.75C128.906 116.633 104.59 140.656 75 140.656C45.1172 140.656 21.0938 116.633 21.0938 86.75C21.0938 62.1406 37.5 41.3398 60.3516 34.8945C63.2812 34.0156 65.625 31.3789 65.625 28.1562V23.4688C65.625 18.7812 61.2305 15.2656 56.543 16.4375C25.1953 24.6406 2.05078 53.3516 2.34375 87.3359C2.34375 127.473 34.8633 159.699 75 159.406C115.137 159.406 147.656 126.887 147.656 86.75C147.656 53.0586 124.219 24.6406 92.8711 16.4375C88.4766 15.2656 84.375 18.7812 84.375 23.4688Z" fill="#FAD62C" fill-opacity="0.3"/>
<path d="M5.39062 35.7031L8.21289 25.7812H9.58008L8.78906 29.6387L5.75195 40H4.39453L5.39062 35.7031ZM2.4707 25.7812L4.7168 35.5078L5.39062 40H4.04297L0.595703 25.7812H2.4707ZM13.2324 35.498L15.4297 25.7812H17.3145L13.877 40H12.5293L13.2324 35.498ZM9.78516 25.7812L12.5293 35.7031L13.5254 40H12.168L9.23828 29.6387L8.4375 25.7812H9.78516ZM22.9375 25V40H21.1309V25H22.9375ZM22.5078 34.3164L21.7559 34.2871C21.7624 33.5645 21.8698 32.8971 22.0781 32.2852C22.2865 31.6667 22.5794 31.1296 22.957 30.6738C23.3346 30.2181 23.7839 29.8665 24.3047 29.6191C24.832 29.3652 25.4147 29.2383 26.0527 29.2383C26.5736 29.2383 27.0423 29.3099 27.459 29.4531C27.8757 29.5898 28.2305 29.8112 28.5234 30.1172C28.8229 30.4232 29.0508 30.8203 29.207 31.3086C29.3633 31.7904 29.4414 32.3796 29.4414 33.0762V40H27.625V33.0566C27.625 32.5033 27.5436 32.0605 27.3809 31.7285C27.2181 31.39 26.9805 31.1458 26.668 30.9961C26.3555 30.8398 25.9714 30.7617 25.5156 30.7617C25.0664 30.7617 24.6562 30.8561 24.2852 31.0449C23.9206 31.2337 23.6048 31.4941 23.3379 31.8262C23.0775 32.1582 22.8724 32.5391 22.7227 32.9688C22.5794 33.3919 22.5078 33.8411 22.5078 34.3164ZM33.668 34.834V34.6094C33.668 33.8477 33.7786 33.1413 34 32.4902C34.2214 31.8327 34.5404 31.263 34.957 30.7812C35.3737 30.293 35.8783 29.9154 36.4707 29.6484C37.0632 29.375 37.7272 29.2383 38.4629 29.2383C39.2051 29.2383 39.8724 29.375 40.4648 29.6484C41.0638 29.9154 41.5716 30.293 41.9883 30.7812C42.4115 31.263 42.7337 31.8327 42.9551 32.4902C43.1764 33.1413 43.2871 33.8477 43.2871 34.6094V34.834C43.2871 35.5957 43.1764 36.3021 42.9551 36.9531C42.7337 37.6042 42.4115 38.1738 41.9883 38.6621C41.5716 39.1439 41.0671 39.5215 40.4746 39.7949C39.8887 40.0618 39.2246 40.1953 38.4824 40.1953C37.7402 40.1953 37.0729 40.0618 36.4805 39.7949C35.888 39.5215 35.3802 39.1439 34.957 38.6621C34.5404 38.1738 34.2214 37.6042 34 36.9531C33.7786 36.3021 33.668 35.5957 33.668 34.834ZM35.4746 34.6094V34.834C35.4746 35.3613 35.5365 35.8594 35.6602 36.3281C35.7839 36.7904 35.9694 37.2005 36.2168 37.5586C36.4707 37.9167 36.7865 38.1999 37.1641 38.4082C37.5417 38.61 37.9811 38.7109 38.4824 38.7109C38.9772 38.7109 39.4102 38.61 39.7812 38.4082C40.1589 38.1999 40.4714 37.9167 40.7188 37.5586C40.9661 37.2005 41.1517 36.7904 41.2754 36.3281C41.4056 35.8594 41.4707 35.3613 41.4707 34.834V34.6094C41.4707 34.0885 41.4056 33.597 41.2754 33.1348C41.1517 32.666 40.9629 32.2526 40.709 31.8945C40.4616 31.5299 40.1491 31.2435 39.7715 31.0352C39.4004 30.8268 38.9642 30.7227 38.4629 30.7227C37.9681 30.7227 37.5319 30.8268 37.1543 31.0352C36.7832 31.2435 36.4707 31.5299 36.2168 31.8945C35.9694 32.2526 35.7839 32.666 35.6602 33.1348C35.5365 33.597 35.4746 34.0885 35.4746 34.6094ZM58.5273 35.7031L61.3496 25.7812H62.7168L61.9258 29.6387L58.8887 40H57.5312L58.5273 35.7031ZM55.6074 25.7812L57.8535 35.5078L58.5273 40H57.1797L53.7324 25.7812H55.6074ZM66.3691 35.498L68.5664 25.7812H70.4512L67.0137 40H65.666L66.3691 35.498ZM62.9219 25.7812L65.666 35.7031L66.6621 40H65.3047L62.375 29.6387L61.5742 25.7812H62.9219ZM78.3398 40.1953C77.6042 40.1953 76.9368 40.0716 76.3379 39.8242C75.7454 39.5703 75.2344 39.2155 74.8047 38.7598C74.3815 38.304 74.056 37.7637 73.8281 37.1387C73.6003 36.5137 73.4863 35.8301 73.4863 35.0879V34.6777C73.4863 33.8184 73.6133 33.0534 73.8672 32.3828C74.1211 31.7057 74.4661 31.1328 74.9023 30.6641C75.3385 30.1953 75.8333 29.8405 76.3867 29.5996C76.9401 29.3587 77.513 29.2383 78.1055 29.2383C78.8607 29.2383 79.5117 29.3685 80.0586 29.6289C80.612 29.8893 81.0645 30.2539 81.416 30.7227C81.7676 31.1849 82.028 31.7318 82.1973 32.3633C82.3665 32.9883 82.4512 33.6719 82.4512 34.4141V35.2246H74.5605V33.75H80.6445V33.6133C80.6185 33.1445 80.5208 32.6888 80.3516 32.2461C80.1888 31.8034 79.9284 31.4388 79.5703 31.1523C79.2122 30.8659 78.724 30.7227 78.1055 30.7227C77.6953 30.7227 77.3177 30.8105 76.9727 30.9863C76.6276 31.1556 76.3314 31.4095 76.084 31.748C75.8366 32.0866 75.6445 32.5 75.5078 32.9883C75.3711 33.4766 75.3027 34.0397 75.3027 34.6777V35.0879C75.3027 35.5892 75.3711 36.0612 75.5078 36.5039C75.651 36.9401 75.8561 37.3242 76.123 37.6562C76.3965 37.9883 76.7253 38.2487 77.1094 38.4375C77.5 38.6263 77.9427 38.7207 78.4375 38.7207C79.0755 38.7207 79.6159 38.5905 80.0586 38.3301C80.5013 38.0697 80.8887 37.7214 81.2207 37.2852L82.3145 38.1543C82.0866 38.4993 81.7969 38.8281 81.4453 39.1406C81.0938 39.4531 80.6608 39.707 80.1465 39.9023C79.6387 40.0977 79.0365 40.1953 78.3398 40.1953ZM99.0586 27.041L94.3516 40H92.4277L97.8477 25.7812H99.0879L99.0586 27.041ZM103.004 40L98.2871 27.041L98.2578 25.7812H99.498L104.938 40H103.004ZM102.76 34.7363V36.2793H94.7715V34.7363H102.76ZM110.375 31.0938V40H108.568V29.4336H110.326L110.375 31.0938ZM113.676 29.375L113.666 31.0547C113.516 31.0221 113.373 31.0026 113.236 30.9961C113.106 30.9831 112.956 30.9766 112.787 30.9766C112.37 30.9766 112.003 31.0417 111.684 31.1719C111.365 31.3021 111.094 31.4844 110.873 31.7188C110.652 31.9531 110.476 32.2331 110.346 32.5586C110.222 32.8776 110.141 33.2292 110.102 33.6133L109.594 33.9062C109.594 33.2682 109.656 32.6693 109.779 32.1094C109.91 31.5495 110.108 31.0547 110.375 30.625C110.642 30.1888 110.98 29.8503 111.391 29.6094C111.807 29.362 112.302 29.2383 112.875 29.2383C113.005 29.2383 113.155 29.2546 113.324 29.2871C113.493 29.3132 113.611 29.3424 113.676 29.375ZM121.535 40.1953C120.799 40.1953 120.132 40.0716 119.533 39.8242C118.941 39.5703 118.43 39.2155 118 38.7598C117.577 38.304 117.251 37.7637 117.023 37.1387C116.796 36.5137 116.682 35.8301 116.682 35.0879V34.6777C116.682 33.8184 116.809 33.0534 117.062 32.3828C117.316 31.7057 117.661 31.1328 118.098 30.6641C118.534 30.1953 119.029 29.8405 119.582 29.5996C120.135 29.3587 120.708 29.2383 121.301 29.2383C122.056 29.2383 122.707 29.3685 123.254 29.6289C123.807 29.8893 124.26 30.2539 124.611 30.7227C124.963 31.1849 125.223 31.7318 125.393 32.3633C125.562 32.9883 125.646 33.6719 125.646 34.4141V35.2246H117.756V33.75H123.84V33.6133C123.814 33.1445 123.716 32.6888 123.547 32.2461C123.384 31.8034 123.124 31.4388 122.766 31.1523C122.408 30.8659 121.919 30.7227 121.301 30.7227C120.891 30.7227 120.513 30.8105 120.168 30.9863C119.823 31.1556 119.527 31.4095 119.279 31.748C119.032 32.0866 118.84 32.5 118.703 32.9883C118.566 33.4766 118.498 34.0397 118.498 34.6777V35.0879C118.498 35.5892 118.566 36.0612 118.703 36.5039C118.846 36.9401 119.051 37.3242 119.318 37.6562C119.592 37.9883 119.921 38.2487 120.305 38.4375C120.695 38.6263 121.138 38.7207 121.633 38.7207C122.271 38.7207 122.811 38.5905 123.254 38.3301C123.697 38.0697 124.084 37.7214 124.416 37.2852L125.51 38.1543C125.282 38.4993 124.992 38.8281 124.641 39.1406C124.289 39.4531 123.856 39.707 123.342 39.9023C122.834 40.0977 122.232 40.1953 121.535 40.1953Z" fill="#828282"/>
<path d="M17.3462 85.7915L8.3501 114H0.0239258L12.9199 79.1641H18.1836L17.3462 85.7915ZM24.811 114L15.791 85.7915L14.8579 79.1641H20.1934L33.1372 114H24.811ZM24.4282 101.032V107.062H6.26855V101.032H24.4282ZM40.5733 77.25H48.0382V107.851L47.2726 114H40.5733V77.25ZM64.1881 100.769V101.271C64.1881 103.233 63.9807 105.02 63.566 106.631C63.1673 108.242 62.5532 109.638 61.7237 110.818C60.8943 111.982 59.8495 112.883 58.5895 113.521C57.3294 114.16 55.846 114.479 54.1393 114.479C52.5602 114.479 51.2044 114.152 50.0719 113.498C48.9394 112.828 47.9903 111.903 47.2247 110.722C46.4591 109.542 45.837 108.162 45.3585 106.583C44.8959 105.004 44.537 103.305 44.2818 101.487V100.625C44.537 98.8071 44.8959 97.1084 45.3585 95.5293C45.837 93.9502 46.4591 92.5705 47.2247 91.3901C47.9903 90.2098 48.9314 89.2926 50.048 88.6387C51.1804 87.9688 52.5283 87.6338 54.0914 87.6338C55.8141 87.6338 57.3054 87.9608 58.5655 88.6147C59.8416 89.2687 60.8943 90.1859 61.7237 91.3662C62.5532 92.5306 63.1673 93.9183 63.566 95.5293C63.9807 97.1243 64.1881 98.8709 64.1881 100.769ZM56.7232 101.271V100.769C56.7232 99.7801 56.6515 98.847 56.5079 97.9697C56.3803 97.0924 56.149 96.3188 55.8141 95.6489C55.4951 94.9631 55.0405 94.4287 54.4503 94.0459C53.8761 93.6471 53.1344 93.4478 52.2252 93.4478C51.332 93.4478 50.5743 93.5993 49.9522 93.9023C49.3302 94.2054 48.8277 94.6361 48.4449 95.1943C48.0621 95.7367 47.783 96.3986 47.6075 97.1802C47.4321 97.9618 47.3364 98.8311 47.3204 99.7881V102.324C47.3364 103.6 47.5038 104.717 47.8229 105.674C48.1419 106.631 48.6603 107.373 49.378 107.899C50.0958 108.409 51.0608 108.665 52.273 108.665C53.1982 108.665 53.9479 108.489 54.5221 108.138C55.1122 107.771 55.5589 107.261 55.8619 106.607C56.1809 105.953 56.4042 105.171 56.5318 104.262C56.6594 103.353 56.7232 102.356 56.7232 101.271ZM71.9831 101.319V100.817C71.9831 98.9188 72.2543 97.1722 72.7966 95.5771C73.3389 93.9661 74.1364 92.5705 75.1892 91.3901C76.2419 90.2098 77.5339 89.2926 79.0651 88.6387C80.5964 87.9688 82.3509 87.6338 84.3288 87.6338C86.3386 87.6338 88.1091 87.9688 89.6403 88.6387C91.1875 89.2926 92.4875 90.2098 93.5402 91.3901C94.593 92.5705 95.3905 93.9661 95.9328 95.5771C96.4751 97.1722 96.7463 98.9188 96.7463 100.817V101.319C96.7463 103.201 96.4751 104.948 95.9328 106.559C95.3905 108.154 94.593 109.55 93.5402 110.746C92.4875 111.926 91.1955 112.844 89.6643 113.498C88.133 114.152 86.3705 114.479 84.3767 114.479C82.3988 114.479 80.6363 114.152 79.0891 113.498C77.5419 112.844 76.2419 111.926 75.1892 110.746C74.1364 109.55 73.3389 108.154 72.7966 106.559C72.2543 104.948 71.9831 103.201 71.9831 101.319ZM79.4719 100.817V101.319C79.4719 102.34 79.5516 103.297 79.7111 104.19C79.8866 105.084 80.1657 105.865 80.5485 106.535C80.9314 107.205 81.4338 107.731 82.0559 108.114C82.6939 108.481 83.4675 108.665 84.3767 108.665C85.2858 108.665 86.0515 108.481 86.6735 108.114C87.2956 107.731 87.798 107.205 88.1809 106.535C88.5637 105.865 88.8348 105.084 88.9943 104.19C89.1698 103.297 89.2575 102.34 89.2575 101.319V100.817C89.2575 99.812 89.1698 98.8709 88.9943 97.9937C88.8348 97.1004 88.5637 96.3109 88.1809 95.625C87.798 94.9391 87.2876 94.4048 86.6496 94.022C86.0275 93.6392 85.2539 93.4478 84.3288 93.4478C83.4356 93.4478 82.6779 93.6392 82.0559 94.022C81.4338 94.4048 80.9314 94.9391 80.5485 95.625C80.1657 96.3109 79.8866 97.1004 79.7111 97.9937C79.5516 98.8709 79.4719 99.812 79.4719 100.817ZM120.763 107.755V88.1123H128.276V114H121.242L120.763 107.755ZM121.553 102.468L123.61 102.42C123.61 104.159 123.403 105.762 122.988 107.229C122.589 108.696 121.983 109.972 121.17 111.057C120.372 112.142 119.375 112.987 118.179 113.593C116.999 114.183 115.619 114.479 114.04 114.479C112.764 114.479 111.591 114.303 110.523 113.952C109.47 113.585 108.561 113.019 107.795 112.253C107.03 111.472 106.439 110.475 106.025 109.263C105.61 108.035 105.403 106.567 105.403 104.86V88.1123H112.867V104.908C112.867 105.578 112.947 106.152 113.107 106.631C113.282 107.093 113.513 107.476 113.801 107.779C114.104 108.082 114.471 108.306 114.901 108.449C115.348 108.593 115.834 108.665 116.361 108.665C117.685 108.665 118.721 108.393 119.471 107.851C120.237 107.293 120.771 106.551 121.074 105.626C121.393 104.685 121.553 103.632 121.553 102.468ZM151.192 88.1123V93.3521H135.831V88.1123H151.192ZM139.349 81.7002H146.837V105.889C146.837 106.607 146.925 107.157 147.1 107.54C147.276 107.923 147.563 108.194 147.962 108.354C148.361 108.497 148.871 108.569 149.493 108.569C149.94 108.569 150.322 108.553 150.642 108.521C150.961 108.489 151.256 108.449 151.527 108.401V113.809C150.889 114.016 150.211 114.175 149.493 114.287C148.775 114.415 147.994 114.479 147.148 114.479C145.537 114.479 144.142 114.215 142.961 113.689C141.797 113.163 140.904 112.333 140.282 111.201C139.66 110.052 139.349 108.561 139.349 106.727V81.7002ZM196.234 79.1641H204.034V102.037C204.034 104.749 203.46 107.03 202.312 108.88C201.179 110.73 199.6 112.126 197.574 113.067C195.549 114.008 193.204 114.479 190.54 114.479C187.86 114.479 185.5 114.008 183.458 113.067C181.432 112.126 179.837 110.73 178.673 108.88C177.525 107.03 176.95 104.749 176.95 102.037V79.1641H184.774V102.037C184.774 103.536 184.997 104.765 185.444 105.722C185.907 106.663 186.568 107.357 187.43 107.803C188.291 108.234 189.328 108.449 190.54 108.449C191.752 108.449 192.781 108.234 193.627 107.803C194.488 107.357 195.134 106.663 195.565 105.722C196.011 104.765 196.234 103.536 196.234 102.037V79.1641ZM227.907 106.798C227.907 106.32 227.756 105.897 227.453 105.53C227.166 105.163 226.639 104.828 225.874 104.525C225.124 104.222 224.063 103.919 222.692 103.616C221.4 103.345 220.195 102.994 219.079 102.563C217.962 102.117 216.989 101.583 216.16 100.96C215.33 100.322 214.684 99.5728 214.222 98.7114C213.759 97.8341 213.528 96.8372 213.528 95.7207C213.528 94.6361 213.759 93.6073 214.222 92.6343C214.7 91.6613 215.386 90.8 216.279 90.0503C217.189 89.3006 218.289 88.7104 219.581 88.2798C220.889 87.8491 222.373 87.6338 224.031 87.6338C226.312 87.6338 228.282 87.9927 229.941 88.7104C231.6 89.4123 232.876 90.4012 233.769 91.6772C234.662 92.9373 235.109 94.3809 235.109 96.0078H227.644C227.644 95.3379 227.517 94.7557 227.261 94.2612C227.006 93.7668 226.615 93.384 226.089 93.1128C225.563 92.8257 224.869 92.6821 224.008 92.6821C223.338 92.6821 222.747 92.8018 222.237 93.041C221.743 93.2643 221.352 93.5754 221.065 93.9741C220.793 94.3729 220.658 94.8354 220.658 95.3618C220.658 95.7287 220.738 96.0636 220.897 96.3667C221.073 96.6538 221.336 96.925 221.687 97.1802C222.054 97.4194 222.524 97.6348 223.098 97.8262C223.689 98.0176 224.406 98.201 225.252 98.3765C227.054 98.7114 228.697 99.182 230.18 99.7881C231.68 100.394 232.876 101.232 233.769 102.3C234.678 103.369 235.133 104.781 235.133 106.535C235.133 107.684 234.87 108.736 234.343 109.693C233.833 110.65 233.091 111.488 232.118 112.206C231.145 112.923 229.981 113.482 228.625 113.88C227.269 114.279 225.738 114.479 224.031 114.479C221.591 114.479 219.525 114.04 217.835 113.163C216.144 112.285 214.868 111.185 214.007 109.861C213.161 108.521 212.738 107.149 212.738 105.746H219.749C219.781 106.607 219.996 107.309 220.395 107.851C220.809 108.393 221.344 108.792 221.998 109.047C222.652 109.287 223.385 109.406 224.199 109.406C225.012 109.406 225.69 109.295 226.233 109.071C226.775 108.848 227.19 108.545 227.477 108.162C227.764 107.763 227.907 107.309 227.907 106.798Z" fill="#828282"/>
</svg>
