<svg width="72" height="72" viewBox="0 0 72 72" fill="none" xmlns="http://www.w3.org/2000/svg">
<path d="M36 0C16.1182 0 0 16.1182 0 36C0 55.8818 16.1182 72 36 72C55.8818 72 72 55.8818 72 36C72 16.1182 55.8818 0 36 0ZM36 66C19.4318 66 6.00005 52.5682 6.00005 36C6.00005 19.4318 19.4318 6.00005 36 6.00005C52.5682 6.00005 66 19.4318 66 36C66 52.5682 52.5682 66 36 66Z" fill="white"/>
<path d="M48.8788 27.8787L36 40.7574L23.1213 27.8787C21.9498 26.7071 20.0502 26.7071 18.8787 27.8787C17.7071 29.0502 17.7071 30.9498 18.8787 32.1213L33.8787 47.1214C35.0503 48.2929 36.9498 48.2929 38.1214 47.1214L53.1214 32.1213C54.293 30.9498 54.293 29.0502 53.1214 27.8787C51.9497 26.7071 50.0503 26.7071 48.8788 27.8787Z" fill="white"/>
</svg>
