<svg width="262" height="173" viewBox="0 0 262 173" fill="none" xmlns="http://www.w3.org/2000/svg">
<path d="M84.375 23.4688V28.1562C84.375 31.3789 86.4258 34.0156 89.3555 34.8945C112.207 41.3398 128.906 62.1406 128.906 86.75C128.906 116.633 104.59 140.656 75 140.656C45.1172 140.656 21.0938 116.633 21.0938 86.75C21.0938 62.1406 37.5 41.3398 60.3516 34.8945C63.2812 34.0156 65.625 31.3789 65.625 28.1562V23.4688C65.625 18.7812 61.2305 15.2656 56.543 16.4375C25.1953 24.6406 2.05078 53.3516 2.34375 87.3359C2.34375 127.473 34.8633 159.699 75 159.406C115.137 159.406 147.656 126.887 147.656 86.75C147.656 53.0586 124.219 24.6406 92.8711 16.4375C88.4766 15.2656 84.375 18.7812 84.375 23.4688Z" fill="#FAD62C" fill-opacity="0.3"/>
<path d="M6.91406 29.041L2.20703 42H0.283203L5.70312 27.7812H6.94336L6.91406 29.041ZM10.8594 42L6.14258 29.041L6.11328 27.7812H7.35352L12.793 42H10.8594ZM10.6152 36.7363V38.2793H2.62695V36.7363H10.6152ZM34.166 34.9199V40.125C33.9902 40.3854 33.7103 40.6784 33.3262 41.0039C32.9421 41.3229 32.4115 41.6029 31.7344 41.8438C31.0638 42.0781 30.1979 42.1953 29.1367 42.1953C28.2708 42.1953 27.4733 42.0456 26.7441 41.7461C26.0215 41.4401 25.3932 40.9974 24.8594 40.418C24.332 39.832 23.9219 39.1224 23.6289 38.2891C23.3424 37.4492 23.1992 36.4987 23.1992 35.4375V34.334C23.1992 33.2728 23.3229 32.3255 23.5703 31.4922C23.8242 30.6589 24.1953 29.9525 24.6836 29.373C25.1719 28.7871 25.7708 28.3444 26.4805 28.0449C27.1901 27.7389 28.0039 27.5859 28.9219 27.5859C30.0091 27.5859 30.9173 27.7747 31.6465 28.1523C32.3822 28.5234 32.9551 29.0378 33.3652 29.6953C33.7819 30.3529 34.0488 31.1016 34.166 31.9414H32.2812C32.1966 31.4271 32.0273 30.9583 31.7734 30.5352C31.526 30.112 31.1712 29.7734 30.709 29.5195C30.2467 29.2591 29.651 29.1289 28.9219 29.1289C28.2643 29.1289 27.6947 29.2493 27.2129 29.4902C26.7311 29.7311 26.334 30.0762 26.0215 30.5254C25.709 30.9746 25.4746 31.5182 25.3184 32.1562C25.1686 32.7943 25.0938 33.5137 25.0938 34.3145V35.4375C25.0938 36.2578 25.1882 36.9902 25.377 37.6348C25.5723 38.2793 25.849 38.8294 26.207 39.2852C26.5651 39.7344 26.9915 40.0762 27.4863 40.3105C27.9876 40.5449 28.541 40.6621 29.1465 40.6621C29.8171 40.6621 30.3607 40.6068 30.7773 40.4961C31.194 40.3789 31.5195 40.2422 31.7539 40.0859C31.9883 39.9232 32.1673 39.7702 32.291 39.627V36.4434H29V34.9199H34.166ZM40.9805 27V42H39.1641V27H40.9805ZM47.8438 31.4336V42H46.0273V31.4336H47.8438ZM45.8906 28.6309C45.8906 28.3379 45.9785 28.0905 46.1543 27.8887C46.3366 27.6868 46.6035 27.5859 46.9551 27.5859C47.3001 27.5859 47.5638 27.6868 47.7461 27.8887C47.9349 28.0905 48.0293 28.3379 48.0293 28.6309C48.0293 28.9108 47.9349 29.1517 47.7461 29.3535C47.5638 29.5488 47.3001 29.6465 46.9551 29.6465C46.6035 29.6465 46.3366 29.5488 46.1543 29.3535C45.9785 29.1517 45.8906 28.9108 45.8906 28.6309ZM54.541 33.5332V42H52.7246V31.4336H54.4434L54.541 33.5332ZM54.1699 36.3164L53.3301 36.2871C53.3366 35.5645 53.431 34.8971 53.6133 34.2852C53.7956 33.6667 54.0658 33.1296 54.4238 32.6738C54.7819 32.2181 55.2279 31.8665 55.7617 31.6191C56.2956 31.3652 56.9141 31.2383 57.6172 31.2383C58.112 31.2383 58.5677 31.3099 58.9844 31.4531C59.401 31.5898 59.7624 31.8079 60.0684 32.1074C60.3743 32.4069 60.612 32.791 60.7812 33.2598C60.9505 33.7285 61.0352 34.2949 61.0352 34.959V42H59.2285V35.0469C59.2285 34.4935 59.1341 34.0508 58.9453 33.7188C58.763 33.3867 58.5026 33.1458 58.1641 32.9961C57.8255 32.8398 57.4284 32.7617 56.9727 32.7617C56.4388 32.7617 55.9928 32.8561 55.6348 33.0449C55.2767 33.2337 54.9902 33.4941 54.7754 33.8262C54.5605 34.1582 54.4043 34.5391 54.3066 34.9688C54.2155 35.3919 54.1699 35.8411 54.1699 36.3164ZM61.0156 35.3203L59.8047 35.6914C59.8112 35.112 59.9056 34.5553 60.0879 34.0215C60.2767 33.4876 60.5469 33.0124 60.8984 32.5957C61.2565 32.179 61.696 31.8503 62.2168 31.6094C62.7376 31.362 63.3333 31.2383 64.0039 31.2383C64.5703 31.2383 65.0716 31.3132 65.5078 31.4629C65.9505 31.6126 66.3216 31.8438 66.6211 32.1562C66.9271 32.4622 67.1582 32.8561 67.3145 33.3379C67.4707 33.8197 67.5488 34.3926 67.5488 35.0566V42H65.7324V35.0371C65.7324 34.4447 65.638 33.9857 65.4492 33.6602C65.2669 33.3281 65.0065 33.097 64.668 32.9668C64.3359 32.8301 63.9388 32.7617 63.4766 32.7617C63.0794 32.7617 62.7279 32.8301 62.4219 32.9668C62.1159 33.1035 61.8587 33.2923 61.6504 33.5332C61.4421 33.7676 61.2826 34.0378 61.1719 34.3438C61.0677 34.6497 61.0156 34.9753 61.0156 35.3203ZM74.0898 33.4648V46.0625H72.2734V31.4336H73.9336L74.0898 33.4648ZM81.209 36.6289V36.834C81.209 37.6022 81.1178 38.3151 80.9355 38.9727C80.7533 39.6237 80.4863 40.1901 80.1348 40.6719C79.7897 41.1536 79.3633 41.528 78.8555 41.7949C78.3477 42.0618 77.765 42.1953 77.1074 42.1953C76.4368 42.1953 75.8444 42.0846 75.3301 41.8633C74.8158 41.6419 74.3796 41.3197 74.0215 40.8965C73.6634 40.4733 73.377 39.9655 73.1621 39.373C72.9538 38.7806 72.8105 38.1133 72.7324 37.3711V36.2773C72.8105 35.4961 72.957 34.7962 73.1719 34.1777C73.3867 33.5592 73.6699 33.0319 74.0215 32.5957C74.3796 32.153 74.8125 31.8177 75.3203 31.5898C75.8281 31.3555 76.4141 31.2383 77.0781 31.2383C77.7422 31.2383 78.3314 31.3685 78.8457 31.6289C79.36 31.8828 79.793 32.2474 80.1445 32.7227C80.4961 33.1979 80.7598 33.7676 80.9355 34.4316C81.1178 35.0892 81.209 35.8216 81.209 36.6289ZM79.3926 36.834V36.6289C79.3926 36.1016 79.3372 35.6068 79.2266 35.1445C79.1159 34.6758 78.9434 34.2656 78.709 33.9141C78.4811 33.556 78.1882 33.276 77.8301 33.0742C77.472 32.8659 77.0456 32.7617 76.5508 32.7617C76.0951 32.7617 75.6979 32.8398 75.3594 32.9961C75.0273 33.1523 74.7441 33.3639 74.5098 33.6309C74.2754 33.8913 74.0833 34.1908 73.9336 34.5293C73.7904 34.8613 73.6829 35.2064 73.6113 35.5645V38.0938C73.7415 38.5495 73.9238 38.9792 74.1582 39.3828C74.3926 39.7799 74.7051 40.1022 75.0957 40.3496C75.4863 40.5905 75.9779 40.7109 76.5703 40.7109C77.0586 40.7109 77.4785 40.61 77.8301 40.4082C78.1882 40.1999 78.4811 39.9167 78.709 39.5586C78.9434 39.2005 79.1159 38.7904 79.2266 38.3281C79.3372 37.8594 79.3926 37.3613 79.3926 36.834ZM91.666 39.1973C91.666 38.9368 91.6074 38.696 91.4902 38.4746C91.3796 38.2467 91.1484 38.0417 90.7969 37.8594C90.4518 37.6706 89.931 37.5078 89.2344 37.3711C88.6484 37.2474 88.1178 37.1009 87.6426 36.9316C87.1738 36.7624 86.7734 36.5573 86.4414 36.3164C86.1159 36.0755 85.8652 35.7923 85.6895 35.4668C85.5137 35.1413 85.4258 34.7604 85.4258 34.3242C85.4258 33.9076 85.5169 33.5137 85.6992 33.1426C85.888 32.7715 86.1517 32.4427 86.4902 32.1562C86.8353 31.8698 87.2487 31.6452 87.7305 31.4824C88.2122 31.3197 88.7493 31.2383 89.3418 31.2383C90.1882 31.2383 90.9108 31.388 91.5098 31.6875C92.1087 31.987 92.5677 32.3874 92.8867 32.8887C93.2057 33.3835 93.3652 33.9336 93.3652 34.5391H91.5586C91.5586 34.2461 91.4707 33.9629 91.2949 33.6895C91.1257 33.4095 90.875 33.1784 90.543 32.9961C90.2174 32.8138 89.8171 32.7227 89.3418 32.7227C88.8405 32.7227 88.4336 32.8008 88.1211 32.957C87.8151 33.1068 87.5905 33.2988 87.4473 33.5332C87.3105 33.7676 87.2422 34.015 87.2422 34.2754C87.2422 34.4707 87.2747 34.6465 87.3398 34.8027C87.4115 34.9525 87.5352 35.0924 87.7109 35.2227C87.8867 35.3464 88.1341 35.4635 88.4531 35.5742C88.7721 35.6849 89.179 35.7956 89.6738 35.9062C90.5397 36.1016 91.2526 36.3359 91.8125 36.6094C92.3724 36.8828 92.7891 37.2181 93.0625 37.6152C93.3359 38.0124 93.4727 38.4941 93.4727 39.0605C93.4727 39.5228 93.375 39.946 93.1797 40.3301C92.9909 40.7142 92.7142 41.0462 92.3496 41.3262C91.9915 41.5996 91.5618 41.8145 91.0605 41.9707C90.5658 42.1204 90.0091 42.1953 89.3906 42.1953C88.4596 42.1953 87.6719 42.0293 87.0273 41.6973C86.3828 41.3652 85.8945 40.9355 85.5625 40.4082C85.2305 39.8809 85.0645 39.3242 85.0645 38.7383H86.8809C86.9069 39.2331 87.0501 39.627 87.3105 39.9199C87.571 40.2064 87.89 40.4115 88.2676 40.5352C88.6452 40.6523 89.0195 40.7109 89.3906 40.7109C89.8854 40.7109 90.2988 40.6458 90.6309 40.5156C90.9694 40.3854 91.2266 40.2064 91.4023 39.9785C91.5781 39.7507 91.666 39.4902 91.666 39.1973ZM102.23 42.1953C101.495 42.1953 100.827 42.0716 100.229 41.8242C99.6361 41.5703 99.125 41.2155 98.6953 40.7598C98.2721 40.304 97.9466 39.7637 97.7188 39.1387C97.4909 38.5137 97.377 37.8301 97.377 37.0879V36.6777C97.377 35.8184 97.5039 35.0534 97.7578 34.3828C98.0117 33.7057 98.3568 33.1328 98.793 32.6641C99.2292 32.1953 99.724 31.8405 100.277 31.5996C100.831 31.3587 101.404 31.2383 101.996 31.2383C102.751 31.2383 103.402 31.3685 103.949 31.6289C104.503 31.8893 104.955 32.2539 105.307 32.7227C105.658 33.1849 105.919 33.7318 106.088 34.3633C106.257 34.9883 106.342 35.6719 106.342 36.4141V37.2246H98.4512V35.75H104.535V35.6133C104.509 35.1445 104.411 34.6888 104.242 34.2461C104.079 33.8034 103.819 33.4388 103.461 33.1523C103.103 32.8659 102.615 32.7227 101.996 32.7227C101.586 32.7227 101.208 32.8105 100.863 32.9863C100.518 33.1556 100.222 33.4095 99.9746 33.748C99.7272 34.0866 99.5352 34.5 99.3984 34.9883C99.2617 35.4766 99.1934 36.0397 99.1934 36.6777V37.0879C99.1934 37.5892 99.2617 38.0612 99.3984 38.5039C99.5417 38.9401 99.7467 39.3242 100.014 39.6562C100.287 39.9883 100.616 40.2487 101 40.4375C101.391 40.6263 101.833 40.7207 102.328 40.7207C102.966 40.7207 103.507 40.5905 103.949 40.3301C104.392 40.0697 104.779 39.7214 105.111 39.2852L106.205 40.1543C105.977 40.4993 105.688 40.8281 105.336 41.1406C104.984 41.4531 104.551 41.707 104.037 41.9023C103.529 42.0977 102.927 42.1953 102.23 42.1953ZM119.707 27.7812V42H117.822V27.7812H119.707ZM126.668 33.6895V42H124.861V31.4336H126.57L126.668 33.6895ZM126.238 36.3164L125.486 36.2871C125.493 35.5645 125.6 34.8971 125.809 34.2852C126.017 33.6667 126.31 33.1296 126.688 32.6738C127.065 32.2181 127.514 31.8665 128.035 31.6191C128.562 31.3652 129.145 31.2383 129.783 31.2383C130.304 31.2383 130.773 31.3099 131.189 31.4531C131.606 31.5898 131.961 31.8112 132.254 32.1172C132.553 32.4232 132.781 32.8203 132.938 33.3086C133.094 33.7904 133.172 34.3796 133.172 35.0762V42H131.355V35.0566C131.355 34.5033 131.274 34.0605 131.111 33.7285C130.949 33.39 130.711 33.1458 130.398 32.9961C130.086 32.8398 129.702 32.7617 129.246 32.7617C128.797 32.7617 128.387 32.8561 128.016 33.0449C127.651 33.2337 127.335 33.4941 127.068 33.8262C126.808 34.1582 126.603 34.5391 126.453 34.9688C126.31 35.3919 126.238 35.8411 126.238 36.3164ZM142.34 31.4336V32.8203H136.627V31.4336H142.34ZM138.561 28.8652H140.367V39.3828C140.367 39.7409 140.423 40.0111 140.533 40.1934C140.644 40.3757 140.787 40.4961 140.963 40.5547C141.139 40.6133 141.327 40.6426 141.529 40.6426C141.679 40.6426 141.835 40.6296 141.998 40.6035C142.167 40.571 142.294 40.5449 142.379 40.5254L142.389 42C142.245 42.0456 142.057 42.0879 141.822 42.127C141.594 42.1725 141.318 42.1953 140.992 42.1953C140.549 42.1953 140.143 42.1074 139.771 41.9316C139.4 41.7559 139.104 41.4629 138.883 41.0527C138.668 40.6361 138.561 40.0762 138.561 39.373V28.8652ZM145.785 36.834V36.6094C145.785 35.8477 145.896 35.1413 146.117 34.4902C146.339 33.8327 146.658 33.263 147.074 32.7812C147.491 32.293 147.995 31.9154 148.588 31.6484C149.18 31.375 149.844 31.2383 150.58 31.2383C151.322 31.2383 151.99 31.375 152.582 31.6484C153.181 31.9154 153.689 32.293 154.105 32.7812C154.529 33.263 154.851 33.8327 155.072 34.4902C155.294 35.1413 155.404 35.8477 155.404 36.6094V36.834C155.404 37.5957 155.294 38.3021 155.072 38.9531C154.851 39.6042 154.529 40.1738 154.105 40.6621C153.689 41.1439 153.184 41.5215 152.592 41.7949C152.006 42.0618 151.342 42.1953 150.6 42.1953C149.857 42.1953 149.19 42.0618 148.598 41.7949C148.005 41.5215 147.497 41.1439 147.074 40.6621C146.658 40.1738 146.339 39.6042 146.117 38.9531C145.896 38.3021 145.785 37.5957 145.785 36.834ZM147.592 36.6094V36.834C147.592 37.3613 147.654 37.8594 147.777 38.3281C147.901 38.7904 148.087 39.2005 148.334 39.5586C148.588 39.9167 148.904 40.1999 149.281 40.4082C149.659 40.61 150.098 40.7109 150.6 40.7109C151.094 40.7109 151.527 40.61 151.898 40.4082C152.276 40.1999 152.589 39.9167 152.836 39.5586C153.083 39.2005 153.269 38.7904 153.393 38.3281C153.523 37.8594 153.588 37.3613 153.588 36.834V36.6094C153.588 36.0885 153.523 35.597 153.393 35.1348C153.269 34.666 153.08 34.2526 152.826 33.8945C152.579 33.5299 152.266 33.2435 151.889 33.0352C151.518 32.8268 151.081 32.7227 150.58 32.7227C150.085 32.7227 149.649 32.8268 149.271 33.0352C148.9 33.2435 148.588 33.5299 148.334 33.8945C148.087 34.2526 147.901 34.666 147.777 35.1348C147.654 35.597 147.592 36.0885 147.592 36.6094ZM177.852 34.4414V35.3398C177.852 36.4076 177.718 37.3646 177.451 38.2109C177.184 39.0573 176.8 39.7767 176.299 40.3691C175.798 40.9616 175.195 41.4141 174.492 41.7266C173.796 42.0391 173.014 42.1953 172.148 42.1953C171.309 42.1953 170.537 42.0391 169.834 41.7266C169.137 41.4141 168.532 40.9616 168.018 40.3691C167.51 39.7767 167.116 39.0573 166.836 38.2109C166.556 37.3646 166.416 36.4076 166.416 35.3398V34.4414C166.416 33.3737 166.553 32.4199 166.826 31.5801C167.106 30.7337 167.5 30.0143 168.008 29.4219C168.516 28.8229 169.118 28.3672 169.814 28.0547C170.518 27.7422 171.289 27.5859 172.129 27.5859C172.995 27.5859 173.776 27.7422 174.473 28.0547C175.176 28.3672 175.778 28.8229 176.279 29.4219C176.787 30.0143 177.174 30.7337 177.441 31.5801C177.715 32.4199 177.852 33.3737 177.852 34.4414ZM175.986 35.3398V34.4219C175.986 33.5755 175.898 32.8268 175.723 32.1758C175.553 31.5247 175.303 30.9779 174.971 30.5352C174.639 30.0924 174.232 29.7572 173.75 29.5293C173.275 29.3014 172.734 29.1875 172.129 29.1875C171.543 29.1875 171.012 29.3014 170.537 29.5293C170.068 29.7572 169.665 30.0924 169.326 30.5352C168.994 30.9779 168.737 31.5247 168.555 32.1758C168.372 32.8268 168.281 33.5755 168.281 34.4219V35.3398C168.281 36.1927 168.372 36.9479 168.555 37.6055C168.737 38.2565 168.997 38.8066 169.336 39.2559C169.681 39.6986 170.088 40.0339 170.557 40.2617C171.032 40.4896 171.562 40.6035 172.148 40.6035C172.76 40.6035 173.304 40.4896 173.779 40.2617C174.255 40.0339 174.655 39.6986 174.98 39.2559C175.312 38.8066 175.563 38.2565 175.732 37.6055C175.902 36.9479 175.986 36.1927 175.986 35.3398ZM188.865 39.5586V31.4336H190.682V42H188.953L188.865 39.5586ZM189.207 37.332L189.959 37.3125C189.959 38.0156 189.884 38.6667 189.734 39.2656C189.591 39.8581 189.357 40.3724 189.031 40.8086C188.706 41.2448 188.279 41.5866 187.752 41.834C187.225 42.0749 186.583 42.1953 185.828 42.1953C185.314 42.1953 184.842 42.1204 184.412 41.9707C183.989 41.821 183.624 41.5898 183.318 41.2773C183.012 40.9648 182.775 40.5579 182.605 40.0566C182.443 39.5553 182.361 38.9531 182.361 38.25V31.4336H184.168V38.2695C184.168 38.7448 184.22 39.1387 184.324 39.4512C184.435 39.7572 184.581 40.0013 184.764 40.1836C184.952 40.3594 185.161 40.4831 185.389 40.5547C185.623 40.6263 185.864 40.6621 186.111 40.6621C186.88 40.6621 187.488 40.5156 187.938 40.2227C188.387 39.9232 188.709 39.5228 188.904 39.0215C189.106 38.5137 189.207 37.9505 189.207 37.332ZM197.242 33.0938V42H195.436V31.4336H197.193L197.242 33.0938ZM200.543 31.375L200.533 33.0547C200.383 33.0221 200.24 33.0026 200.104 32.9961C199.973 32.9831 199.824 32.9766 199.654 32.9766C199.238 32.9766 198.87 33.0417 198.551 33.1719C198.232 33.3021 197.962 33.4844 197.74 33.7188C197.519 33.9531 197.343 34.2331 197.213 34.5586C197.089 34.8776 197.008 35.2292 196.969 35.6133L196.461 35.9062C196.461 35.2682 196.523 34.6693 196.646 34.1094C196.777 33.5495 196.975 33.0547 197.242 32.625C197.509 32.1888 197.848 31.8503 198.258 31.6094C198.674 31.362 199.169 31.2383 199.742 31.2383C199.872 31.2383 200.022 31.2546 200.191 31.2871C200.361 31.3132 200.478 31.3424 200.543 31.375ZM215.188 37.7031L218.01 27.7812H219.377L218.586 31.6387L215.549 42H214.191L215.188 37.7031ZM212.268 27.7812L214.514 37.5078L215.188 42H213.84L210.393 27.7812H212.268ZM223.029 37.498L225.227 27.7812H227.111L223.674 42H222.326L223.029 37.498ZM219.582 27.7812L222.326 37.7031L223.322 42H221.965L219.035 31.6387L218.234 27.7812H219.582ZM230.137 36.834V36.6094C230.137 35.8477 230.247 35.1413 230.469 34.4902C230.69 33.8327 231.009 33.263 231.426 32.7812C231.842 32.293 232.347 31.9154 232.939 31.6484C233.532 31.375 234.196 31.2383 234.932 31.2383C235.674 31.2383 236.341 31.375 236.934 31.6484C237.533 31.9154 238.04 32.293 238.457 32.7812C238.88 33.263 239.202 33.8327 239.424 34.4902C239.645 35.1413 239.756 35.8477 239.756 36.6094V36.834C239.756 37.5957 239.645 38.3021 239.424 38.9531C239.202 39.6042 238.88 40.1738 238.457 40.6621C238.04 41.1439 237.536 41.5215 236.943 41.7949C236.357 42.0618 235.693 42.1953 234.951 42.1953C234.209 42.1953 233.542 42.0618 232.949 41.7949C232.357 41.5215 231.849 41.1439 231.426 40.6621C231.009 40.1738 230.69 39.6042 230.469 38.9531C230.247 38.3021 230.137 37.5957 230.137 36.834ZM231.943 36.6094V36.834C231.943 37.3613 232.005 37.8594 232.129 38.3281C232.253 38.7904 232.438 39.2005 232.686 39.5586C232.939 39.9167 233.255 40.1999 233.633 40.4082C234.01 40.61 234.45 40.7109 234.951 40.7109C235.446 40.7109 235.879 40.61 236.25 40.4082C236.628 40.1999 236.94 39.9167 237.188 39.5586C237.435 39.2005 237.62 38.7904 237.744 38.3281C237.874 37.8594 237.939 37.3613 237.939 36.834V36.6094C237.939 36.0885 237.874 35.597 237.744 35.1348C237.62 34.666 237.432 34.2526 237.178 33.8945C236.93 33.5299 236.618 33.2435 236.24 33.0352C235.869 32.8268 235.433 32.7227 234.932 32.7227C234.437 32.7227 234.001 32.8268 233.623 33.0352C233.252 33.2435 232.939 33.5299 232.686 33.8945C232.438 34.2526 232.253 34.666 232.129 35.1348C232.005 35.597 231.943 36.0885 231.943 36.6094ZM245.828 33.0938V42H244.021V31.4336H245.779L245.828 33.0938ZM249.129 31.375L249.119 33.0547C248.969 33.0221 248.826 33.0026 248.689 32.9961C248.559 32.9831 248.41 32.9766 248.24 32.9766C247.824 32.9766 247.456 33.0417 247.137 33.1719C246.818 33.3021 246.548 33.4844 246.326 33.7188C246.105 33.9531 245.929 34.2331 245.799 34.5586C245.675 34.8776 245.594 35.2292 245.555 35.6133L245.047 35.9062C245.047 35.2682 245.109 34.6693 245.232 34.1094C245.363 33.5495 245.561 33.0547 245.828 32.625C246.095 32.1888 246.434 31.8503 246.844 31.6094C247.26 31.362 247.755 31.2383 248.328 31.2383C248.458 31.2383 248.608 31.2546 248.777 31.2871C248.947 31.3132 249.064 31.3424 249.129 31.375ZM254.615 27V42H252.799V27H254.615ZM261.07 31.4336L256.461 36.3652L253.883 39.041L253.736 37.1172L255.582 34.9102L258.863 31.4336H261.07ZM259.42 42L255.65 36.9609L256.588 35.3496L261.549 42H259.42Z" fill="#828282"/>
<path d="M22.897 104.324H30.6489C30.5213 106.717 29.8674 108.83 28.687 110.665C27.5226 112.483 25.9036 113.91 23.8301 114.947C21.7565 115.968 19.2922 116.479 16.437 116.479C14.1561 116.479 12.1144 116.088 10.312 115.306C8.5096 114.525 6.97835 113.408 5.71826 111.957C4.47412 110.489 3.51709 108.727 2.84717 106.669C2.1932 104.595 1.86621 102.259 1.86621 99.6587V97.5293C1.86621 94.9294 2.20915 92.5926 2.89502 90.519C3.58089 88.4455 4.56185 86.675 5.83789 85.2075C7.11393 83.7401 8.64518 82.6156 10.4316 81.834C12.2181 81.0524 14.2119 80.6616 16.4131 80.6616C19.3799 80.6616 21.8841 81.196 23.9258 82.2646C25.9674 83.3333 27.5465 84.8008 28.6631 86.667C29.7956 88.5332 30.4735 90.6626 30.6968 93.0552H22.9209C22.8571 91.6994 22.6019 90.5589 22.1553 89.6338C21.7087 88.6927 21.0228 87.9829 20.0977 87.5044C19.1725 87.0259 17.9443 86.7866 16.4131 86.7866C15.2965 86.7866 14.3156 86.994 13.4702 87.4087C12.6408 87.8234 11.9469 88.4694 11.3887 89.3467C10.8464 90.224 10.4396 91.3405 10.1685 92.6963C9.8973 94.0361 9.76172 95.6312 9.76172 97.4814V99.6587C9.76172 101.493 9.88135 103.08 10.1206 104.42C10.3599 105.76 10.7427 106.868 11.269 107.746C11.8114 108.623 12.5052 109.277 13.3506 109.708C14.196 110.138 15.2248 110.354 16.437 110.354C17.8247 110.354 18.9811 110.138 19.9062 109.708C20.8314 109.261 21.5412 108.591 22.0356 107.698C22.5301 106.805 22.8172 105.68 22.897 104.324ZM53.2062 109.827V98.7256C53.2062 97.944 53.0865 97.2741 52.8473 96.7158C52.608 96.1576 52.2332 95.7189 51.7228 95.3999C51.2123 95.0809 50.5504 94.9214 49.7369 94.9214C49.051 94.9214 48.4529 95.041 47.9425 95.2803C47.448 95.5195 47.0652 95.8625 46.794 96.3091C46.5388 96.7557 46.4112 97.306 46.4112 97.96H38.9464C38.9464 96.7956 39.2096 95.7109 39.7359 94.7061C40.2623 93.7012 41.012 92.8159 41.985 92.0503C42.9739 91.2847 44.1542 90.6945 45.526 90.2798C46.8977 89.8491 48.4369 89.6338 50.1437 89.6338C52.1694 89.6338 53.9718 89.9767 55.5509 90.6626C57.1459 91.3325 58.406 92.3454 59.3312 93.7012C60.2563 95.041 60.7188 96.7318 60.7188 98.7734V109.612C60.7188 111.175 60.8066 112.403 60.982 113.296C61.1734 114.174 61.4446 114.939 61.7955 115.593V116H54.2589C53.908 115.25 53.6448 114.325 53.4693 113.225C53.2939 112.108 53.2062 110.976 53.2062 109.827ZM54.1393 100.209L54.1871 104.324H50.4786C49.6492 104.324 48.9314 104.428 48.3253 104.635C47.7351 104.843 47.2566 105.13 46.8897 105.497C46.5229 105.847 46.2517 106.262 46.0763 106.741C45.9168 107.203 45.837 107.714 45.837 108.272C45.837 108.798 45.9646 109.277 46.2198 109.708C46.475 110.122 46.8259 110.449 47.2726 110.688C47.7192 110.928 48.2376 111.047 48.8277 111.047C49.8007 111.047 50.6301 110.856 51.316 110.473C52.0178 110.09 52.5602 109.628 52.943 109.085C53.3258 108.527 53.5172 108.009 53.5172 107.53L55.3116 110.641C55.0245 111.279 54.6736 111.941 54.2589 112.626C53.8442 113.296 53.3178 113.926 52.6798 114.517C52.0418 115.091 51.2682 115.561 50.359 115.928C49.4658 116.295 48.3891 116.479 47.129 116.479C45.5021 116.479 44.0266 116.152 42.7027 115.498C41.3788 114.828 40.3181 113.91 39.5206 112.746C38.739 111.582 38.3482 110.242 38.3482 108.727C38.3482 107.371 38.5955 106.167 39.0899 105.114C39.5844 104.061 40.3261 103.168 41.315 102.434C42.3199 101.7 43.58 101.15 45.0953 100.783C46.6106 100.4 48.3811 100.209 50.4068 100.209H54.1393ZM78.0124 96.1416V116H70.5476V90.1123H77.5578L78.0124 96.1416ZM85.7404 89.9209L85.6208 96.8833C85.3018 96.8354 84.8871 96.7956 84.3767 96.7637C83.8662 96.7158 83.4276 96.6919 83.0607 96.6919C82.1037 96.6919 81.2743 96.8115 80.5725 97.0508C79.8866 97.2741 79.3124 97.609 78.8498 98.0557C78.4032 98.5023 78.0682 99.0605 77.8449 99.7305C77.6216 100.384 77.51 101.142 77.51 102.003L76.0983 101.31C76.0983 99.6029 76.2658 98.0397 76.6008 96.6201C76.9357 95.2005 77.4222 93.9723 78.0603 92.9355C78.6983 91.8828 79.4799 91.0693 80.405 90.4951C81.3301 89.9209 82.3828 89.6338 83.5632 89.6338C83.946 89.6338 84.3368 89.6577 84.7355 89.7056C85.1343 89.7534 85.4693 89.8252 85.7404 89.9209ZM105.427 116.479C103.369 116.479 101.527 116.152 99.8997 115.498C98.2728 114.844 96.893 113.942 95.7605 112.794C94.644 111.63 93.7907 110.29 93.2005 108.774C92.6103 107.259 92.3152 105.64 92.3152 103.917V103.008C92.3152 101.078 92.5864 99.2998 93.1287 97.6729C93.671 96.0459 94.4606 94.6343 95.4974 93.438C96.5501 92.2257 97.8421 91.2926 99.3733 90.6387C100.905 89.9688 102.651 89.6338 104.613 89.6338C106.447 89.6338 108.082 89.9368 109.518 90.543C110.953 91.1331 112.166 91.9865 113.155 93.103C114.144 94.2036 114.893 95.5355 115.404 97.0986C115.93 98.6458 116.193 100.384 116.193 102.314V105.377H95.3299V100.568H108.872V99.9937C108.872 99.0845 108.704 98.2869 108.369 97.6011C108.05 96.9152 107.572 96.3888 106.934 96.022C106.312 95.6392 105.522 95.4478 104.565 95.4478C103.656 95.4478 102.898 95.6392 102.292 96.022C101.686 96.4048 101.2 96.9471 100.833 97.6489C100.482 98.3348 100.227 99.1403 100.067 100.065C99.9077 100.975 99.8279 101.956 99.8279 103.008V103.917C99.8279 104.922 99.9635 105.84 100.235 106.669C100.506 107.498 100.905 108.208 101.431 108.798C101.957 109.389 102.595 109.851 103.345 110.186C104.095 110.521 104.948 110.688 105.905 110.688C107.085 110.688 108.21 110.465 109.279 110.019C110.347 109.556 111.272 108.838 112.054 107.865L115.547 111.861C115.021 112.626 114.279 113.368 113.322 114.086C112.381 114.788 111.248 115.362 109.925 115.809C108.601 116.255 107.101 116.479 105.427 116.479ZM136.932 116.479C134.874 116.479 133.032 116.152 131.405 115.498C129.778 114.844 128.399 113.942 127.266 112.794C126.149 111.63 125.296 110.29 124.706 108.774C124.116 107.259 123.821 105.64 123.821 103.917V103.008C123.821 101.078 124.092 99.2998 124.634 97.6729C125.176 96.0459 125.966 94.6343 127.003 93.438C128.056 92.2257 129.348 91.2926 130.879 90.6387C132.41 89.9688 134.157 89.6338 136.119 89.6338C137.953 89.6338 139.588 89.9368 141.023 90.543C142.459 91.1331 143.671 91.9865 144.66 93.103C145.649 94.2036 146.399 95.5355 146.909 97.0986C147.435 98.6458 147.699 100.384 147.699 102.314V105.377H126.835V100.568H140.377V99.9937C140.377 99.0845 140.21 98.2869 139.875 97.6011C139.556 96.9152 139.077 96.3888 138.439 96.022C137.817 95.6392 137.028 95.4478 136.071 95.4478C135.162 95.4478 134.404 95.6392 133.798 96.022C133.192 96.4048 132.705 96.9471 132.338 97.6489C131.987 98.3348 131.732 99.1403 131.573 100.065C131.413 100.975 131.333 101.956 131.333 103.008V103.917C131.333 104.922 131.469 105.84 131.74 106.669C132.011 107.498 132.41 108.208 132.936 108.798C133.463 109.389 134.101 109.851 134.85 110.186C135.6 110.521 136.454 110.688 137.411 110.688C138.591 110.688 139.715 110.465 140.784 110.019C141.853 109.556 142.778 108.838 143.559 107.865L147.053 111.861C146.526 112.626 145.785 113.368 144.828 114.086C143.886 114.788 142.754 115.362 141.43 115.809C140.106 116.255 138.607 116.479 136.932 116.479ZM163.724 96.1416V116H156.259V90.1123H163.27L163.724 96.1416ZM171.452 89.9209L171.333 96.8833C171.014 96.8354 170.599 96.7956 170.088 96.7637C169.578 96.7158 169.139 96.6919 168.772 96.6919C167.815 96.6919 166.986 96.8115 166.284 97.0508C165.598 97.2741 165.024 97.609 164.562 98.0557C164.115 98.5023 163.78 99.0605 163.557 99.7305C163.333 100.384 163.222 101.142 163.222 102.003L161.81 101.31C161.81 99.6029 161.978 98.0397 162.312 96.6201C162.647 95.2005 163.134 93.9723 163.772 92.9355C164.41 91.8828 165.192 91.0693 166.117 90.4951C167.042 89.9209 168.095 89.6338 169.275 89.6338C169.658 89.6338 170.049 89.6577 170.447 89.7056C170.846 89.7534 171.181 89.8252 171.452 89.9209ZM193.196 108.798C193.196 108.32 193.044 107.897 192.741 107.53C192.454 107.163 191.928 106.828 191.162 106.525C190.413 106.222 189.352 105.919 187.98 105.616C186.688 105.345 185.484 104.994 184.367 104.563C183.251 104.117 182.278 103.583 181.448 102.96C180.619 102.322 179.973 101.573 179.51 100.711C179.048 99.8341 178.816 98.8372 178.816 97.7207C178.816 96.6361 179.048 95.6073 179.51 94.6343C179.989 93.6613 180.675 92.8 181.568 92.0503C182.477 91.3006 183.578 90.7104 184.87 90.2798C186.178 89.8491 187.661 89.6338 189.32 89.6338C191.601 89.6338 193.571 89.9927 195.23 90.7104C196.888 91.4123 198.164 92.4012 199.058 93.6772C199.951 94.9373 200.398 96.3809 200.398 98.0078H192.933C192.933 97.3379 192.805 96.7557 192.55 96.2612C192.295 95.7668 191.904 95.384 191.378 95.1128C190.851 94.8257 190.157 94.6821 189.296 94.6821C188.626 94.6821 188.036 94.8018 187.525 95.041C187.031 95.2643 186.64 95.5754 186.353 95.9741C186.082 96.3729 185.946 96.8354 185.946 97.3618C185.946 97.7287 186.026 98.0636 186.186 98.3667C186.361 98.6538 186.624 98.925 186.975 99.1802C187.342 99.4194 187.813 99.6348 188.387 99.8262C188.977 100.018 189.695 100.201 190.54 100.376C192.343 100.711 193.985 101.182 195.469 101.788C196.968 102.394 198.164 103.232 199.058 104.3C199.967 105.369 200.421 106.781 200.421 108.535C200.421 109.684 200.158 110.736 199.632 111.693C199.122 112.65 198.38 113.488 197.407 114.206C196.434 114.923 195.269 115.482 193.914 115.88C192.558 116.279 191.027 116.479 189.32 116.479C186.879 116.479 184.814 116.04 183.123 115.163C181.432 114.285 180.156 113.185 179.295 111.861C178.45 110.521 178.027 109.149 178.027 107.746H185.037C185.069 108.607 185.284 109.309 185.683 109.851C186.098 110.393 186.632 110.792 187.286 111.047C187.94 111.287 188.674 111.406 189.487 111.406C190.301 111.406 190.979 111.295 191.521 111.071C192.063 110.848 192.478 110.545 192.765 110.162C193.052 109.763 193.196 109.309 193.196 108.798Z" fill="#828282"/>
</svg>
