<?xml version="1.0" encoding="utf-8"?>
<!-- Generator: Adobe Illustrator 26.0.0, SVG Export Plug-In . SVG Version: 6.00 Build 0)  -->
<svg version="1.1" id="Layer_1" xmlns="http://www.w3.org/2000/svg" xmlns:xlink="http://www.w3.org/1999/xlink" x="0px" y="0px"
	 viewBox="0 0 800 800" style="enable-background:new 0 0 800 800;" xml:space="preserve">
	 <style>
	  path {
      fill: #972A74;
    }
    @media (prefers-color-scheme: dark) {
      path {
        fill: white;
      }
    }
	 </style>
 
<g>
	<path class="st0" d="M110.4,541.49L110.4,541.49c-37.47-14.44-56.14-56.51-41.7-93.98l113.39-294.31
		c14.44-37.47,56.51-56.14,93.98-41.7l0,0c37.47,14.44,56.14,56.51,41.7,93.98L204.38,499.79
		C189.94,537.26,147.87,555.93,110.4,541.49z"/>
	<path class="st0" d="M243.29,733.59L243.29,733.59c-37.47-14.44-56.14-56.51-41.7-93.98l192.71-500.16
		c14.44-37.47,56.51-56.14,93.98-41.7l0,0c37.47,14.44,56.14,56.51,41.7,93.98L337.27,691.89
		C322.83,729.36,280.76,748.03,243.29,733.59z"/>
	<path class="st0" d="M444.62,740.25L444.62,740.25c-37.47-14.44-56.14-56.51-41.7-93.98l192.71-500.16
		c14.44-37.47,56.51-56.14,93.98-41.7l0,0c37.47,14.44,56.14,56.51,41.7,93.98L538.59,698.55
		C524.16,736.01,482.08,754.68,444.62,740.25z"/>
</g>
</svg>
