<svg width="43" height="48" viewBox="0 0 43 48" fill="none" xmlns="http://www.w3.org/2000/svg">
<path d="M25.8687 37.5989C27.5323 37.5989 28.8857 36.2382 28.8857 34.5658C28.8857 32.8934 27.5323 31.5327 25.8687 31.5327C24.2051 31.5327 22.8516 32.8934 22.8516 34.5658C22.8516 36.2382 24.2051 37.5989 25.8687 37.5989ZM25.8687 32.9391C26.7609 32.9391 27.4869 33.6688 27.4869 34.5659C27.4869 35.463 26.761 36.1927 25.8687 36.1927C24.9764 36.1927 24.2504 35.463 24.2504 34.5659C24.2504 33.6688 24.9764 32.9391 25.8687 32.9391Z" fill="white"/>
<path d="M7.41162 29.1343C7.41162 30.8067 8.76515 32.1674 10.4288 32.1674C12.0924 32.1674 13.4459 30.8067 13.4459 29.1343C13.4459 27.4619 12.0924 26.1012 10.4288 26.1012C8.76515 26.1012 7.41162 27.4619 7.41162 29.1343ZM12.0469 29.1343C12.0469 30.0313 11.321 30.7611 10.4287 30.7611C9.53629 30.7611 8.81038 30.0314 8.81038 29.1343C8.81038 28.2372 9.53629 27.5074 10.4287 27.5074C11.321 27.5074 12.0469 28.2373 12.0469 29.1343Z" fill="white"/>
<path d="M18.7856 33.8629H17.609V32.6801C17.609 32.2916 17.2959 31.9769 16.9095 31.9769C16.5232 31.9769 16.2101 32.2916 16.2101 32.6801V33.8629H15.0334C14.647 33.8629 14.334 34.1776 14.334 34.566C14.334 34.9544 14.647 35.2691 15.0334 35.2691H16.2101V36.4521C16.2101 36.8405 16.5232 37.1552 16.9095 37.1552C17.2959 37.1552 17.609 36.8405 17.609 36.4521V35.2691H18.7856C19.172 35.2691 19.485 34.9544 19.485 34.566C19.485 34.1776 19.1719 33.8629 18.7856 33.8629Z" fill="white"/>
<path d="M33.4877 26.812C33.4877 26.4236 33.1747 26.1089 32.7883 26.1089C32.4019 26.1089 32.0889 26.4236 32.0889 26.812V27.5499C32.0889 27.9383 32.4019 28.253 32.7883 28.253C33.1747 28.253 33.4877 27.9383 33.4877 27.5499V26.812Z" fill="white"/>
<path d="M34.365 28.431C33.9786 28.431 33.6655 28.7457 33.6655 29.1342C33.6655 29.5226 33.9786 29.8373 34.365 29.8373H35.0989C35.4852 29.8373 35.7983 29.5226 35.7983 29.1342C35.7983 28.7457 35.4852 28.431 35.0989 28.431H34.365Z" fill="white"/>
<path d="M32.7883 30.0156C32.4019 30.0156 32.0889 30.3303 32.0889 30.7187V31.4566C32.0889 31.845 32.4019 32.1597 32.7883 32.1597C33.1747 32.1597 33.4877 31.845 33.4877 31.4566V30.7187C33.4877 30.3304 33.1747 30.0156 32.7883 30.0156Z" fill="white"/>
<path d="M30.4787 28.431C30.0924 28.431 29.7793 28.7457 29.7793 29.1342C29.7793 29.5226 30.0924 29.8373 30.4787 29.8373H31.2127C31.599 29.8373 31.9121 29.5226 31.9121 29.1342C31.9121 28.7457 31.599 28.431 31.2127 28.431H30.4787Z" fill="white"/>
<path d="M20.5348 29.9525C20.5348 29.5641 20.2218 29.2494 19.8354 29.2494H19.3396C18.9532 29.2494 18.6401 29.5641 18.6401 29.9525C18.6401 30.3409 18.9532 30.6556 19.3396 30.6556H19.8354C20.2217 30.6556 20.5348 30.3408 20.5348 29.9525Z" fill="white"/>
<path d="M24.5022 29.9525C24.5022 29.5641 24.1891 29.2494 23.8028 29.2494H23.3068C22.9205 29.2494 22.6074 29.5641 22.6074 29.9525C22.6074 30.3409 22.9205 30.6556 23.3068 30.6556H23.8028C24.1891 30.6556 24.5022 30.3408 24.5022 29.9525Z" fill="white"/>
<path d="M42.8694 41.1259C42.5584 39.6901 40.0556 28.1375 39.724 26.6066C39.6637 26.3285 39.5592 26.0618 39.4134 25.814C39.217 25.4797 38.7879 25.3691 38.4555 25.5665C38.123 25.764 38.0127 26.1953 38.2093 26.5295C38.279 26.6481 38.3288 26.7747 38.3572 26.9059L40.1833 35.3349L38.4501 36.1272C37.6089 36.5117 37.0017 37.2855 36.8257 38.1973L36.1793 41.5449C36.0767 42.0756 35.6944 42.5058 35.1812 42.6675L33.0356 43.3439L31.6286 40.9358C30.5299 39.0552 28.4995 37.8869 26.33 37.8869H20.9416C20.5553 37.8869 20.2422 38.2017 20.2422 38.5901C20.2422 38.9785 20.5553 39.2932 20.9416 39.2932H26.33C28.0057 39.2932 29.5738 40.1955 30.4226 41.648C30.9228 42.5041 32.0032 44.3533 32.4995 45.2026C33.5075 46.928 35.3703 47.9998 37.3608 47.9998C39.0753 47.9998 40.6755 47.23 41.7511 45.8879C42.8267 44.5456 43.2343 42.8099 42.8694 41.1259ZM40.6617 45.0056C39.8529 46.0148 38.6498 46.5935 37.3608 46.5935C35.902 46.5935 34.5345 45.8279 33.7643 44.5878L35.5996 44.0093C36.6036 43.693 37.3519 42.8513 37.5524 41.8129L38.1989 38.4652C38.2888 37.9993 38.5992 37.6038 39.029 37.4072L40.4877 36.7405L41.5027 41.4251C41.7769 42.6914 41.4705 43.9964 40.6617 45.0056Z" fill="white"/>
<path d="M18.2339 37.887H16.8129C14.6433 37.887 12.613 39.0552 11.5143 40.9358L10.1073 43.3439L7.96167 42.6676C7.44857 42.5058 7.06612 42.0757 6.96373 41.5449L6.31718 38.1974C6.14102 37.2856 5.53382 36.5118 4.69283 36.1273L2.95957 35.335L4.78572 26.9059C4.82778 26.7119 4.9159 26.5278 5.04068 26.3736L6.87672 24.1042C7.11835 23.8056 7.47655 23.6343 7.85936 23.6343H14.0707C14.4163 23.6343 14.751 23.7788 14.989 24.0307L17.006 26.1648C17.5068 26.6949 18.2111 26.9988 18.9384 26.9988H24.2041C24.9313 26.9988 25.6357 26.6949 26.1366 26.1648L28.1535 24.0305C28.3915 23.7786 28.7262 23.6343 29.0718 23.6343H35.2831C35.666 23.6343 36.0241 23.8055 36.2657 24.1041L36.5582 24.4654C36.802 24.7666 37.2423 24.8123 37.5422 24.5672C37.8419 24.3221 37.8871 23.8792 37.6434 23.578L37.3509 23.2167C36.8426 22.5883 36.0889 22.2279 35.2831 22.2279H33.1266L32.7786 21.2299C32.7465 21.1382 32.7494 21.0381 32.7863 20.9482L33.4551 19.3253C33.4921 19.2353 33.5607 19.1625 33.6478 19.1203L35.803 18.0785C36.4198 17.7803 36.8184 17.1431 36.8184 16.4551V14.1998C36.8184 13.5118 36.4199 12.8746 35.803 12.5763L33.6479 11.5349C33.5606 11.4927 33.4921 11.4198 33.4551 11.3299L32.7864 9.70703C32.7494 9.61703 32.7465 9.51691 32.7787 9.42503L33.5696 7.15647C33.7962 6.50725 33.6298 5.77328 33.1457 5.28672L31.5594 3.69203C31.0754 3.20547 30.3453 3.03832 29.6995 3.26585L27.4428 4.06113C27.3515 4.09338 27.2519 4.09047 27.1624 4.05335L25.5479 3.38097C25.4585 3.34375 25.3861 3.27494 25.3441 3.18728L24.3078 1.02082C24.0112 0.400565 23.3773 -0.00012207 22.6929 -0.00012207H20.4495C19.7651 -0.00012207 19.1312 0.400565 18.8346 1.02063L17.7983 3.18719C17.7563 3.27494 17.684 3.34375 17.5944 3.38097L15.9799 4.05335C15.8906 4.09047 15.791 4.09338 15.6995 4.06113L13.4429 3.26585C12.797 3.03822 12.067 3.20557 11.583 3.69203L9.99662 5.28672C9.5128 5.77319 9.34625 6.50707 9.57268 7.15638L10.3639 9.42522C10.3959 9.517 10.3931 9.61694 10.356 9.70694L9.68719 11.33C9.65027 11.4198 9.58172 11.4926 9.49453 11.5348L7.33946 12.5766C6.72266 12.8748 6.32408 13.5121 6.32408 14.2001V16.4553C6.32408 17.1434 6.72257 17.7806 7.33946 18.0788L9.49453 19.1206C9.58181 19.1628 9.65026 19.2355 9.68729 19.3255L10.356 20.9486C10.3931 21.0385 10.3959 21.1385 10.3638 21.2304L10.0158 22.2282H7.85927C7.05353 22.2282 6.29983 22.5886 5.7914 23.217L3.95545 25.4863C3.69284 25.8108 3.50717 26.1983 3.41876 26.607C3.08388 28.1525 0.583386 39.6942 0.273214 41.1261C-0.0916061 42.8103 0.316019 44.5459 1.39164 45.8881C2.46726 47.2302 4.06764 47.9999 5.78207 47.9999C7.77254 47.9999 9.63525 46.928 10.6434 45.2027C11.1406 44.3518 12.2198 42.5048 12.7204 41.648C13.5691 40.1956 15.1372 39.2932 16.8129 39.2932H18.2339C18.6203 39.2932 18.9333 38.9785 18.9333 38.5901C18.9333 38.2017 18.6202 37.887 18.2339 37.887ZM11.6484 20.4103L10.9797 18.7874C10.8108 18.3772 10.4986 18.0455 10.1007 17.8532L7.94563 16.8114C7.8104 16.7461 7.72293 16.6063 7.72293 16.4553V14.2001C7.72293 14.0492 7.8104 13.9094 7.94563 13.844L10.1007 12.8022C10.4986 12.6098 10.8108 12.2781 10.9796 11.8682L11.6484 10.2453C11.8174 9.8351 11.83 9.37853 11.684 8.95994L10.8929 6.69128C10.8432 6.54888 10.8797 6.38791 10.9858 6.28113L12.5723 4.68644C12.6784 4.57975 12.8385 4.54319 12.9802 4.59297L15.2368 5.38825C15.6533 5.53497 16.1074 5.52241 16.5154 5.35263L18.1298 4.68035C18.5377 4.51057 18.8677 4.19678 19.059 3.79675L20.0954 1.63028C20.1605 1.49425 20.2995 1.40632 20.4497 1.40632H22.6931C22.8431 1.40632 22.9822 1.49425 23.0473 1.63019L24.0836 3.79666C24.275 4.19669 24.605 4.51057 25.0128 4.68025L26.6273 5.35253C27.0353 5.52241 27.4891 5.53488 27.9058 5.38816L30.1625 4.59288C30.3041 4.54291 30.4642 4.57966 30.5704 4.68635L32.1567 6.28103C32.263 6.38782 32.2994 6.54869 32.2497 6.69119L31.4588 8.95966C31.3128 9.37835 31.3252 9.83482 31.4942 10.2451L32.163 11.8682C32.332 12.278 32.6441 12.6097 33.0419 12.8021L35.1971 13.8439C35.3323 13.9093 35.4198 14.0491 35.4198 14.2V16.4553C35.4198 16.6062 35.3323 16.746 35.1971 16.8113L33.0418 17.8532C32.6441 18.0454 32.3321 18.3771 32.163 18.7872L31.4941 20.4103C31.3252 20.8204 31.3128 21.2769 31.4587 21.6954L31.6444 22.228H29.0719C28.3446 22.228 27.6402 22.532 27.1394 23.062L25.1225 25.1962C24.8844 25.4481 24.5497 25.5926 24.2042 25.5926H18.9385C18.5929 25.5926 18.2582 25.4481 18.0202 25.1962L16.0033 23.0621C15.5025 22.532 14.7981 22.2281 14.0708 22.2281H11.4983L11.684 21.6957C11.83 21.2769 11.8174 20.8203 11.6484 20.4103ZM5.78207 46.5936C4.49298 46.5936 3.28979 46.0148 2.48116 45.0057C1.67234 43.9965 1.36581 42.6914 1.64008 41.4252L2.65499 36.7405L4.11371 37.4073C4.54344 37.6038 4.85389 37.9993 4.94388 38.4653L5.59034 41.8128C5.79074 42.8512 6.53904 43.6929 7.54294 44.0093L9.37842 44.5878C8.60831 45.828 7.24079 46.5936 5.78207 46.5936Z" fill="white"/>
<path d="M21.5717 23.4106C26.0052 23.4106 29.6122 19.7847 29.6122 15.3277C29.6122 10.8707 26.0052 7.24475 21.5717 7.24475C20.5361 7.24475 19.525 7.44191 18.5663 7.83069C18.208 7.976 18.0348 8.38569 18.1793 8.74578C18.3239 9.10588 18.7314 9.27997 19.0896 9.13484C19.8813 8.81384 20.7163 8.651 21.5717 8.651C25.2339 8.651 28.2133 11.6461 28.2133 15.3277C28.2133 19.0092 25.2339 22.0044 21.5717 22.0044C17.9095 22.0044 14.9301 19.0092 14.9301 15.3277C14.9301 13.4675 15.6742 11.74 17.0251 10.4633C17.3067 10.1973 17.3203 9.75238 17.0557 9.46934C16.7911 9.1865 16.3485 9.17263 16.067 9.43859C14.4555 10.9615 13.5312 13.108 13.5312 15.3276C13.5312 19.7847 17.1381 23.4106 21.5717 23.4106Z" fill="white"/>
</svg>
