<svg width="153" height="153" viewBox="0 0 153 153" fill="none" xmlns="http://www.w3.org/2000/svg">
<g filter="url(#filter0_d_501_1592)">
<circle cx="76.5" cy="76.5" r="63.5" fill="url(#paint0_linear_501_1592)"/>
</g>
<path d="M48.1289 102.807H50.1934V104.871H48.1289V102.807Z" fill="white"/>
<path d="M56.3872 102.807H58.4517V104.871H56.3872V102.807Z" fill="white"/>
<path d="M60.5161 102.807H62.5806V104.871H60.5161V102.807Z" fill="white"/>
<path d="M52.2583 102.807H54.3228V104.871H52.2583V102.807Z" fill="white"/>
<path d="M93.5483 98.6772H95.6129V100.742H93.5483V98.6772Z" fill="white"/>
<path d="M81.1611 98.6772H83.2256V100.742H81.1611V98.6772Z" fill="white"/>
<path d="M89.4194 98.6772H91.4839V100.742H89.4194V98.6772Z" fill="white"/>
<path d="M85.2905 98.6772H87.355V100.742H85.2905V98.6772Z" fill="white"/>
<path d="M105.935 80.0968H87.3548C86.2163 80.0968 85.2903 81.0227 85.2903 82.1613V84.2258H62.5806C62.0119 84.2258 61.5484 83.7623 61.5484 83.1935V77.9796C69.8302 77.4635 76.4645 70.8302 76.9796 62.5484H90.8449L93.9417 68.7419H107.605L103.992 61.5161L107.605 54.2903H93.9427L90.8459 60.4839H76.9796C76.4428 51.8583 69.2748 45 60.5161 45C51.4095 45 44 52.4095 44 61.5161C44 70.2748 50.8583 77.4428 59.4839 77.9796V83.1935C59.4839 84.9009 60.8733 86.2903 62.5806 86.2903H70.8387V92.4839H57.4194C55.712 92.4839 54.3226 93.8733 54.3226 95.5806V98.6774H46.0645C44.9259 98.6774 44 99.6034 44 100.742V106.935C44 108.074 44.9259 109 46.0645 109H64.6452C65.7837 109 66.7097 108.074 66.7097 106.935V100.742C66.7097 99.6034 65.7837 98.6774 64.6452 98.6774H56.3871V95.5806C56.3871 95.0119 56.8506 94.5484 57.4194 94.5484H70.8387V97.6452C70.8387 99.3525 72.2281 100.742 73.9355 100.742H77.0323V102.806C77.0323 103.945 77.9582 104.871 79.0968 104.871H97.6774C98.816 104.871 99.7419 103.945 99.7419 102.806V96.6129C99.7419 95.4743 98.816 94.5484 97.6774 94.5484H79.0968C77.9582 94.5484 77.0323 95.4743 77.0323 96.6129V98.6774H73.9355C73.3667 98.6774 72.9032 98.2139 72.9032 97.6452V86.2903H85.2903V88.3548C85.2903 89.4934 86.2163 90.4194 87.3548 90.4194H105.935C107.074 90.4194 108 89.4934 108 88.3548V82.1613C108 81.0227 107.074 80.0968 105.935 80.0968ZM95.2186 56.3548H104.265L101.685 61.5161L104.265 66.6774H95.2186L93.1541 62.5484H98.7097V60.4839H93.1541L95.2186 56.3548ZM46.0645 61.5161C46.0645 53.5471 52.5471 47.0645 60.5161 47.0645C68.1363 47.0645 74.3825 52.9969 74.9151 60.4839H72.8506C72.3231 54.1365 66.9977 49.129 60.5161 49.129C53.6857 49.129 48.129 54.6857 48.129 61.5161C48.129 68.3466 53.6857 73.9032 60.5161 73.9032C66.9977 73.9032 72.3231 68.8957 72.8506 62.5484H74.9151C74.3825 70.0354 68.1363 75.9677 60.5161 75.9677C52.5471 75.9677 46.0645 69.4852 46.0645 61.5161ZM66.6168 60.4839C66.1234 57.5595 63.5799 55.3226 60.5161 55.3226C57.1004 55.3226 54.3226 58.1004 54.3226 61.5161C54.3226 64.9319 57.1004 67.7097 60.5161 67.7097C63.5788 67.7097 66.1223 65.4728 66.6168 62.5484H70.7871C70.2679 67.7572 65.8601 71.8387 60.5172 71.8387C54.8253 71.8387 50.1946 67.208 50.1946 61.5161C50.1946 55.8243 54.8243 51.1935 60.5161 51.1935C65.8601 51.1935 70.2668 55.2751 70.7861 60.4839H66.6168ZM64.4986 62.5484C64.0372 64.3239 62.4341 65.6452 60.5161 65.6452C58.239 65.6452 56.3871 63.7933 56.3871 61.5161C56.3871 59.239 58.239 57.3871 60.5161 57.3871C62.4341 57.3871 64.0372 58.7084 64.4986 60.4839H60.5161V62.5484H64.4986ZM64.6462 106.935H46.0645V100.742H64.6452L64.6462 106.935ZM79.0968 96.6129H97.6774L97.6784 102.806H79.0968V96.6129ZM87.3548 88.3548V82.1613H105.935L105.937 88.3548H87.3548Z" fill="white"/>
<path d="M97.6772 84.2256H99.7418V86.2901H97.6772V84.2256Z" fill="white"/>
<path d="M101.807 84.2256H103.871V86.2901H101.807V84.2256Z" fill="white"/>
<path d="M93.5483 84.2256H95.6129V86.2901H93.5483V84.2256Z" fill="white"/>
<path d="M89.4194 84.2256H91.4839V86.2901H89.4194V84.2256Z" fill="white"/>
<defs>
<filter id="filter0_d_501_1592" x="0" y="0" width="153" height="153" filterUnits="userSpaceOnUse" color-interpolation-filters="sRGB">
<feFlood flood-opacity="0" result="BackgroundImageFix"/>
<feColorMatrix in="SourceAlpha" type="matrix" values="0 0 0 0 0 0 0 0 0 0 0 0 0 0 0 0 0 0 127 0" result="hardAlpha"/>
<feOffset/>
<feGaussianBlur stdDeviation="6.5"/>
<feComposite in2="hardAlpha" operator="out"/>
<feColorMatrix type="matrix" values="0 0 0 0 0.872198 0 0 0 0 0.840208 0 0 0 0 0.908333 0 0 0 1 0"/>
<feBlend mode="normal" in2="BackgroundImageFix" result="effect1_dropShadow_501_1592"/>
<feBlend mode="normal" in="SourceGraphic" in2="effect1_dropShadow_501_1592" result="shape"/>
</filter>
<linearGradient id="paint0_linear_501_1592" x1="140.524" y1="172.015" x2="-129.03" y2="36.4341" gradientUnits="userSpaceOnUse">
<stop offset="0.02" stop-color="#45108A"/>
<stop offset="0.2899" stop-color="#3D0661"/>
<stop offset="0.29" stop-color="#3D065F"/>
<stop offset="1" stop-color="#200554"/>
</linearGradient>
</defs>
</svg>
