<svg width="153" height="153" viewBox="0 0 153 153" fill="none" xmlns="http://www.w3.org/2000/svg">
<g filter="url(#filter0_d_500_1507)">
<circle cx="76.5" cy="76.5" r="63.5" fill="url(#paint0_linear_500_1507)"/>
</g>
<path d="M106.342 91.9139C105.44 90.1782 103.443 89.3636 101.581 89.9842L88.5383 94.3188C88.5965 94.0473 88.6256 93.766 88.6256 93.4751C88.6256 91.6036 87.1031 90.0812 85.2316 90.0812H76.388C75.4474 90.0812 74.5359 89.7903 73.7698 89.2376L64.6159 82.6436C63.5977 81.9163 62.405 81.5285 61.154 81.5285H57.8086V80.9757C57.8086 79.0267 56.228 77.446 54.2789 77.446H48.7516C46.8025 77.446 45.2219 79.0267 45.2219 80.9757V96.8594C45.2219 97.257 45.5516 97.5867 45.9492 97.5867C46.3468 97.5867 46.6765 97.257 46.6765 96.8594V80.9757C46.6765 79.8315 47.6074 78.9006 48.7516 78.9006H54.2692C55.4134 78.9006 56.3443 79.8315 56.3443 80.9757V101.465C56.3443 102.61 55.4134 103.541 54.2692 103.541H48.7516C47.6074 103.541 46.6765 102.61 46.6765 101.465V100.011C46.6765 99.6133 46.3468 99.2836 45.9492 99.2836C45.5516 99.2836 45.2219 99.6133 45.2219 100.011V101.465C45.2219 103.415 46.8025 104.995 48.7516 104.995H54.2692C56.2183 104.995 57.7989 103.415 57.7989 101.465V100.137H59.6704C60.3492 100.137 61.0183 100.321 61.6098 100.661L72.5286 107.002C73.3528 107.478 74.274 107.72 75.1953 107.72C75.8159 107.72 76.4268 107.613 77.028 107.39L99.7286 99.08C100.107 98.9442 100.301 98.5273 100.165 98.1491C100.029 97.7709 99.6122 97.577 99.234 97.7127L76.5334 106.023C75.4571 106.421 74.2643 106.314 73.2656 105.732L62.3468 99.4C61.5322 98.9248 60.611 98.6824 59.6801 98.6824H57.8086V82.9733H61.154C62.0947 82.9733 63.0062 83.2642 63.7722 83.817L72.9262 90.4109C73.9443 91.1382 75.1371 91.526 76.388 91.526H85.2316C86.2983 91.526 87.171 92.3988 87.171 93.4654C87.171 93.9891 87.0159 94.5515 86.6571 94.9394L85.3189 95.3854L73.7795 95.4048C73.3722 95.4048 73.0522 95.7345 73.0522 96.1321C73.0522 96.5297 73.3819 96.8594 73.7795 96.8594L85.3383 96.84H85.3965H85.5613C86.2789 96.84 86.9092 96.617 87.4037 96.2194L102.036 91.3612C103.21 90.9733 104.48 91.4873 105.043 92.583C105.372 93.223 105.411 93.9697 105.159 94.6388C104.897 95.3079 104.364 95.8315 103.695 96.0836L101.872 96.7527C101.493 96.8885 101.3 97.3054 101.435 97.6836C101.542 97.9745 101.823 98.1588 102.114 98.1588C102.201 98.1588 102.279 98.1491 102.366 98.1103L104.189 97.4412C105.256 97.0533 106.1 96.2194 106.507 95.1624C106.914 94.1054 106.866 92.9224 106.342 91.9139Z" fill="white"/>
<path d="M82.7881 49.674C83.1856 49.674 83.5153 49.3443 83.5153 48.9467V47.0073C83.5153 46.6097 83.1856 46.28 82.7881 46.28C82.3905 46.28 82.0608 46.6097 82.0608 47.0073V48.9467C82.0608 49.3443 82.3808 49.674 82.7881 49.674Z" fill="white"/>
<path d="M77.1249 50.0716C77.2315 50.3625 77.5127 50.5467 77.8134 50.5467C77.8909 50.5467 77.9782 50.537 78.0655 50.4982C78.4437 50.3625 78.6376 49.9455 78.5018 49.5673L77.8424 47.7443C77.7067 47.3661 77.2897 47.1722 76.9115 47.3079C76.5334 47.4437 76.3394 47.8607 76.4752 48.2388L77.1249 50.0716Z" fill="white"/>
<path d="M72.8777 52.8159C73.0232 52.9904 73.2268 53.0777 73.4304 53.0777C73.5953 53.0777 73.7601 53.0195 73.8959 52.9032C74.2062 52.6413 74.245 52.1856 73.9832 51.8753L72.7323 50.3916C72.4704 50.0813 72.0147 50.0425 71.7044 50.3044C71.3941 50.5662 71.3553 51.0219 71.6171 51.3322L72.8777 52.8159Z" fill="white"/>
<path d="M68.1455 55.8799L69.823 56.8496C69.9394 56.9175 70.0655 56.9466 70.1818 56.9466C70.434 56.9466 70.6764 56.8205 70.8121 56.5781C71.0158 56.229 70.8897 55.783 70.5503 55.589L68.8727 54.6193C68.5236 54.4157 68.0776 54.5417 67.8836 54.8811C67.68 55.2302 67.7964 55.6763 68.1455 55.8799Z" fill="white"/>
<path d="M95.7432 70.1347C95.3941 69.9311 94.948 70.0571 94.7541 70.3965C94.5504 70.7456 94.6765 71.1917 95.0159 71.3856L96.6935 72.3553C96.8098 72.4232 96.9359 72.4523 97.0523 72.4523C97.3044 72.4523 97.5468 72.3262 97.6826 72.0838C97.8862 71.7347 97.7601 71.2886 97.4207 71.0947L95.7432 70.1347Z" fill="white"/>
<path d="M66.4291 61.3492L68.3394 61.6886C68.3782 61.6983 68.4267 61.6983 68.4655 61.6983C68.8146 61.6983 69.1152 61.4461 69.1831 61.0971C69.2509 60.6995 68.9891 60.3213 68.5915 60.2534L66.6812 59.914C66.2837 59.8461 65.9055 60.108 65.8376 60.5055C65.7697 60.9031 66.0315 61.2716 66.4291 61.3492Z" fill="white"/>
<path d="M99.0207 67.0801C99.3698 67.0801 99.6704 66.828 99.7382 66.4789C99.8061 66.0813 99.5443 65.7031 99.1467 65.6353L97.2364 65.2959C96.8388 65.228 96.4607 65.4898 96.3928 65.8874C96.3249 66.285 96.5867 66.6631 96.9843 66.731L98.8946 67.0704C98.9334 67.0801 98.9819 67.0801 99.0207 67.0801Z" fill="white"/>
<path d="M66.5552 67.0801C66.594 67.0801 66.6425 67.0801 66.6812 67.0704L68.5915 66.731C68.9891 66.6631 69.2509 66.285 69.1831 65.8874C69.1152 65.4898 68.737 65.228 68.3394 65.2959L66.4291 65.6353C66.0315 65.7031 65.7697 66.0813 65.8376 66.4789C65.8958 66.8377 66.2061 67.0801 66.5552 67.0801Z" fill="white"/>
<path d="M96.3928 61.0873C96.451 61.4364 96.7613 61.6885 97.1104 61.6885C97.1491 61.6885 97.1976 61.6885 97.2364 61.6788L99.1467 61.3394C99.5443 61.2715 99.8061 60.8933 99.7382 60.4958C99.6704 60.0982 99.2922 59.8364 98.8946 59.9043L96.9843 60.2437C96.5867 60.3212 96.3249 60.6994 96.3928 61.0873Z" fill="white"/>
<path d="M69.823 70.1345L68.1455 71.1042C67.7964 71.3078 67.68 71.7539 67.8836 72.0933C68.0194 72.326 68.2618 72.4618 68.514 72.4618C68.64 72.4618 68.7661 72.4327 68.8727 72.3648L70.5503 71.3951C70.8994 71.1915 71.0158 70.7454 70.8121 70.406C70.6085 70.0666 70.1721 69.9309 69.823 70.1345Z" fill="white"/>
<path d="M95.3843 56.9466C95.5104 56.9466 95.6364 56.9175 95.7431 56.8496L97.4207 55.8799C97.7698 55.6763 97.8861 55.2302 97.6825 54.8908C97.4789 54.5417 97.0425 54.4254 96.6934 54.629L95.0158 55.5987C94.6667 55.8023 94.5504 56.2484 94.754 56.5878C94.8898 56.8108 95.1322 56.9466 95.3843 56.9466Z" fill="white"/>
<path d="M92.1358 53.0777C92.3395 53.0777 92.5528 52.9904 92.6886 52.8159L93.9395 51.3322C94.2013 51.0219 94.1625 50.5662 93.8522 50.3044C93.5419 50.0425 93.0861 50.0813 92.8243 50.3916L91.5734 51.885C91.3116 52.1953 91.3504 52.651 91.6607 52.9129C91.8061 53.0195 91.971 53.0777 92.1358 53.0777Z" fill="white"/>
<path d="M87.5105 50.5078C87.588 50.5369 87.6753 50.5563 87.7626 50.5563C88.0632 50.5563 88.3347 50.3721 88.4511 50.0812L89.1105 48.2581C89.2462 47.88 89.0523 47.463 88.6741 47.3272C88.2959 47.1915 87.879 47.3854 87.7432 47.7636L87.0838 49.5866C86.9384 49.9551 87.1323 50.3721 87.5105 50.5078Z" fill="white"/>
<path d="M70.4244 63.2692C70.3662 66.7407 71.7044 69.9795 74.2062 72.3843C76.1069 74.2171 77.2026 76.7674 77.2123 79.3662C76.0972 79.6862 75.2729 80.7043 75.2729 81.9165C75.2729 83.3904 76.4656 84.5831 77.9396 84.5831H78.4826C78.2984 84.9516 78.182 85.3589 78.182 85.7952C78.182 87.2692 79.3747 88.4619 80.8487 88.4619H84.7275C86.2014 88.4619 87.3941 87.2692 87.3941 85.7952C87.3941 85.3589 87.2778 84.9516 87.0935 84.5831H87.6365C89.1105 84.5831 90.3032 83.3904 90.3032 81.9165C90.3032 80.7043 89.479 79.6862 88.3638 79.3662C88.3735 76.9807 89.3335 74.6243 91.0693 72.7043C91.3408 72.4037 91.3117 71.948 91.0208 71.6765C90.7202 71.4049 90.2644 71.434 89.9929 71.7249C88.0438 73.8777 86.9578 76.5443 86.919 79.2498H83.5153V69.9892C86.7735 69.7565 89.799 67.9819 92.0972 64.8983C92.2911 64.6365 92.2911 64.2874 92.0972 64.0256C89.6244 60.7092 86.3178 58.8862 82.7881 58.8862C79.2584 58.8862 75.9517 60.7092 73.479 64.0256C73.285 64.2874 73.285 64.6365 73.479 64.8983C75.7772 67.9819 78.8026 69.7565 82.0608 69.9892V79.2498H78.6572C78.6184 76.2922 77.3772 73.4122 75.2147 71.3371C73.0135 69.2134 71.8208 66.3528 71.879 63.2983C71.9759 57.6256 76.6693 52.8256 82.3323 52.6025C85.3384 52.4765 88.1796 53.5528 90.342 55.6377C92.5044 57.7128 93.6972 60.5056 93.6972 63.5019C93.6972 65.6546 93.0669 67.7395 91.8838 69.5237C91.6608 69.8534 91.7481 70.3092 92.0875 70.5322C92.4269 70.7553 92.8729 70.668 93.0959 70.3286C94.4438 68.3019 95.1517 65.9456 95.1517 63.5019C95.1517 60.108 93.8038 56.9371 91.3505 54.5807C88.8972 52.2243 85.6875 51.0122 82.2741 51.148C75.8547 51.4001 70.5408 56.8401 70.4244 63.2692ZM74.982 64.4619C77.125 61.7952 79.879 60.3407 82.7881 60.3407C85.6972 60.3407 88.4511 61.7952 90.5941 64.4619C88.4511 67.1189 85.6972 68.5831 82.7881 68.5831C79.879 68.5831 77.125 67.1189 74.982 64.4619ZM85.9396 85.7952C85.9396 86.4643 85.3965 87.0074 84.7275 87.0074H80.8487C80.1796 87.0074 79.6365 86.4643 79.6365 85.7952C79.6365 85.1262 80.1796 84.5831 80.8487 84.5831H84.7275C85.3965 84.5831 85.9396 85.1262 85.9396 85.7952ZM88.8487 81.9165C88.8487 82.5856 88.3056 83.1286 87.6365 83.1286H84.7275H80.8487H77.9396C77.2705 83.1286 76.7275 82.5856 76.7275 81.9165C76.7275 81.2474 77.2705 80.7043 77.9396 80.7043H87.6365C88.3056 80.7043 88.8487 81.2474 88.8487 81.9165Z" fill="white"/>
<path d="M85.6971 64.4618C85.6971 64.1903 85.6486 63.9382 85.5807 63.6958C85.3383 63.8703 85.0474 63.977 84.7274 63.977C83.9225 63.977 83.2728 63.3273 83.2728 62.5224C83.2728 62.2024 83.3795 61.9115 83.5541 61.6691C83.3116 61.6012 83.0498 61.5527 82.788 61.5527C81.1783 61.5527 79.8789 62.8521 79.8789 64.4618C79.8789 66.0715 81.1783 67.3709 82.788 67.3709C84.3977 67.3709 85.6971 66.0715 85.6971 64.4618Z" fill="white"/>
<defs>
<filter id="filter0_d_500_1507" x="0" y="0" width="153" height="153" filterUnits="userSpaceOnUse" color-interpolation-filters="sRGB">
<feFlood flood-opacity="0" result="BackgroundImageFix"/>
<feColorMatrix in="SourceAlpha" type="matrix" values="0 0 0 0 0 0 0 0 0 0 0 0 0 0 0 0 0 0 127 0" result="hardAlpha"/>
<feOffset/>
<feGaussianBlur stdDeviation="6.5"/>
<feComposite in2="hardAlpha" operator="out"/>
<feColorMatrix type="matrix" values="0 0 0 0 0.872198 0 0 0 0 0.840208 0 0 0 0 0.908333 0 0 0 1 0"/>
<feBlend mode="normal" in2="BackgroundImageFix" result="effect1_dropShadow_500_1507"/>
<feBlend mode="normal" in="SourceGraphic" in2="effect1_dropShadow_500_1507" result="shape"/>
</filter>
<linearGradient id="paint0_linear_500_1507" x1="140.524" y1="172.015" x2="-129.03" y2="36.4341" gradientUnits="userSpaceOnUse">
<stop offset="0.02" stop-color="#45108A"/>
<stop offset="0.2899" stop-color="#3D0661"/>
<stop offset="0.29" stop-color="#3D065F"/>
<stop offset="1" stop-color="#200554"/>
</linearGradient>
</defs>
</svg>
