<svg width="48" height="46" viewBox="0 0 48 46" fill="none" xmlns="http://www.w3.org/2000/svg">
<path d="M22.4945 12.964C18.3613 12.967 14.9998 16.3538 14.9998 20.518V21.272C14.585 21.2727 14.2505 21.6097 14.2505 22.0274V26.564C14.2505 26.9818 14.5858 27.3188 14.9998 27.3195C15.0005 30.6655 16.8148 33.5862 19.4998 35.1568V37.1399L17.2498 37.1392C14.3555 37.1392 11.9998 39.5114 11.9998 42.4267V44.6916C11.9998 45.1094 12.335 45.4471 12.7498 45.4471C13.1645 45.4471 13.4998 45.1094 13.4998 44.6916V42.4267C13.4998 40.3439 15.182 38.6501 17.2498 38.6501L19.9393 38.6509L21.2195 39.9397C21.2315 39.9518 21.2473 39.9556 21.26 39.9662C21.3088 40.0107 21.3628 40.0447 21.422 40.0749C21.446 40.087 21.4685 40.1014 21.4933 40.1112C21.575 40.1414 21.6613 40.1611 21.7505 40.1611C21.8285 40.1611 21.9088 40.1482 21.9875 40.1218L23.9998 39.4464L26.0128 40.1225C26.0915 40.149 26.1718 40.1618 26.2498 40.1618C26.339 40.1618 26.4245 40.1422 26.507 40.112C26.5325 40.1021 26.5543 40.0878 26.5783 40.0757C26.6375 40.0462 26.6908 40.0115 26.7403 39.9669C26.753 39.9556 26.7688 39.9518 26.7808 39.9405L28.061 38.6516L30.7498 38.6501C32.8175 38.6501 34.4998 40.3439 34.4998 42.4267V44.6916C34.4998 45.1094 34.835 45.4471 35.2498 45.4471C35.6645 45.4471 35.9998 45.1094 35.9998 44.6916V42.4267C35.9998 39.5114 33.644 37.1392 30.7498 37.1392L28.4998 37.1399V35.1568C31.1848 33.5862 32.999 30.6655 32.9998 27.3195C33.4138 27.3188 33.749 26.9818 33.749 26.564V22.0274C33.749 21.6097 33.4145 21.2727 32.9998 21.272V20.518C32.9998 18.2765 31.3745 16.4143 29.2498 16.0539V13.7187C29.2498 13.301 28.9145 12.9633 28.4998 12.9633H22.4998C22.4983 12.9633 22.4968 12.964 22.4945 12.964ZM32.249 22.7829V25.8086H31.5005V22.7829H32.249ZM30.0005 26.564C30.0005 26.9811 29.6645 27.3195 29.2505 27.3195H18.749C18.335 27.3195 17.999 26.9811 17.999 26.564V22.0274C17.999 21.6104 18.335 21.272 18.749 21.272H29.2505C29.6645 21.272 30.0005 21.6104 30.0005 22.0274V26.564ZM16.499 25.8086H15.7505V22.7829H16.499V25.8086ZM26.9998 37.5826L26.0465 38.5421L24.2368 37.9339C24.2098 37.9249 24.1828 37.9294 24.1558 37.9234C24.104 37.912 24.0538 37.9037 23.9998 37.9037C23.9458 37.9037 23.8948 37.9128 23.843 37.9234C23.816 37.9294 23.7898 37.9249 23.7628 37.9339L21.953 38.5421L20.9998 37.5826V35.8541C21.9395 36.1903 22.9468 36.3829 23.9998 36.3829C25.0528 36.3829 26.06 36.1903 26.9998 35.8541V37.5826ZM23.9998 34.872C19.865 34.872 16.5013 31.4844 16.4998 27.3195H16.6378C16.9483 28.1966 17.7733 28.8305 18.749 28.8305H29.2505C30.227 28.8305 31.0513 28.1966 31.3618 27.3195H31.4998C31.4983 31.4844 28.1345 34.872 23.9998 34.872ZM31.4998 20.518V21.272H31.3618C31.0513 20.3949 30.2263 19.761 29.2505 19.761H18.749C17.7725 19.761 16.9483 20.3949 16.6378 21.272H16.4998V20.518C16.4998 17.1856 19.1915 14.475 22.4998 14.475C22.5013 14.475 22.502 14.4742 22.5035 14.4742H27.7498V16.7406C27.7498 17.1584 28.085 17.4961 28.4998 17.4961C30.1543 17.4961 31.4998 18.8514 31.4998 20.518Z" fill="white"/>
<path d="M47.25 21.2734H36C35.5853 21.2734 35.25 21.6111 35.25 22.0289V32.6055C35.25 33.0233 35.5853 33.361 36 33.361H47.25C47.6648 33.361 48 33.0233 48 32.6055V22.0289C48 21.6111 47.6648 21.2734 47.25 21.2734ZM46.5 22.7844V23.5399H36.75V22.7844H46.5ZM36.75 31.8501V25.0508H46.5V31.8501H36.75Z" fill="white"/>
<path d="M44.2495 26.5619H39.0618C38.647 26.5619 38.3118 26.8996 38.3118 27.3174C38.3118 27.7351 38.647 28.0728 39.0618 28.0728H44.2495C44.6643 28.0728 44.9995 27.7351 44.9995 27.3174C44.9995 26.8996 44.6643 26.5619 44.2495 26.5619Z" fill="white"/>
<path d="M41.9995 28.8281H39.0618C38.647 28.8281 38.3118 29.1658 38.3118 29.5836C38.3118 30.0014 38.647 30.3391 39.0618 30.3391H41.9995C42.4143 30.3391 42.7495 30.0014 42.7495 29.5836C42.7495 29.1658 42.4143 28.8281 41.9995 28.8281Z" fill="white"/>
<path d="M13.774 4.11953C13.7732 4.11878 13.7725 4.11802 13.7717 4.11726C12.475 3.03618 10.8115 2.38647 9.00024 2.38647C4.86474 2.38647 1.50024 5.77553 1.50024 9.94121C1.50024 10.8191 1.65699 11.6584 1.93149 12.4433C1.94199 12.4743 1.95024 12.5045 1.96449 12.534C3.01824 15.4244 5.76999 17.4959 9.00024 17.4959C13.1357 17.4959 16.5002 14.1069 16.5002 9.94121C16.5002 7.60075 15.4382 5.50658 13.774 4.11953ZM10.5002 6.91932C10.0862 6.91932 9.75024 6.58086 9.75024 6.16384C9.75024 5.74682 10.0862 5.40837 10.5002 5.40837H12.955C13.4425 5.8405 13.8602 6.34969 14.1887 6.91932H10.5002ZM6.00024 12.9631C6.41424 12.9631 6.75024 13.3016 6.75024 13.7186C6.75024 14.1356 6.41424 14.4741 6.00024 14.4741H5.04549C4.55799 14.0419 4.14024 13.5327 3.81174 12.9631H6.00024ZM9.00024 15.985C8.34174 15.985 7.70874 15.8739 7.11549 15.6753C7.79049 15.2832 8.25024 14.5572 8.25024 13.7186C8.25024 12.469 7.24074 11.4522 6.00024 11.4522H3.19824C3.07374 10.9679 3.00024 10.4632 3.00024 9.94121C3.00024 6.60882 5.69199 3.89742 9.00024 3.89742C9.31974 3.89742 9.63024 3.92991 9.93549 3.97826C8.96874 4.2321 8.25024 5.11147 8.25024 6.16384C8.25024 7.4134 9.25974 8.43026 10.5002 8.43026H14.8022C14.9267 8.91452 15.0002 9.41918 15.0002 9.94121C15.0002 13.2736 12.3085 15.985 9.00024 15.985Z" fill="white"/>
<path d="M0.75 33.3609H12H12.0007C12.0877 33.3609 12.174 33.3398 12.2587 33.3088C12.2857 33.2982 12.3097 33.2854 12.336 33.2718C12.363 33.2582 12.3907 33.2514 12.4163 33.234C12.4365 33.2197 12.4478 33.1985 12.4657 33.1841C12.507 33.1509 12.5423 33.1146 12.5745 33.0739C12.6053 33.0361 12.6308 32.9983 12.6525 32.9575C12.6743 32.9152 12.6915 32.8737 12.705 32.8276C12.7208 32.7769 12.7305 32.7278 12.7358 32.6757C12.738 32.6515 12.75 32.6304 12.75 32.6055V23.5398C12.75 23.122 12.4148 22.7843 12 22.7843H0.75C0.33525 22.7843 0 23.122 0 23.5398V32.6055C0 33.0232 0.33525 33.3609 0.75 33.3609ZM5.25 30.8422L5.78775 31.5644L5.59875 31.85H4.5L5.25 30.8422ZM9 29.4347L10.599 31.85H7.401L9 29.4347ZM1.5 24.2952H11.25V30.1101L9.627 27.6579C9.62625 27.6571 9.62625 27.6564 9.6255 27.6556L9.624 27.6533C9.603 27.6208 9.57075 27.6027 9.54525 27.5748C9.50475 27.5287 9.46875 27.4796 9.41625 27.4441C9.4155 27.4433 9.41475 27.4433 9.41475 27.4433C9.33225 27.3882 9.24 27.3511 9.144 27.3323C9.09525 27.3232 9.048 27.3315 9 27.3315C8.952 27.3315 8.904 27.3232 8.856 27.3323C8.76 27.3511 8.66775 27.3889 8.58525 27.4441C8.5845 27.4441 8.5845 27.4441 8.5845 27.4441C8.556 27.4629 8.5395 27.4917 8.51475 27.5143C8.466 27.5574 8.4135 27.5967 8.376 27.6541L8.3745 27.6564C8.37375 27.6571 8.37375 27.6579 8.373 27.6586L6.66975 30.2318L5.85 29.1303C5.82825 29.1001 5.796 29.0834 5.7705 29.0585C5.745 29.0328 5.72925 29.0011 5.7 28.9792C5.688 28.9701 5.67375 28.9686 5.66175 28.9611C5.616 28.9308 5.568 28.9119 5.51775 28.8915C5.47575 28.8757 5.4375 28.8568 5.394 28.8485C5.34525 28.8379 5.29575 28.8402 5.2455 28.8402C5.199 28.8409 5.1555 28.8387 5.10975 28.8477C5.06325 28.8568 5.022 28.8757 4.977 28.8946C4.92975 28.9135 4.88325 28.9316 4.839 28.9603C4.82625 28.9694 4.812 28.9709 4.8 28.9792C4.77075 29.0011 4.75425 29.0336 4.72875 29.0585C4.70325 29.0842 4.67175 29.1008 4.65 29.1303L2.625 31.85H1.5V24.2952Z" fill="white"/>
<path d="M3.77229 27.3175C4.18629 27.3175 4.52229 26.9798 4.52229 26.562C4.52229 26.1442 4.18629 25.8065 3.77229 25.8065H3.76479C3.35079 25.8065 3.01929 26.1442 3.01929 26.562C3.01929 26.9798 3.35829 27.3175 3.77229 27.3175Z" fill="white"/>
<path d="M39 0.87561H31.5C31.0853 0.87561 30.75 1.21331 30.75 1.63108V9.18582C30.75 9.6036 31.0853 9.94129 31.5 9.94129H39C39.4148 9.94129 39.75 9.6036 39.75 9.18582V1.63108C39.75 1.21331 39.4148 0.87561 39 0.87561ZM38.25 8.43035H32.25V2.38656H38.25V8.43035Z" fill="white"/>
<path d="M36.7498 12.2079V15.9852C36.7498 16.403 37.085 16.7407 37.4998 16.7407H41.2498C41.6645 16.7407 41.9998 16.403 41.9998 15.9852V12.2079C41.9998 11.7901 41.6645 11.4524 41.2498 11.4524H37.4998C37.085 11.4524 36.7498 11.7901 36.7498 12.2079ZM38.2498 12.9633H40.4998V15.2298H38.2498V12.9633Z" fill="white"/>
<path d="M27.75 8.43042C28.1648 8.43042 28.5 8.09273 28.5 7.67495V4.65306C28.5 4.23528 28.1648 3.89758 27.75 3.89758H24.75C24.3353 3.89758 24 4.23528 24 4.65306V7.67495C24 8.09273 24.3353 8.43042 24.75 8.43042H27.75ZM25.5 5.40853H27V6.91948H25.5V5.40853Z" fill="white"/>
<path d="M27.75 23.5406H20.25C19.8353 23.5406 19.5 23.8783 19.5 24.2961C19.5 24.7139 19.8353 25.0516 20.25 25.0516H27.75C28.1648 25.0516 28.5 24.7139 28.5 24.2961C28.5 23.8783 28.1648 23.5406 27.75 23.5406Z" fill="white"/>
</svg>
