<svg width="32" height="33" viewBox="0 0 32 33" fill="none" xmlns="http://www.w3.org/2000/svg">
<path d="M22.1538 13.5499C22.1538 11.1761 21.3109 9.14557 19.625 7.45824C17.9391 5.77092 15.9103 4.92725 13.5385 4.92725C11.1667 4.92725 9.13782 5.77092 7.45192 7.45824C5.76603 9.14557 4.92308 11.1761 4.92308 13.5499C4.92308 15.9238 5.76603 17.9543 7.45192 19.6416C9.13782 21.329 11.1667 22.1726 13.5385 22.1726C15.9103 22.1726 17.9391 21.329 19.625 19.6416C21.3109 17.9543 22.1538 15.9238 22.1538 13.5499ZM32 29.5635C32 30.2307 31.7564 30.8082 31.2692 31.2958C30.7821 31.7833 30.2051 32.0271 29.5385 32.0271C28.8462 32.0271 28.2692 31.7833 27.8077 31.2958L21.2115 24.7133C18.9167 26.3043 16.359 27.0999 13.5385 27.0999C11.7051 27.0999 9.95192 26.7438 8.27885 26.0317C6.60577 25.3195 5.16346 24.3572 3.95192 23.1446C2.74038 21.932 1.77885 20.4885 1.06731 18.814C0.355769 17.1395 0 15.3848 0 13.5499C0 11.7151 0.355769 9.96036 1.06731 8.28587C1.77885 6.61137 2.74038 5.16784 3.95192 3.95528C5.16346 2.74271 6.60577 1.78035 8.27885 1.06821C9.95192 0.356071 11.7051 0 13.5385 0C15.3718 0 17.125 0.356071 18.7981 1.06821C20.4712 1.78035 21.9135 2.74271 23.125 3.95528C24.3365 5.16784 25.2981 6.61137 26.0096 8.28587C26.7212 9.96036 27.0769 11.7151 27.0769 13.5499C27.0769 16.3729 26.2821 18.9327 24.6923 21.2295L31.2885 27.8313C31.7628 28.306 32 28.8835 32 29.5635Z" fill="#5B3E95"/>
</svg>
