<svg width="48" height="48" viewBox="0 0 48 48" fill="none" xmlns="http://www.w3.org/2000/svg">
<path d="M41.8065 34.0692V30.9677C41.8052 29.9415 41.397 28.9576 40.6713 28.2319C39.9456 27.5062 38.9618 27.098 37.9355 27.0968H31.4183C32.1349 25.7749 32.7129 24.3824 33.1432 22.9417L36.0852 20.5874C36.5424 20.2223 36.8767 19.7257 37.0429 19.1647C37.2091 18.6036 37.1992 18.0051 37.0146 17.4499C36.8299 16.8946 36.4794 16.4094 36.0103 16.0596C35.5412 15.7099 34.9761 15.5124 34.3912 15.4939L36.1161 10.7512C36.5563 9.54086 36.6981 8.24225 36.5298 6.9654C36.3614 5.68855 35.8878 4.4711 35.1489 3.41619C34.4101 2.36128 33.4279 1.5 32.2855 0.905331C31.1431 0.310657 29.8742 0.00010991 28.5863 8.15722e-07H22.0134C17.0952 -0.00122581 12.2758 1.38096 8.10581 3.98865C7.98052 4.06626 7.87998 4.17802 7.81602 4.31079C7.75205 4.44357 7.72732 4.59185 7.74472 4.7382C7.76212 4.88455 7.82093 5.02289 7.91424 5.13697C8.00755 5.25105 8.13149 5.33612 8.27148 5.38219L10.1381 6.00155C10.395 6.08725 10.6317 6.22454 10.8336 6.40499C11.0356 6.58544 11.1985 6.80525 11.3125 7.05093C11.4264 7.29661 11.489 7.56298 11.4963 7.83371C11.5037 8.10444 11.4556 8.3738 11.3551 8.62529C11.1696 9.08892 11.0844 9.58657 11.1051 10.0855C11.1258 10.5844 11.2519 11.0733 11.4751 11.52L13.471 15.5079C12.9 15.5533 12.3559 15.7694 11.9093 16.1281C11.4627 16.4867 11.1343 16.9714 10.9666 17.5191C10.799 18.0668 10.7999 18.6522 10.9693 19.1994C11.1387 19.7465 11.4687 20.2301 11.9164 20.5874L14.8583 22.9417C15.2881 24.3824 15.8656 25.7748 16.5817 27.0968H10.0645C9.03825 27.098 8.05437 27.5062 7.32869 28.2319C6.60301 28.9576 6.19478 29.9415 6.19355 30.9677V34.0692C4.36122 34.8346 2.79585 36.1243 1.69395 37.7763C0.592058 39.4283 0.00274562 41.3691 0 43.3548V47.2258C0 47.4311 0.0815666 47.6281 0.226756 47.7732C0.371945 47.9184 0.568865 48 0.774194 48H47.2258C47.4311 48 47.6281 47.9184 47.7732 47.7732C47.9184 47.6281 48 47.4311 48 47.2258V43.3548C47.9973 41.3691 47.4079 39.4283 46.3061 37.7763C45.2042 36.1243 43.6388 34.8346 41.8065 34.0692V34.0692ZM30.1936 15.4839H25.5484C25.3431 15.4839 25.1461 15.5654 25.0009 15.7106C24.8558 15.8558 24.7742 16.0527 24.7742 16.2581V17.0323H23.2258V16.2581C23.2258 16.0527 23.1442 15.8558 22.9991 15.7106C22.8539 15.5654 22.6569 15.4839 22.4516 15.4839H15.4839V14.3497L20.3164 11.1283C21.3563 10.4335 22.5791 10.0633 23.8297 10.0645C25.6189 10.0624 27.3545 9.45351 28.7528 8.33729L30.0178 7.32542L31.3455 9.3182C32.11 10.462 32.5174 11.8072 32.5161 13.183V15.4839H30.1936ZM29.4194 17.0323V19.3548C29.4194 19.5602 29.3378 19.7571 29.1926 19.9023C29.0474 20.0475 28.8505 20.129 28.6452 20.129H27.0968C26.8914 20.129 26.6945 20.0475 26.5493 19.9023C26.4041 19.7571 26.3226 19.5602 26.3226 19.3548V17.0323H29.4194ZM21.6774 17.0323V19.3548C21.6774 19.5602 21.5959 19.7571 21.4507 19.9023C21.3055 20.0475 21.1086 20.129 20.9032 20.129H19.3548C19.1495 20.129 18.9526 20.0475 18.8074 19.9023C18.6622 19.7571 18.5806 19.5602 18.5806 19.3548V17.0323H21.6774ZM35.6129 18.3484C35.6133 18.5459 35.5691 18.7409 35.4836 18.919C35.398 19.097 35.2734 19.2534 35.119 19.3765L33.7154 20.4991C33.92 19.3543 34.0326 18.195 34.0521 17.0323H34.2968C34.4696 17.0323 34.6408 17.0663 34.8004 17.1324C34.9601 17.1986 35.1052 17.2955 35.2274 17.4177C35.3496 17.54 35.4466 17.685 35.5127 17.8447C35.5789 18.0044 35.6129 18.1756 35.6129 18.3484V18.3484ZM12.792 9.20052C12.9709 8.75321 13.0565 8.27407 13.0435 7.79249C13.0306 7.31092 12.9194 6.83707 12.7168 6.4C12.5142 5.96294 12.2244 5.57188 11.8652 5.25081C11.5061 4.92975 11.0851 4.68545 10.6281 4.5329L10.3912 4.45548C13.9675 2.54615 17.9593 1.54767 22.0134 1.54839H28.5863C29.6251 1.54858 30.6484 1.79908 31.5698 2.27867C32.4912 2.75826 33.2835 3.45282 33.8795 4.30353C34.4755 5.15424 34.8578 6.13605 34.9939 7.16582C35.13 8.19559 35.016 9.243 34.6614 10.2194L33.9886 12.0697C33.8205 10.777 33.3569 9.5404 32.6338 8.45574L30.8377 5.76078C30.7781 5.67151 30.7006 5.59562 30.6101 5.53791C30.5196 5.4802 30.4181 5.44194 30.312 5.42555C30.206 5.40954 30.0978 5.4155 29.9942 5.44307C29.8906 5.47064 29.7937 5.51923 29.7097 5.58581L27.7858 7.12878C26.6618 8.02506 25.2673 8.51409 23.8297 8.51613C22.2732 8.51472 20.7513 8.97548 19.457 9.84L14.28 13.2914C14.232 13.3239 14.1878 13.3619 14.1484 13.4044L12.8601 10.8271C12.7346 10.5761 12.6636 10.3015 12.6519 10.0211C12.6401 9.74075 12.6879 9.46109 12.792 9.20052V9.20052ZM12.8818 19.3781C12.6681 19.208 12.5127 18.9756 12.437 18.7131C12.3613 18.4507 12.3691 18.1712 12.4594 17.9134C12.5496 17.6556 12.7179 17.4323 12.9407 17.2744C13.1636 17.1165 13.4301 17.0319 13.7032 17.0323H13.9463C13.9658 18.1955 14.0784 19.3554 14.2831 20.5006L12.8818 19.3781ZM15.4963 17.0323H17.0323V19.3548C17.0323 19.9708 17.277 20.5616 17.7125 20.9972C18.1481 21.4327 18.7389 21.6774 19.3548 21.6774H20.9032C21.5192 21.6774 22.11 21.4327 22.5455 20.9972C22.9811 20.5616 23.2258 19.9708 23.2258 19.3548V18.5806H24.7742V19.3548C24.7742 19.9708 25.0189 20.5616 25.4545 20.9972C25.89 21.4327 26.4808 21.6774 27.0968 21.6774H28.6452C29.2611 21.6774 29.8519 21.4327 30.2875 20.9972C30.723 20.5616 30.9677 19.9708 30.9677 19.3548V17.0323H32.5037C32.4436 20.5808 31.4529 24.0513 29.6307 27.0968H18.3693C16.5471 24.0513 15.5564 20.5808 15.4963 17.0323V17.0323ZM10.0645 28.6452H37.9355C38.5515 28.6452 39.1422 28.8899 39.5778 29.3254C40.0134 29.761 40.2581 30.3518 40.2581 30.9677V46.4516H7.74194V30.9677C7.74194 30.3518 7.98664 29.761 8.4222 29.3254C8.85777 28.8899 9.44853 28.6452 10.0645 28.6452V28.6452ZM1.54839 43.3548C1.55049 41.7861 1.98522 40.2484 2.80476 38.9108C3.6243 37.5731 4.79689 36.4875 6.19355 35.7732V46.4516H1.54839V43.3548ZM46.4516 46.4516H41.8065V35.7732C43.2031 36.4875 44.3756 37.5732 45.1951 38.9108C46.0147 40.2484 46.4494 41.7861 46.4516 43.3548V46.4516Z" fill="white"/>
<path d="M23.9999 44.129C24.6123 44.129 25.2111 43.9474 25.7203 43.6071C26.2296 43.2668 26.6265 42.7831 26.8609 42.2173C27.0953 41.6514 27.1566 41.0288 27.0371 40.4281C26.9176 39.8273 26.6227 39.2755 26.1896 38.8425C25.7565 38.4094 25.2047 38.1144 24.604 37.9949C24.0033 37.8754 23.3806 37.9368 22.8148 38.1712C22.2489 38.4055 21.7653 38.8025 21.425 39.3117C21.0847 39.821 20.9031 40.4197 20.9031 41.0322C20.9031 41.8535 21.2293 42.6412 21.8101 43.222C22.3909 43.8027 23.1785 44.129 23.9999 44.129ZM23.9999 39.4838C24.3061 39.4838 24.6055 39.5746 24.8601 39.7448C25.1147 39.9149 25.3132 40.1567 25.4304 40.4397C25.5476 40.7226 25.5782 41.0339 25.5185 41.3343C25.4587 41.6346 25.3113 41.9105 25.0947 42.1271C24.8782 42.3436 24.6023 42.4911 24.3019 42.5508C24.0016 42.6106 23.6902 42.5799 23.4073 42.4627C23.1244 42.3455 22.8826 42.1471 22.7124 41.8924C22.5423 41.6378 22.4515 41.3384 22.4515 41.0322C22.4515 40.6215 22.6146 40.2277 22.905 39.9373C23.1954 39.6469 23.5892 39.4838 23.9999 39.4838V39.4838Z" fill="white"/>
<path d="M18.8073 36.9343L19.902 35.8395L17.3526 33.2901L19.902 30.7407L18.8073 29.646L15.7106 32.7428C15.5654 32.888 15.4839 33.0848 15.4839 33.2901C15.4839 33.4954 15.5654 33.6923 15.7106 33.8375L18.8073 36.9343Z" fill="white"/>
<path d="M29.1921 36.9343L32.2889 33.8375C32.434 33.6923 32.5156 33.4954 32.5156 33.2901C32.5156 33.0848 32.434 32.888 32.2889 32.7428L29.1921 29.646L28.0974 30.7407L30.6468 33.2901L28.0974 35.8395L29.1921 36.9343Z" fill="white"/>
<path d="M25.7037 29.7291L21.0574 35.9218L22.2959 36.851L26.9423 30.6584L25.7037 29.7291Z" fill="white"/>
</svg>
